<svg width="142" height="90" viewBox="0 0 142 90" fill="none" xmlns="http://www.w3.org/2000/svg">
<path d="M103.828 26.2204C104.132 25.9049 104.35 25.5606 104.465 25.1877C104.632 24.6656 104.586 24.0976 104.345 23.5984L104.178 23.2484L104.368 22.9156C105.636 20.6837 107.759 16.6158 107.713 14.4069V14.3266L107.69 14.1774C107.477 12.9324 106.496 12.066 105.297 12.066C104.781 12.066 104.287 12.2266 103.857 12.5365L103.564 12.743L98.9514 16.4724L97.8843 15.0323C97.8843 15.0323 102.549 11.2742 102.566 11.257C102.767 11.1078 103.455 10.5857 104.064 10.1152L104.947 9.43247L104.655 8.35383C104.477 7.68828 103.771 6.15061 101.074 6.15061C100.684 6.15061 100.265 6.17932 99.7949 6.23669L99.5998 6.25963C97.2761 6.55224 94.8778 6.8506 92.5197 7.34403C89.9722 7.87188 88.36 9.74805 88.0961 12.4906C88.0215 13.2479 87.9526 14.0225 87.8895 14.8085L87.8781 14.9634C87.7461 16.547 87.6027 18.1822 87.4076 19.7084C87.2182 21.1313 86.5814 24.0172 84.4069 27.3622C84.2232 27.6433 83.7872 28.2515 83.1044 29.1753L82.3987 30.1277L81.8594 29.072C81.6701 28.699 81.452 28.3835 81.1996 28.1196L80.9701 27.8786L80.9988 27.5458C81.0045 27.477 81.0447 26.8401 81.0619 26.5876L81.0676 26.4844C81.0906 26.1057 81.1135 25.7098 81.1537 25.3196C81.1881 25.0098 81.234 24.7057 81.2914 24.3557C81.3373 24.0574 81.3832 23.7533 81.4234 23.455L81.4578 23.1853L81.6586 23.0017C82.1233 22.5829 82.4389 22.078 82.6569 21.3837C82.7028 21.2977 82.743 21.2059 82.7831 21.1083L82.8807 20.8731C82.9839 20.6264 83.1159 20.3223 83.2135 19.9838C83.3339 19.5707 83.4372 19.1289 83.5405 18.6756L83.6151 18.3486C83.6667 18.1363 83.6897 17.9068 83.6897 17.6601V17.3617C83.6954 16.5814 83.7069 15.6118 83.3684 14.6192C83.1733 14.0512 82.8348 13.5807 82.393 13.2594L82.0832 13.0356L82.0889 12.657C82.0889 12.3529 82.0889 12.0545 82.0774 11.7504C82.0602 11.2627 82.02 10.6144 81.8651 9.96607C81.6012 8.853 81.3315 7.94647 81.0217 7.11453C80.8783 6.72438 80.7463 6.32849 80.6144 5.9326L80.5627 5.77195C80.4595 5.45639 80.3562 5.13509 80.2414 4.81952C79.7767 3.48842 79.0021 2.48435 77.9521 1.83601C77.5907 1.61225 77.235 1.4516 76.9137 1.3139L76.7243 1.22784C76.5809 1.16472 76.4317 1.10734 76.294 1.06144L76.1334 1.00406C75.6285 0.763089 75.0834 0.60819 74.4121 0.51639C73.9244 0.44754 73.4367 0.378687 72.949 0.298362C72.754 0.269674 72.5589 0.235253 72.3294 0.195091C72.0253 0.143453 71.727 0.09181 71.4286 0.0459099C71.2221 0.0172223 71.0212 0 70.8319 0C70.654 0 70.4819 0.0114792 70.3155 0.0401668C69.4434 0.177867 68.2959 0.407373 67.1484 0.906537L66.6894 1.10161C66.3337 1.25079 66.0124 1.38849 65.6968 1.53767L65.5821 1.5893C65.2264 1.75569 64.7387 1.99092 64.3141 2.3696C63.2756 3.29334 62.4953 4.4179 61.9961 5.71458C61.5142 6.96535 61.1986 8.22186 60.8888 9.43822C60.5331 10.8324 60.3667 12.1349 60.3667 13.4086V13.6897L60.1773 13.902C59.8905 14.2176 59.7011 14.5389 59.5921 14.8831C59.4544 15.3192 59.3626 15.7782 59.3339 16.2486C59.2651 17.2986 59.3798 18.3141 59.5003 19.169C59.5405 19.4559 59.6323 19.6797 59.6954 19.8289L59.8388 20.2018C59.9708 20.546 60.1028 20.896 60.2462 21.2345C60.5044 21.8599 60.8486 22.5829 61.4281 23.2197L61.5658 23.3746L61.606 23.5755C61.7207 24.1492 61.8929 24.7229 62.1969 25.5205L62.2084 25.5606L62.2945 27.9417L62.0306 28.1712C61.8699 28.3146 61.7322 28.4523 61.6002 28.59L60.424 29.7777L60.2806 28.1999C60.229 27.6204 59.9823 27.0753 59.5692 26.6221C58.7602 25.7328 56.1955 22.9099 56.1955 22.9099L56.4996 22.4337C57.0906 21.5099 57.0389 20.3395 56.3562 19.4502C56.293 19.3641 56.2242 19.278 56.1553 19.2035L55.9545 18.9797C55.834 18.842 55.7078 18.7043 55.5759 18.5723L55.5013 18.492C55.1914 18.1707 54.8185 17.924 54.3882 17.7691L54.1243 17.6715L53.9923 17.4306C52.8391 15.3249 50.1137 12.3758 48.1974 11.5898L48.054 11.5324L47.9105 11.3832C47.3884 10.8382 46.6999 10.1611 46.0803 9.55297C45.4721 8.95627 44.841 8.33662 44.3246 7.7973L44.0549 7.51615C42.9246 6.31127 41.4329 5.65145 39.8436 5.65145C38.7879 5.65145 37.7264 5.94981 36.7625 6.51782C35.6265 7.18911 34.8405 8.13007 34.1348 9.03086C33.0274 10.448 31.8111 12.1004 31.1627 13.5979C31.0824 13.7873 31.0136 13.9881 30.9275 14.229L30.8644 14.4126C30.4914 15.4913 30.9504 16.6503 31.5357 17.2757L33.7159 19.5936L33.8708 19.5305L35.5003 21.728C35.8216 22.164 36.6191 23.1337 39.3789 26.209L0.822769 26.4614L2.12518 29.1867C2.24567 29.4392 4.8505 34.7521 10.5421 36.0144L11.0929 37.1733C11.1847 37.3684 13.4166 41.924 18.2074 43.5477L18.5 43.6453L19.3033 45.3321C19.3894 45.5157 21.5237 49.8934 26.1309 51.6032L26.4121 51.7065L27.4104 53.8007C27.5309 54.0474 30.3767 59.8939 36.6822 60.6627L37.0839 60.7086L37.692 61.9823C37.8297 62.275 39.1321 64.8855 41.8861 66.842L43.5099 67.9953L41.5247 68.1789C37.4166 68.5518 33.2914 69.0108 29.2521 69.5272L27.7891 69.7165V89.3216L29.6939 89.0634C43.5787 87.1815 57.6643 86.2233 71.572 86.2233C85.4912 86.2233 99.5941 87.1815 113.485 89.0692L115.389 89.3274V69.7223L113.926 69.5329C109.818 68.9993 105.573 68.5346 101.31 68.1559L99.3301 67.9781L100.948 66.8248C103.679 64.8798 104.982 62.2807 105.125 61.9938L105.739 60.7144L106.141 60.6627C112.452 59.8996 115.292 54.0531 115.412 53.8007L116.411 51.7122L116.692 51.6089C121.311 49.8992 123.433 45.5214 123.519 45.3378L124.323 43.651L124.615 43.5535C129.412 41.9297 131.638 37.3742 131.73 37.1791L132.281 36.0201C137.972 34.7579 140.571 29.4449 140.698 29.1925L142 26.4671L103.828 26.2204Z" fill="white"/>
<path d="M91.6705 28.0623L87.0117 34.1326C87.0117 34.1326 128.477 34.3621 129.825 34.3621C136.125 34.3621 138.988 28.3549 138.988 28.3549L91.6705 28.0623Z" fill="#0A8BCF"/>
<path d="M30.0669 71.7821C30.0669 71.7821 55.7652 69.2002 67.6877 69.2002C79.6103 69.2002 113.267 71.7821 113.267 71.7821V86.8144C113.267 86.8144 88.5551 84.2784 75.3645 84.2784C62.174 84.2784 29.7972 86.8144 29.7972 86.8144L30.0669 71.7821Z" fill="white"/>
<path d="M80.3217 15.388C80.3389 15.0437 80.2873 14.7282 80.557 14.6421C80.557 14.6421 81.6873 14.8085 81.2225 14.8831C80.7578 14.9519 80.293 16.0363 80.293 16.0363C80.293 16.0363 80.3217 15.4166 80.3217 15.388Z" fill="white"/>
<path d="M80.2357 19.6627C80.3332 19.307 80.4422 18.9512 80.5225 18.5898C80.5914 18.2914 80.5971 17.9931 80.5283 17.6775C80.4422 17.2816 80.4881 16.8628 80.6373 16.4726C80.6832 16.3579 80.7578 16.2489 80.9012 16.2604C81.0447 16.2718 81.1135 16.3866 81.1307 16.5071C81.1594 16.7308 81.1651 16.9603 81.1709 17.1267C81.0848 18.0677 80.9758 18.9455 80.6775 19.7889C80.557 20.1217 80.425 20.2537 80.293 20.1676C80.1094 20.0242 80.184 19.8406 80.2357 19.6627Z" fill="white"/>
<path d="M62.6789 20.2018C62.6559 20.2707 62.6043 20.3452 62.5469 20.3854C62.5125 20.4083 62.4207 20.3969 62.3863 20.3625C62.2945 20.2879 62.1912 20.2018 62.1396 20.0985C62.0133 19.8633 61.8756 19.6281 61.8068 19.3756C61.5658 18.5207 61.4109 17.6543 61.4396 16.765C61.4396 16.6847 61.4568 16.5986 61.474 16.5241C61.5084 16.3806 61.7092 16.3232 61.8183 16.4208C61.9617 16.547 62.0535 16.7019 62.0764 16.897C62.1051 17.1208 62.1281 17.3445 62.1625 17.6371C62.1625 17.6543 62.174 17.7404 62.151 17.815C61.933 18.5264 62.1797 19.1461 62.4953 19.76C62.5412 19.8518 62.6043 19.9321 62.6445 20.0297C62.6674 20.0756 62.6961 20.1502 62.6789 20.2018Z" fill="white"/>
<path d="M62.5756 16.3691C62.4264 16.3633 61.6117 15.4281 61.6346 15.2847C61.6519 15.1757 62.0477 14.929 62.1625 14.929C62.3117 14.929 62.4666 15.1183 62.5756 15.4339C62.6846 15.7552 62.7649 16.3748 62.5756 16.3691Z" fill="white"/>
<path d="M63.7116 8.98485C63.8551 7.86029 64.0559 6.75296 64.3944 5.67431C64.5436 5.19809 64.8075 4.785 65.2321 4.49812C65.5362 4.29157 65.8288 4.0678 66.1329 3.86125C66.85 3.3793 67.6476 3.08094 68.4738 2.83423C68.8639 2.71948 69.2541 2.61622 69.6442 2.48999C69.9827 2.37524 70.3155 2.36376 70.6655 2.40966C71.027 2.45556 71.3942 2.46704 71.7556 2.50146C72.2835 2.54736 72.8113 2.58178 73.3334 2.65637C73.7867 2.71948 74.1596 2.94899 74.4809 3.29324C75.4621 4.33173 75.8809 5.58251 75.9096 6.9882C75.9153 7.13164 75.9096 7.27508 75.9096 7.41852C75.9096 7.41852 75.9096 7.41852 75.9038 7.41852C75.9038 7.74555 75.9153 8.07833 75.8981 8.40537C75.8809 8.75536 75.7088 8.85862 75.3645 8.76682C74.8137 8.61764 74.2572 8.48568 73.7236 8.30208C72.8228 7.99226 71.8933 7.92342 70.9581 7.90047C70.0631 7.87752 69.168 7.92915 68.2844 8.07258C68.2443 8.07832 68.2041 8.07832 68.1639 8.0898C67.2115 8.38815 66.2591 8.6693 65.364 9.12256C64.9452 9.33485 64.5321 9.5586 64.119 9.77663C64.0846 9.79384 64.0444 9.81106 64.0042 9.82254C63.8149 9.89139 63.6657 9.79958 63.6715 9.60451C63.6772 9.39796 63.6887 9.1914 63.7116 8.98485Z" fill="white"/>
<path d="M62.874 13.2137C62.7764 13.1104 62.7707 12.9842 62.8223 12.8694C62.8912 12.7203 62.9715 12.5768 63.0748 12.4506C63.8092 11.567 64.6182 10.7466 65.5763 10.1097C66.6607 9.3925 67.8484 8.90481 69.1393 8.72694C69.5983 8.66383 71.6294 8.55481 73.1498 9.11135C74.6645 9.66789 75.1293 9.96051 76.3801 10.7695C76.5866 10.9015 77.5907 11.7104 77.7857 11.8596C78.1472 12.135 78.5144 12.3875 78.9677 12.485C79.0251 12.4965 79.0939 12.5194 79.1341 12.5539C79.1742 12.594 79.2029 12.6629 79.1972 12.7145C79.1914 12.7661 79.1455 12.835 79.0996 12.8579C79.0078 12.8924 78.8988 12.9325 78.8128 12.9153C78.6177 12.8752 78.4169 12.8178 78.2333 12.7317C78.0497 12.6457 77.8776 12.5309 77.7112 12.4104C75.4907 10.781 75.0375 10.6834 74.326 10.3277C73.6146 9.97197 72.6736 9.65068 71.6753 9.44413C70.2409 9.163 68.2672 9.48429 67.4238 9.82854C66.3451 10.2646 65.4558 10.9703 64.6067 11.7506C64.2452 12.0834 63.901 12.4334 63.637 12.8522C63.5395 13.0014 63.4018 13.1334 63.2584 13.2481C63.1436 13.3514 62.9658 13.3169 62.874 13.2137Z" fill="white"/>
<path d="M63.0977 17.2584C62.9313 15.7551 64.1018 13.4372 64.1018 13.4372C64.1649 13.3109 65.6624 12.0372 68.5713 11.5381C71.6466 11.0045 73.167 11.2569 74.5785 11.4061C77.2521 11.6815 78.8759 14.3208 78.8759 14.3208C78.8759 14.3208 79.834 16.7477 79.7078 17.7346C79.3578 20.4714 79.5644 22.3131 78.8988 24.8261C78.6636 25.7097 77.5046 26.513 75.9325 27.7121C74.8768 28.5154 73.999 29.5768 71.6409 29.5768C69.6729 29.5768 68.8123 29.0891 67.3492 27.7867C65.7771 26.3867 64.2567 25.1187 63.9813 24.3327C63.528 23.036 63.419 20.1902 63.0977 17.2584Z" fill="white"/>
<path d="M75.7834 31.9405C75.835 32.6405 75.5022 33.1798 75.0547 33.6388C74.4408 34.27 73.1498 35.5322 72.6908 36.7945C72.2777 37.9248 71.8876 38.8542 71.2335 38.8542C70.763 38.8542 68.7779 35.8994 68.0836 35.0847C67.4869 34.3847 66.7697 33.7938 66.2132 33.0536C66.1616 32.9905 66.1214 32.9159 66.064 32.8585C65.2952 32.061 65.0714 31.0971 65.2034 30.0242C65.2378 29.7373 65.255 29.4505 65.2837 29.1636C65.3009 29.0201 65.3124 28.8767 65.3583 28.739C65.4903 28.3374 65.8058 28.2341 66.1788 28.4464C66.5288 28.6529 68.6861 30.6324 71.3712 30.6668C74.0564 30.7012 74.2916 30.1504 75.2096 29.9611C75.267 29.9496 75.3301 29.9381 75.3875 29.9267C75.6285 29.898 75.7432 29.9726 75.7604 30.2135C75.7948 30.6037 75.8006 30.9939 75.8178 31.2635C75.8063 31.5733 75.7719 31.7569 75.7834 31.9405Z" fill="white"/>
<path d="M43.768 51.9762C43.8426 51.1959 43.9287 50.4213 44.0205 49.641C44.2098 48.1493 44.3361 43.2609 46.2065 39.6864C46.8835 38.3897 47.8187 37.3226 49.1211 36.6455C51.158 35.5898 60.2117 33.7251 60.2806 33.7481C60.3667 33.7768 60.315 34.2932 60.3036 34.3735C60.229 34.9472 60.1544 35.5152 60.0626 36.0833C59.9765 36.6341 60.0167 38.3037 60.0568 38.5963C60.1027 38.9463 60.2519 39.1528 60.6421 39.084C61.7322 38.6881 61.3535 38.9061 63.901 37.3685C64.1592 37.2824 64.3542 37.4717 64.5321 37.6152C64.7272 37.7644 64.9337 37.8963 65.1231 38.0512C65.496 38.3553 65.932 38.5274 66.3796 38.6594C66.5689 38.7168 66.7812 38.7053 66.982 38.6996C67.0451 38.6996 67.114 38.6192 67.1656 38.5848C67.1599 38.5389 67.1656 38.516 67.1541 38.4987C66.5632 37.5807 65.8632 36.7603 64.9681 36.1234C64.5034 35.7907 64.0444 35.7677 63.5338 36.0029C62.9887 36.2496 62.5125 36.5996 62.0764 37.0013C61.8355 37.225 61.6002 37.4545 61.3478 37.6611C61.2675 37.7299 61.1183 37.7701 61.015 37.7471C60.883 37.7184 60.8544 37.575 60.8658 37.443C60.9404 36.2095 60.9691 34.9759 61.233 33.7653C61.3937 33.0309 61.7494 32.3826 62.1568 31.7629C62.4838 31.258 62.8969 30.8334 63.3616 30.4605C63.4133 30.4203 63.5223 30.3974 63.5797 30.4261C63.637 30.4548 63.6887 30.5523 63.6887 30.6212C63.6887 30.8048 63.6772 30.9941 63.6485 31.172C63.5739 31.7457 63.769 32.2219 64.1706 32.6235C64.228 32.6809 64.2796 32.7498 64.3485 32.7957C65.0255 33.2489 67.3607 35.8079 67.8082 36.6685C68.2729 37.5693 69.9655 41.006 70.2294 41.3675C70.4934 41.729 70.9294 42.4863 71.2392 42.4462C71.5491 42.4003 72.0482 41.5109 72.3523 40.8167C72.7023 40.0135 73.6375 37.2939 75.0031 35.6357C76.1333 34.0866 77.803 32.8645 78.3021 32.2678C78.589 31.9293 78.7439 31.5391 78.7956 31.0916C78.8242 30.8736 78.8931 30.6556 78.9677 30.4433C79.0078 30.3228 79.1914 30.2999 79.2775 30.3859C79.375 30.4892 79.4668 30.5982 79.5472 30.7187C79.8513 31.1605 80.0349 31.6654 80.2185 32.1703C80.2758 32.3194 80.2701 32.4916 80.2873 32.6522C80.3676 33.3751 80.2529 34.0923 80.2414 34.8095C80.2357 35.5267 80.207 36.0316 80.1668 36.7488C80.1496 37.0529 80.0807 37.575 80.0176 37.8791C79.9775 38.0742 79.7709 38.1717 79.5816 38.1029C79.4496 38.0512 78.9103 37.7012 78.7496 37.6094C76.9882 36.5996 76.2251 36.5652 75.7948 36.6168C75.5366 36.6513 75.3129 36.68 75.1465 36.8693C75.0375 36.9955 74.9285 37.1849 74.8654 37.334C74.6645 37.8045 74.4809 38.2865 74.2973 38.7627C74.2859 38.7971 74.1195 39.2504 74.2744 39.2848C74.4293 39.3192 74.7563 38.9348 74.8309 38.866C74.9801 38.7225 75.5481 38.2578 75.6801 38.1832C76.2481 37.8791 76.8046 37.9881 77.344 38.2807C78.2562 38.7799 79.1685 39.2905 80.0004 39.9217C80.2586 40.1167 80.5225 40.3061 80.7979 40.4036C80.9987 40.3118 81.0389 40.1798 81.0504 40.0307C81.1135 39.2733 81.1766 38.516 81.234 37.7586C81.2397 37.6783 81.4291 33.9432 81.4405 33.8801C81.475 33.6391 81.6299 33.553 81.8823 33.6047C82.7028 33.771 83.5118 33.9948 84.338 34.0751C85.3994 34.1784 87.5854 34.362 90.4771 35.1079C93.3688 35.8538 95.268 37.4545 96.3064 40.7708C97.3449 44.0871 98.1941 48.6599 98.3719 49.5894C98.5039 50.2951 98.5498 51.018 98.6301 51.7295C98.6416 51.827 98.6301 51.936 98.6129 52.0335C98.5728 52.2344 98.4293 52.3204 98.1482 52.3434C97.4597 52.4122 87.5682 53.99 87.3444 53.9499C86.7363 53.8351 85.5486 49.6066 85.5142 49.532C85.4797 49.4689 85.4109 49.3886 85.3478 49.3771C85.2904 49.3713 85.1929 49.4287 85.1584 49.4861C85.1068 49.5721 85.0839 49.6754 85.0666 49.7787C84.9462 50.6336 84.8142 51.4885 84.7167 52.3491C84.6535 52.9458 84.6191 53.5368 83.8388 53.3015C83.8216 53.2958 82.6225 53.0893 82.043 52.9975C81.3602 52.8884 80.6717 52.8024 79.9832 52.7565C78.48 52.6475 73.5629 52.1999 72.6048 52.1827C70.9753 52.1483 69.3459 51.9647 67.7164 51.9245C66.6378 51.8958 62.96 51.6491 62.4723 51.5918C61.0724 51.4368 59.6782 51.2533 58.2667 51.3278C57.9225 51.3451 56.6602 48.8492 56.4652 48.3443C56.4193 48.2296 56.3619 48.1148 56.2873 48.023C56.2471 47.9714 56.1439 47.9312 56.0807 47.9427C56.0176 47.9599 55.9316 48.0402 55.9201 48.1034C55.8857 48.2812 55.8685 48.4706 55.8799 48.6542C55.9029 48.941 56.1897 53.1294 56.1725 53.2499C56.1324 53.4679 55.943 53.5655 55.7881 53.554C50.7621 53.5884 45.145 53.0434 44.6574 53.0319C44.2844 53.0261 43.8254 52.9573 43.7738 52.5844C43.7508 52.3893 43.7508 52.1827 43.768 51.9762Z" fill="white"/>
<path d="M73.4367 64.065L64.6583 66.3428C59.3511 67.6739 53.7341 67.9263 51.462 67.6567C49.1843 67.3928 48.9662 67.2895 47.704 67.2149C47.2392 67.1862 46.7745 67.0944 46.3155 67.0141C46.0917 66.9739 45.8967 66.8706 45.7647 66.6641C45.5696 66.3543 43.9574 64.2888 43.6705 61.1102C43.6705 59.5496 43.8197 55.562 43.8426 55.0858C43.8541 54.8219 43.9746 54.6555 44.1984 54.5637C44.3475 54.5063 44.5139 54.4547 44.6688 54.4604C47.2565 54.5981 53.0399 54.5407 53.3439 54.5694C53.6021 54.5866 53.8718 54.6038 54.1529 54.7587C54.0956 54.8505 54.0611 54.9481 53.9923 54.994C53.912 55.0456 53.7972 55.0456 53.6997 55.0686C53.0456 55.2235 52.3915 55.3784 51.7432 55.5448C51.5711 55.5907 51.3932 55.6595 51.244 55.7628C51.0088 55.9235 51.026 56.2275 51.2612 56.3767C51.3588 56.4398 51.485 56.48 51.5997 56.4857C51.7374 56.4915 51.8809 56.4571 52.0243 56.4341C52.8735 56.2964 53.7284 56.2677 54.5833 56.2505C55.1398 56.239 55.6791 56.3193 56.2184 56.4456C56.8324 56.5947 57.452 56.698 58.0774 56.7956C58.9208 56.9275 59.7585 57.1226 60.5847 57.3234C61.6748 57.5873 62.7477 57.8914 63.8379 58.1668C63.8379 58.1668 67.3607 59.3545 69.0475 60.2266C70.7343 61.0987 71.4688 61.6725 72.5474 62.5847C72.9662 62.9404 73.3048 63.388 73.649 63.7609C73.6605 63.9789 73.5744 64.0535 73.4367 64.065Z" fill="white"/>
<path d="M99.1178 61.1102C99.0949 62.9634 97.6433 65.6658 97.3851 66.0444C97.2474 66.2453 97.1498 66.4747 97.0408 66.6985C96.8056 67.1632 96.4671 67.4272 95.9278 67.3928C95.1761 67.3469 94.4245 67.3182 93.6729 67.2895C92.5139 67.2436 85.3306 67.0829 79.0193 64.3863C73.4941 62.0224 67.6246 57.88 66.7181 57.3234C66.3738 57.1111 66.0525 56.8529 65.7255 56.612C65.5419 56.4743 65.4271 56.2792 65.3698 56.0497C65.3296 55.889 65.2952 55.7284 65.2263 55.5792C65.1288 55.3555 64.8419 55.2923 64.664 55.453C64.5608 55.5448 64.4862 55.671 64.4231 55.7972C64.3829 55.8833 64.3886 55.998 64.3772 56.1013C64.3198 56.5947 64.2452 56.6693 63.8149 56.503C63.2354 56.2792 58.5708 55.8431 58.3126 55.78C57.6471 55.6194 57.2569 54.8678 57.5266 54.2309C57.7733 53.6514 58.1348 53.1695 58.7257 52.8941C59.4773 52.5441 60.2519 52.3203 61.0781 52.3146C61.5256 52.3088 61.9731 52.2916 62.4207 52.3203C62.9084 52.349 63.3961 52.4064 63.878 52.4752C64.3427 52.5441 64.8075 52.6129 65.255 52.7391C65.8288 52.8998 66.4083 52.94 66.9992 52.9744C68.5254 53.0605 70.0458 53.1752 71.5663 53.2899C72.8228 53.3817 74.085 53.485 75.3416 53.5883C76.621 53.6916 77.8948 53.8006 79.1627 54.0243C79.6619 54.1161 80.1725 54.1621 80.6774 54.208C81.3487 54.2653 85.3707 55.0628 86.1912 55.212C86.6272 55.2923 91.2746 56.48 92.0836 56.7497C92.2213 56.7956 92.3533 56.8529 92.491 56.8816C92.7549 56.939 93.1106 56.7382 93.1451 56.3423C93.1795 55.9349 92.6402 55.6538 92.2041 55.4817C92.0377 55.4186 91.814 55.3325 91.8369 55.1202C91.8599 54.8448 92.0377 54.7989 92.2213 54.7587C93.5754 54.4661 95.0499 54.3686 96.4269 54.2252C97.1326 54.1506 97.8498 54.1678 98.6473 54.1448C98.699 54.4145 98.785 55.4243 98.8252 55.7112C99.1006 57.5816 99.135 59.4004 99.1178 61.1102Z" fill="white"/>
<path d="M54.9562 20.4886C54.9218 20.4427 54.8873 20.3968 54.8472 20.3509C54.7783 20.2763 54.7095 20.196 54.6406 20.1214C54.5373 20.0067 54.4341 19.8919 54.3251 19.7829C54.2906 19.7485 54.2562 19.7083 54.2218 19.6739C53.7857 19.2149 53.2464 19.169 52.7702 19.5878C51.8292 20.414 50.8883 21.2517 49.9703 22.1066C49.9531 22.1238 49.9301 22.1525 49.9129 22.1869C49.5113 22.6 49.517 23.0992 49.9186 23.5524C49.9301 23.5639 49.9359 23.5697 49.9473 23.5811C50.0506 23.7074 50.1596 23.8278 50.2744 23.9426C50.3604 24.0401 50.4465 24.1319 50.5383 24.2295C50.9399 24.6655 51.4735 24.7344 51.921 24.3557C52.9194 23.5008 53.9062 22.6344 54.8816 21.7509C55.266 21.4066 55.2775 20.8902 54.9562 20.4886Z" fill="#222E55"/>
<path d="M46.6081 12.548C45.5811 11.4751 44.0721 10.0521 43.0049 8.93907C42.9131 8.84153 42.8156 8.74973 42.7238 8.65219C41.3296 7.16618 39.2813 6.89077 37.4912 7.94647C36.5847 8.48006 35.9478 9.26036 35.3282 10.0579C34.3872 11.2628 33.1651 12.8865 32.5627 14.2749C32.4651 14.5044 32.3963 14.7397 32.3102 14.9749C32.1553 15.4225 32.4594 15.9733 32.62 16.1396C32.775 16.306 33.5897 17.1724 33.5897 17.1724C33.5897 17.1724 35.1904 15.8356 35.965 15.1815C36.8027 14.4758 38.042 13.4028 38.8797 12.6971C38.9944 12.6053 39.1149 12.5135 39.2411 12.4447C39.6313 12.2267 39.8895 12.2611 40.1821 12.5881C40.9968 13.4889 43.0508 15.6692 43.0508 15.6692C43.0508 15.6692 45.4262 13.5635 46.6081 12.548Z" fill="#222E55"/>
<path d="M54.2677 27.672C55.2488 28.7048 55.5357 28.9745 56.2471 29.749C56.4881 30.0187 56.7922 30.122 57.1365 30.0416C57.8307 29.8867 58.2782 29.4449 58.5077 28.7909C58.6339 28.4294 58.5364 28.0966 58.2725 27.8097C56.8381 26.2377 54.0095 23.1165 54.0095 23.1165L52.8391 24.1894C52.8448 24.1894 54.2505 27.3622 54.2677 27.672Z" fill="#222E55"/>
<path d="M104.941 13.9021C103.461 14.975 100.036 17.729 99.7834 17.9184C99.4449 18.1708 99.3416 18.5323 99.5596 18.8536C100.569 20.2191 102.164 22.2158 102.6 22.8125C102.6 22.8125 106.181 16.7192 106.135 14.4701C106.02 13.7816 105.395 13.5751 104.941 13.9021Z" fill="#222E55"/>
<path d="M102.784 24.1494L95.595 14.7456C95.595 14.5678 95.6925 14.4243 95.8933 14.2809C96.5532 13.8104 102.101 9.58187 103.134 8.78435C102.853 7.74012 101.355 7.73438 100.087 7.89503C97.6892 8.19338 95.2852 8.49172 92.9213 8.98515C91.005 9.38678 90.0067 10.6949 89.8116 12.6629C89.5821 15.0325 89.4214 17.5972 89.1059 19.961C88.819 22.147 87.8953 25.1707 85.8412 28.3378C85.4396 28.9517 84.097 30.7705 82.2668 33.186C82.4389 33.2147 82.6167 33.2548 82.8003 33.3007C82.9036 33.3237 86.0019 33.8343 88.2797 34.213C92.9557 28.1542 94.3844 27.7927 99.0719 26.6739C99.5653 26.5534 100.053 26.41 100.535 26.2493C102.4 25.6297 103.312 24.8609 102.87 24.2699C102.841 24.224 102.813 24.1896 102.784 24.1494ZM97.2933 22.6232C97.1556 22.4913 97.1556 22.2675 97.2876 22.1355L98.0965 21.2979C98.2285 21.1602 98.4523 21.1602 98.5842 21.2921C98.7219 21.4241 98.7219 21.6479 98.59 21.7798L97.781 22.6175C97.649 22.7552 97.431 22.7552 97.2933 22.6232ZM98.1998 23.7937C98.0621 23.6617 98.0621 23.438 98.1941 23.306L99.0031 22.4683C99.135 22.3306 99.3588 22.3306 99.4908 22.4626C99.6285 22.5945 99.6285 22.8183 99.4965 22.9503L98.6875 23.7879C98.5555 23.9256 98.3375 23.9314 98.1998 23.7937ZM100.403 24.1265L99.594 24.9641C99.4621 25.1018 99.2383 25.1018 99.1063 24.9699C98.9686 24.8379 98.9686 24.6141 99.1006 24.4822L99.9096 23.6445C100.042 23.5068 100.265 23.5068 100.397 23.6388C100.535 23.765 100.541 23.9888 100.403 24.1265Z" fill="#222E55"/>
<path d="M43.0336 54.2481C43.3492 54.2424 43.1656 53.4793 43.0394 53.0432L28.7816 53.2211C28.7816 53.2211 31.6447 59.2283 37.9445 59.2283C38.6043 59.2283 40.5493 59.1996 43.0049 59.1537C42.9476 56.8529 42.9017 54.2481 43.0336 54.2481Z" fill="#F1CE43"/>
<path d="M43.2058 50.5763C43.4123 48.8608 43.6992 46.4453 43.9344 44.5002L20.6459 44.7297C20.6459 44.7297 23.5089 50.7369 29.8087 50.7369C30.8701 50.7369 36.9002 50.6566 43.2058 50.5763Z" fill="#F1CE43"/>
<path d="M44.5541 66.2912C44.2844 65.2355 43.0853 62.2233 43.0853 62.2233C43.0795 62.0053 43.0738 61.7069 43.0623 61.3569L39.0977 61.4315C39.0977 61.4315 40.9624 65.3216 44.9729 66.842C44.7492 66.6297 44.5885 66.4404 44.5541 66.2912Z" fill="#F1CE43"/>
<path d="M44.2041 42.3313C44.2844 41.6715 44.3418 41.2526 44.3533 41.2182C44.6631 40.2945 45.145 39.3535 45.868 38.2634C46.0745 37.9535 46.3442 37.6552 46.6196 37.3569C46.8548 37.0987 47.4687 36.5421 47.4687 36.5421C47.5663 36.4503 47.7613 36.3528 47.9794 36.261L12.401 36.5479C12.401 36.5479 15.2641 42.555 21.5639 42.555C22.8777 42.5493 34.3183 42.4345 44.2041 42.3313Z" fill="#0A8BCF"/>
<path d="M98.5269 45.2978C98.5441 45.4182 99.1178 48.614 99.4277 50.5705C105.802 50.6566 111.947 50.7312 113.02 50.7312C119.32 50.7312 122.183 44.724 122.183 44.724L98.3318 44.4888C98.4351 44.8732 98.5097 45.1715 98.5269 45.2978Z" fill="#F1CE43"/>
<path d="M99.6457 61.9307C99.5711 62.2118 98.785 65.0863 98.2801 66.6584C101.992 65.0347 103.731 61.4315 103.731 61.4315L99.703 61.3569C99.6916 61.6266 99.6744 61.8389 99.6457 61.9307Z" fill="#F1CE43"/>
<path d="M94.2237 36.2498C95.5376 37.1391 96.1687 38.4415 96.995 40.2086C97.104 40.4324 97.3966 41.3332 97.6949 42.32C107.781 42.4233 119.905 42.5495 121.253 42.5495C127.553 42.5495 130.416 36.5424 130.416 36.5424L94.2237 36.2498Z" fill="#0A8BCF"/>
<path d="M48.8859 28.0623L52.8448 34.1326C52.8448 34.1326 14.4034 34.3621 13.0494 34.3621C6.7496 34.3621 3.88658 28.3549 3.88658 28.3549L48.8859 28.0623Z" fill="#0A8BCF"/>
<path d="M99.6113 54.8735C99.6629 55.3899 99.7203 57.4037 99.7317 59.1537C102.228 59.1996 104.213 59.2283 104.884 59.2283C111.184 59.2283 114.047 53.2211 114.047 53.2211L99.6055 53.0432C99.5998 53.8293 99.6055 54.8104 99.6113 54.8735Z" fill="#F1CE43"/>
<path d="M69.5811 14.8828C68.9959 14.8943 68.4852 14.7853 67.9689 14.7796C67.441 14.7738 66.9074 14.7509 66.3796 14.791C65.8575 14.8312 65.3411 14.9345 64.796 15.0148C64.7157 14.9517 64.7616 14.8542 64.8075 14.7681C65.2091 14.0681 65.8173 13.7583 66.6206 13.7583C67.2345 13.7583 67.8369 13.8157 68.4451 13.8903C69.0246 13.9649 69.3688 14.246 69.5811 14.8828Z" fill="#222E55"/>
<path d="M69.8508 25.6352C70.8261 25.8418 72.0597 25.7844 73.0466 25.6352C73.6318 25.5434 73.3679 24.6484 72.7884 24.7344C71.9564 24.8607 70.9351 24.9066 70.1147 24.7344C69.5467 24.6197 69.2885 25.5205 69.8508 25.6352Z" fill="#222E55"/>
<path d="M75.9899 23.4318C75.967 23.2425 75.7604 22.99 75.5711 22.9212C75.5252 22.9212 75.4735 22.904 75.4448 22.9212C74.8826 23.2941 74.1654 23.34 73.54 23.2826C73.431 23.2712 73.322 23.231 73.2129 23.2023C72.708 23.0417 72.2318 22.9613 71.7155 23.2138C71.6925 23.2253 71.6753 23.231 71.6523 23.2367C71.6294 23.231 71.6122 23.2195 71.5892 23.2138C71.0729 22.9613 70.5966 23.0417 70.0917 23.2023C69.9827 23.2367 69.8737 23.2769 69.7647 23.2826C69.1393 23.3343 68.3016 23.2769 67.9115 22.9269C67.5213 22.5769 67.3263 23.1908 67.3033 23.3802C67.2804 23.5752 67.2976 23.8334 67.4582 23.9998C68.1754 23.7416 68.3074 23.7531 69.1221 23.908C69.3688 23.9539 69.6155 23.9884 69.868 23.9998C70.4073 24.0228 70.6712 24.0285 71.2106 24.0343V24.04C71.3827 24.04 71.4745 24.04 71.6466 24.04C71.8187 24.04 71.9105 24.04 72.0827 24.04V24.0343C72.622 24.0285 72.8859 24.017 73.4252 23.9998C73.6777 23.9884 73.9244 23.9539 74.1711 23.908C74.9858 23.7531 75.1178 23.7416 75.835 23.9998C76.0071 23.8334 76.0071 23.6269 75.9899 23.4318Z" fill="#222E55"/>
<path d="M77.6882 14.8428C77.4587 14.1428 76.8563 13.8215 75.9153 13.7756C75.1981 13.7412 74.3662 13.724 73.6892 13.9191C73.2072 14.0568 72.7367 14.3838 72.4154 15.3592C72.4154 15.3592 72.2892 15.5256 72.3408 16.6157C72.3982 17.7001 72.9261 19.6795 73.0007 19.8459C73.1039 20.0812 73.1384 20.3279 73.0408 20.5688C72.9433 20.8098 72.4326 20.936 72.1515 21.1254C71.79 21.3721 71.1245 21.418 70.6827 21.1655C69.9254 20.7352 69.3114 21.1828 69.3803 20.2074C68.927 19.9721 68.95 21.0852 69.4549 21.3778C69.8565 21.6131 70.0458 21.5901 70.763 21.9229C71.331 22.2098 71.8417 22.0835 72.1056 21.9631C72.9662 21.5786 73.9129 21.2459 73.7465 20.6148C72.972 17.746 72.8228 17.1837 72.8916 15.9157C72.9146 15.4912 73.1728 15.1412 73.5859 14.9977C73.999 14.8543 73.999 14.8543 74.3834 14.8084C74.5326 14.7912 74.7277 14.774 74.9457 14.7567C75.3186 14.751 75.6916 14.7453 76.0645 14.7739C76.5866 14.8141 77.103 14.9174 77.648 14.9977C77.6997 14.9576 77.6997 14.9002 77.6767 14.8371C77.6767 14.8428 77.6825 14.8428 77.6882 14.8428Z" fill="#222E55"/>
<path d="M77.7054 15.8068C77.6308 15.7494 77.5562 15.692 77.4702 15.6576C77.1259 15.5256 76.7759 15.4281 76.4145 15.365C76.0358 15.2961 75.6514 15.2732 75.267 15.3019C75.267 15.3019 73.9531 15.365 73.7293 15.6691C73.5056 15.9732 74.5154 16.7821 74.5154 16.7821C74.5383 16.4781 74.3146 16.2199 74.3605 16.0879C74.567 16.065 74.7735 16.042 74.9801 16.0133C75.003 16.0363 75.0203 16.0535 75.0375 16.0822C75.1465 16.3863 75.4448 16.6043 75.8006 16.61C75.9956 16.61 76.1735 16.5469 76.3169 16.4379C76.4833 16.3117 76.6038 16.1223 76.621 15.8986C76.9538 15.933 77.1202 15.9559 77.453 16.0133C77.5218 16.0248 77.6021 16.0019 77.6767 15.9846C77.7341 15.9674 77.7628 15.8469 77.7054 15.8068Z" fill="#222E55"/>
<path d="M65.169 15.8068C65.2436 15.7494 65.3181 15.692 65.4042 15.6576C65.7485 15.5256 66.0984 15.4281 66.4599 15.365C66.8386 15.2961 67.223 15.2732 67.6074 15.3019C67.6074 15.3019 68.9213 15.365 69.1451 15.6691C69.3688 15.9732 68.359 16.7821 68.359 16.7821C68.3361 16.4781 68.5598 16.2199 68.5139 16.0879C68.3074 16.065 68.1008 16.042 67.8943 16.0133C67.8713 16.0363 67.8541 16.0535 67.8369 16.0822C67.7279 16.3863 67.4295 16.6043 67.0796 16.61C66.8845 16.61 66.7066 16.5469 66.5632 16.4379C66.3968 16.3117 66.2763 16.1223 66.2591 15.8986C65.9263 15.933 65.7599 15.9559 65.4271 16.0133C65.3583 16.0248 65.278 16.0019 65.2034 15.9846C65.1403 15.9674 65.1173 15.8469 65.169 15.8068Z" fill="#222E55"/>
<path d="M100.305 57.9777C100.254 56.9506 100.059 55.8204 99.9555 54.736C99.8981 54.1679 100.007 51.2303 99.9383 50.8172C99.8408 50.2492 99.3473 47.2026 98.8023 44.9191C96.8171 36.7374 95.6237 35.8136 94.5163 35.1137C93.3057 34.0293 84.6708 32.8645 83.2708 32.5777C82.7143 32.4629 82.1635 32.2908 81.5897 32.2965C81.3832 32.2965 81.2455 32.1703 81.1594 31.9982C81.0963 31.872 81.0676 31.7285 81.0217 31.5908C80.9586 31.3958 80.907 31.1949 80.8324 31.0056C80.7291 30.7187 80.6201 30.4319 80.4939 30.1507C80.2988 29.7204 80.0693 29.2958 79.6332 29.0606C79.2603 28.8655 79.1857 28.5729 79.2431 28.1827C79.289 27.8787 79.3119 27.5746 79.3349 27.2647C79.3865 26.5648 79.4037 25.8648 79.4841 25.1706C79.5644 24.4132 79.725 23.6673 79.7996 22.91C79.8398 22.4797 79.9832 22.1698 80.339 21.9346C80.6832 21.6994 80.9299 21.3723 81.0389 20.9535C81.0791 20.7986 81.1709 20.6551 81.234 20.5002C81.366 20.1789 81.5151 19.8576 81.6127 19.5248C81.7619 19.0142 81.8709 18.4863 81.9971 17.97C82.02 17.8724 82.0258 17.7634 82.0258 17.6659C82.0258 16.8225 82.0774 15.9848 81.7963 15.1586C81.6758 14.8086 81.4865 14.5848 81.1594 14.4816C80.9471 14.4127 80.7234 14.3955 80.4422 14.3439C80.4307 14.1545 80.4078 13.9939 80.4078 13.8275C80.4078 13.1505 80.4365 12.4677 80.4135 11.7907C80.3963 11.2972 80.3562 10.7981 80.2472 10.3219C80.0349 9.42108 79.7882 8.53176 79.4611 7.6654C79.1742 6.89657 78.939 6.11053 78.6693 5.33597C78.3595 4.46387 77.8776 3.71225 77.08 3.21882C76.753 3.01801 76.3915 2.86883 76.0416 2.70818C75.835 2.61638 75.617 2.56475 75.4162 2.46721C75.026 2.27787 74.6129 2.18607 74.1883 2.12296C73.6834 2.05411 73.1843 1.97953 72.6794 1.8992C72.1745 1.81888 71.6753 1.72134 71.1761 1.64675C70.9753 1.61806 70.763 1.60658 70.568 1.63527C69.6213 1.78444 68.6861 1.99674 67.8025 2.38115C67.3377 2.5877 66.8615 2.7713 66.4025 2.98933C66.0583 3.15572 65.6853 3.31635 65.4042 3.5688C64.5665 4.31468 63.9411 5.21548 63.5338 6.27119C63.092 7.42443 62.7879 8.62356 62.4838 9.81697C62.1166 11.2628 61.9388 12.7259 62.042 14.2234C62.0478 14.3209 62.0191 14.4242 62.0133 14.5217C61.8355 14.648 61.6519 14.7512 61.5084 14.8889C61.365 15.0266 61.2158 15.193 61.1584 15.3766C61.0609 15.6864 60.9978 16.0192 60.9748 16.3463C60.9175 17.2126 61.0093 18.0732 61.1298 18.9281C61.1412 19.0257 61.1929 19.1232 61.2273 19.2207C61.4052 19.6797 61.5773 20.1445 61.7666 20.5978C62.042 21.2633 62.3691 21.9059 62.9313 22.3821C63.1035 22.5256 63.1436 22.7321 63.1723 22.9329C63.2871 23.7362 63.5567 24.482 63.8551 25.2279L63.9584 28.1024C63.9239 28.5786 63.7575 29.0147 63.3215 29.3073C63.069 29.4737 62.8682 29.7204 62.6502 29.9384C62.1051 30.4892 61.5142 31.0056 61.1986 31.7457C61.1011 31.9695 60.9003 32.0785 60.6708 32.1244C59.7929 32.3138 52.1046 34.1498 51.5997 34.3219C50.6416 34.6604 48.1572 35.0792 46.5966 36.7431C45.0418 38.407 43.4926 40.9315 42.6148 50.1918C42.5287 51.0697 42.4542 51.9533 42.3796 52.8368C42.3624 53.0204 42.3509 53.2155 42.3968 53.3819C42.4369 53.5253 42.5746 53.6401 42.632 53.7204C42.5861 54.0704 42.5287 54.3745 42.5058 54.6786C42.3337 56.7957 42.4197 58.9186 42.4484 61.0415C42.4656 62.2521 42.2246 62.3726 42.9132 64.7651C42.9132 64.7651 43.7853 68.3453 46.7688 68.9535C47.8761 69.2404 47.681 69.1715 48.1458 69.2232C48.8515 69.3035 49.5687 69.3265 50.2801 69.3781C52.4202 69.5387 54.5603 69.4297 56.6947 69.3092C57.343 69.2748 57.9971 69.206 58.6397 69.1199C59.77 68.9707 60.8945 68.7699 62.0363 68.6953C62.4035 68.6724 62.765 68.6207 63.1264 68.5461C63.7461 68.4257 64.3657 68.288 64.9739 68.133C65.7427 67.938 66.5058 67.7085 67.2689 67.5077C68.7836 67.1118 70.3385 66.8593 71.8417 66.4003C71.9392 66.3716 76.185 65.5798 76.4604 65.6602C77.0112 65.8151 77.562 65.9643 78.1013 66.1479C79.4898 66.6183 87.3674 69.3437 91.7394 69.4699C96.1171 69.5961 97.1613 69.3896 98.1539 68.0126C99.9498 65.5454 100.799 62.1775 100.305 57.9777ZM80.3217 15.3881C80.339 15.0438 80.2873 14.7283 80.557 14.6422C80.557 14.6422 81.6873 14.8086 81.2225 14.8832C80.7578 14.952 80.2931 16.0364 80.2931 16.0364C80.2931 16.0364 80.3217 15.4168 80.3217 15.3881ZM80.2357 19.6625C80.3332 19.3068 80.4422 18.9511 80.5225 18.5896C80.5914 18.2913 80.5971 17.9929 80.5283 17.6774C80.4422 17.2815 80.4881 16.8626 80.6373 16.4725C80.6832 16.3577 80.7578 16.2487 80.9012 16.2602C81.0447 16.2717 81.1135 16.3864 81.1307 16.5069C81.1594 16.7307 81.1652 16.9602 81.1709 17.1266C81.0848 18.0675 80.9758 18.9454 80.6775 19.7888C80.557 20.1215 80.425 20.2535 80.2931 20.1674C80.1095 20.024 80.184 19.8404 80.2357 19.6625ZM62.6789 20.2019C62.6559 20.2707 62.6043 20.3453 62.5469 20.3855C62.5125 20.4084 62.4207 20.3969 62.3863 20.3625C62.2945 20.2879 62.1912 20.2019 62.1396 20.0986C62.0133 19.8633 61.8756 19.6281 61.8068 19.3757C61.5658 18.5208 61.4109 17.6544 61.4396 16.7651C61.4396 16.6848 61.4568 16.5987 61.474 16.5241C61.5084 16.3807 61.7092 16.3233 61.8183 16.4208C61.9617 16.5471 62.0535 16.702 62.0764 16.8971C62.1051 17.1208 62.1281 17.3446 62.1625 17.6372C62.1625 17.6544 62.174 17.7405 62.151 17.8151C61.933 18.5265 62.1797 19.1462 62.4953 19.7601C62.5412 19.8519 62.6043 19.9322 62.6445 20.0297C62.6674 20.0756 62.6961 20.1502 62.6789 20.2019ZM62.5756 16.3692C62.4264 16.3635 61.6117 15.4283 61.6347 15.2848C61.6519 15.1758 62.0478 14.9291 62.1625 14.9291C62.3117 14.9291 62.4666 15.1184 62.5756 15.434C62.6846 15.7553 62.7649 16.3749 62.5756 16.3692ZM63.7116 8.98502C63.8551 7.86047 64.0559 6.75313 64.3944 5.67448C64.5436 5.19827 64.8075 4.78517 65.2321 4.4983C65.5362 4.29175 65.8288 4.06797 66.1329 3.86142C66.8501 3.37947 67.6476 3.08112 68.4738 2.8344C68.8639 2.71965 69.2541 2.61639 69.6442 2.49017C69.9827 2.37542 70.3155 2.36393 70.6655 2.40983C71.027 2.45573 71.3942 2.46721 71.7556 2.50164C72.2835 2.54754 72.8113 2.58195 73.3334 2.65654C73.7867 2.71965 74.1596 2.94916 74.4809 3.29342C75.4621 4.33191 75.8809 5.58268 75.9096 6.98838C75.9153 7.13181 75.9096 7.27525 75.9096 7.41869C75.9096 7.41869 75.9096 7.41869 75.9038 7.41869C75.9038 7.74573 75.9153 8.0785 75.8981 8.40554C75.8809 8.75553 75.7088 8.85879 75.3645 8.76699C74.8137 8.61782 74.2572 8.48585 73.7236 8.30225C72.8228 7.99243 71.8933 7.92359 70.9581 7.90064C70.0631 7.87769 69.168 7.92932 68.2844 8.07276C68.2443 8.07849 68.2041 8.07849 68.164 8.08997C67.2115 8.38832 66.2591 8.66947 65.364 9.12273C64.9452 9.33502 64.5321 9.55877 64.119 9.7768C64.0846 9.79401 64.0444 9.81123 64.0043 9.82271C63.8149 9.89156 63.6657 9.79976 63.6715 9.60468C63.6772 9.39813 63.6887 9.19157 63.7116 8.98502ZM62.874 13.2136C62.7764 13.1103 62.7707 12.9841 62.8223 12.8693C62.8912 12.7202 62.9715 12.5767 63.0748 12.4505C63.8092 11.5669 64.6182 10.7464 65.5763 10.1096C66.6607 9.39239 67.8484 8.9047 69.1393 8.72684C69.5983 8.66373 71.6294 8.55471 73.1499 9.11124C74.6646 9.66778 75.1293 9.96041 76.3801 10.7694C76.5866 10.9014 77.5907 11.7103 77.7858 11.8595C78.1472 12.1349 78.5144 12.3874 78.9677 12.4849C79.0251 12.4964 79.0939 12.5193 79.1341 12.5538C79.1742 12.5939 79.2029 12.6628 79.1972 12.7144C79.1914 12.766 79.1455 12.8349 79.0996 12.8578C79.0078 12.8923 78.8988 12.9324 78.8128 12.9152C78.6177 12.8751 78.4169 12.8177 78.2333 12.7316C78.0497 12.6456 77.8776 12.5308 77.7112 12.4103C75.4908 10.7809 75.0375 10.6833 74.326 10.3276C73.6146 9.97187 72.6736 9.65058 71.6753 9.44403C70.2409 9.16289 68.2672 9.48418 67.4238 9.82843C66.3452 10.2645 65.4558 10.9702 64.6067 11.7505C64.2452 12.0833 63.901 12.4333 63.6371 12.8521C63.5395 13.0013 63.4018 13.1333 63.2584 13.248C63.1436 13.3513 62.9658 13.3168 62.874 13.2136ZM63.0977 17.2585C62.9313 15.7553 64.1018 13.4373 64.1018 13.4373C64.1649 13.3111 65.6624 12.0374 68.5713 11.5382C71.6466 11.0046 73.1671 11.2571 74.5785 11.4063C77.2522 11.6817 78.8759 14.3209 78.8759 14.3209C78.8759 14.3209 79.834 16.7479 79.7078 17.7347C79.3578 20.4715 79.5644 22.3133 78.8988 24.8263C78.6636 25.7099 77.5046 26.5131 75.9325 27.7123C74.8768 28.5155 73.999 29.577 71.6409 29.577C69.6729 29.577 68.8123 29.0893 67.3492 27.7869C65.7771 26.3869 64.2567 25.1189 63.9813 24.3329C63.528 23.0362 63.419 20.1904 63.0977 17.2585ZM75.7834 31.9408C75.835 32.6408 75.5022 33.1801 75.0547 33.6391C74.4408 34.2702 73.1498 35.5325 72.6908 36.7947C72.2777 37.925 71.8876 38.8545 71.2335 38.8545C70.763 38.8545 68.7779 35.8997 68.0836 35.085C67.4869 34.385 66.7697 33.794 66.2132 33.0539C66.1616 32.9908 66.1214 32.9162 66.064 32.8588C65.2952 32.0613 65.0714 31.0974 65.2034 30.0245C65.2378 29.7376 65.255 29.4507 65.2837 29.1639C65.3009 29.0204 65.3124 28.877 65.3583 28.7393C65.4903 28.3377 65.8058 28.2344 66.1788 28.4467C66.5288 28.6532 68.6861 30.6327 71.3712 30.6671C74.0564 30.7015 74.2916 30.1507 75.2096 29.9614C75.267 29.9499 75.3301 29.9384 75.3875 29.9269C75.6285 29.8983 75.7432 29.9728 75.7604 30.2138C75.7948 30.604 75.8006 30.9941 75.8178 31.2638C75.8063 31.5736 75.7719 31.7572 75.7834 31.9408ZM43.768 51.9762C43.8426 51.1959 43.9287 50.4213 44.0205 49.641C44.2098 48.1493 44.3361 43.2609 46.2065 39.6865C46.8835 38.3898 47.8187 37.3226 49.1211 36.6456C51.158 35.5899 60.2118 33.7252 60.2806 33.7481C60.3667 33.7768 60.315 34.2932 60.3036 34.3735C60.229 34.9473 60.1544 35.5153 60.0626 36.0833C59.9765 36.6341 60.0167 38.3037 60.0568 38.5963C60.1027 38.9463 60.2519 39.1529 60.6421 39.084C61.7322 38.6881 61.3535 38.9062 63.901 37.3685C64.1592 37.2824 64.3542 37.4718 64.5321 37.6152C64.7272 37.7644 64.9337 37.8963 65.1231 38.0513C65.496 38.3554 65.9321 38.5275 66.3796 38.6594C66.5689 38.7168 66.7812 38.7053 66.982 38.6996C67.0451 38.6996 67.114 38.6193 67.1656 38.5848C67.1599 38.5389 67.1656 38.516 67.1541 38.4988C66.5632 37.5808 65.8632 36.7603 64.9682 36.1235C64.5034 35.7907 64.0444 35.7677 63.5338 36.003C62.9887 36.2497 62.5125 36.5997 62.0764 37.0013C61.8355 37.2251 61.6002 37.4546 61.3478 37.6611C61.2675 37.73 61.1183 37.7701 61.015 37.7472C60.883 37.7185 60.8544 37.575 60.8658 37.4431C60.9404 36.2095 60.9691 34.976 61.233 33.7653C61.3937 33.0309 61.7494 32.3826 62.1568 31.763C62.4838 31.2581 62.8969 30.8335 63.3616 30.4605C63.4133 30.4204 63.5223 30.3974 63.5797 30.4261C63.637 30.4548 63.6887 30.5523 63.6887 30.6212C63.6887 30.8048 63.6772 30.9941 63.6485 31.172C63.5739 31.7457 63.769 32.222 64.1706 32.6236C64.228 32.681 64.2796 32.7498 64.3485 32.7957C65.0255 33.249 67.3607 35.8079 67.8082 36.6685C68.273 37.5693 69.9655 41.0061 70.2294 41.3675C70.4934 41.729 70.9294 42.4864 71.2393 42.4462C71.5491 42.4003 72.0482 41.511 72.3523 40.8167C72.7023 40.0135 73.6375 37.2939 75.0031 35.6358C76.1334 34.0866 77.803 32.8646 78.3021 32.2679C78.589 31.9293 78.7439 31.5392 78.7956 31.0917C78.8242 30.8736 78.8931 30.6556 78.9677 30.4433C79.0079 30.3228 79.1914 30.2999 79.2775 30.386C79.375 30.4892 79.4668 30.5982 79.5472 30.7187C79.8513 31.1605 80.0349 31.6654 80.2185 32.1703C80.2758 32.3195 80.2701 32.4916 80.2873 32.6523C80.3676 33.3752 80.2529 34.0924 80.2414 34.8096C80.2357 35.5268 80.207 36.0317 80.1668 36.7489C80.1496 37.0529 80.0808 37.5751 80.0176 37.8791C79.9775 38.0742 79.7709 38.1717 79.5816 38.1029C79.4496 38.0513 78.9103 37.7013 78.7497 37.6095C76.9882 36.5997 76.2252 36.5652 75.7948 36.6169C75.5367 36.6513 75.3129 36.68 75.1465 36.8693C75.0375 36.9956 74.9285 37.1849 74.8654 37.3341C74.6645 37.8045 74.481 38.2865 74.2974 38.7627C74.2859 38.7972 74.1195 39.2504 74.2744 39.2848C74.4293 39.3192 74.7563 38.9348 74.8309 38.866C74.9801 38.7226 75.5481 38.2578 75.6801 38.1832C76.2481 37.8791 76.8046 37.9881 77.344 38.2808C78.2562 38.7799 79.1685 39.2906 80.0004 39.9217C80.2586 40.1168 80.5225 40.3061 80.7979 40.4036C80.9988 40.3118 81.0389 40.1799 81.0504 40.0307C81.1135 39.2734 81.1766 38.516 81.234 37.7587C81.2397 37.6783 81.4291 33.9432 81.4406 33.8801C81.475 33.6391 81.6299 33.5531 81.8823 33.6047C82.7028 33.7711 83.5118 33.9948 84.338 34.0752C85.3994 34.1784 87.5854 34.362 90.4771 35.1079C93.3688 35.8538 95.268 37.4546 96.3065 40.7709C97.3449 44.0871 98.1941 48.6599 98.372 49.5894C98.5039 50.2951 98.5498 51.018 98.6301 51.7295C98.6416 51.827 98.6301 51.936 98.6129 52.0336C98.5728 52.2344 98.4293 52.3205 98.1482 52.3434C97.4597 52.4123 87.5682 53.9901 87.3445 53.9499C86.7363 53.8352 85.5486 49.6066 85.5142 49.532C85.4798 49.4689 85.4109 49.3886 85.3478 49.3771C85.2904 49.3714 85.1929 49.4287 85.1585 49.4861C85.1068 49.5722 85.0839 49.6755 85.0667 49.7787C84.9462 50.6336 84.8142 51.4885 84.7167 52.3492C84.6536 52.9459 84.6191 53.5368 83.8388 53.3016C83.8216 53.2958 82.6225 53.0893 82.043 52.9975C81.3602 52.8885 80.6717 52.8024 79.9832 52.7565C78.48 52.6475 73.5629 52.2 72.6048 52.1828C70.9753 52.1483 69.3459 51.9647 67.7164 51.9246C66.6378 51.8959 62.96 51.6492 62.4723 51.5918C61.0724 51.4369 59.6782 51.2533 58.2667 51.3279C57.9225 51.3451 56.6602 48.8493 56.4652 48.3444C56.4193 48.2296 56.3619 48.1149 56.2873 48.0231C56.2471 47.9714 56.1439 47.9313 56.0808 47.9427C56.0176 47.96 55.9316 48.0403 55.9201 48.1034C55.8857 48.2813 55.8685 48.4706 55.8799 48.6542C55.9029 48.9411 56.1898 53.1295 56.1725 53.2499C56.1324 53.468 55.943 53.5655 55.7881 53.554C50.7621 53.5885 45.145 53.0434 44.6574 53.0319C44.2844 53.0262 43.8254 52.9573 43.7738 52.5844C43.7508 52.3893 43.7508 52.1828 43.768 51.9762ZM73.4367 64.0651L64.6583 66.3429C59.3511 67.674 53.7341 67.9265 51.4621 67.6568C49.1843 67.3929 48.9662 67.2896 47.704 67.2151C47.2392 67.1864 46.7745 67.0946 46.3155 67.0142C46.0917 66.9741 45.8967 66.8708 45.7647 66.6642C45.5696 66.3544 43.9574 64.2889 43.6705 61.1103C43.6705 59.5497 43.8197 55.5622 43.8426 55.0859C43.8541 54.822 43.9746 54.6556 44.1984 54.5638C44.3475 54.5064 44.5139 54.4548 44.6688 54.4606C47.2565 54.5983 53.0399 54.5409 53.344 54.5696C53.6021 54.5868 53.8718 54.604 54.1529 54.7589C54.0956 54.8507 54.0611 54.9482 53.9923 54.9941C53.912 55.0458 53.7972 55.0458 53.6997 55.0687C53.0456 55.2236 52.3915 55.3786 51.7432 55.545C51.5711 55.5909 51.3932 55.6597 51.244 55.763C51.0088 55.9236 51.026 56.2277 51.2612 56.3769C51.3588 56.44 51.485 56.4802 51.5997 56.4859C51.7374 56.4916 51.8809 56.4572 52.0243 56.4343C52.8735 56.2966 53.7284 56.2679 54.5833 56.2507C55.1398 56.2392 55.6791 56.3195 56.2184 56.4457C56.8324 56.5949 57.452 56.6982 58.0774 56.7957C58.9208 56.9277 59.7585 57.1228 60.5847 57.3236C61.6748 57.5875 62.7477 57.8916 63.8379 58.167C63.8379 58.167 67.3607 59.3546 69.0475 60.2267C70.7344 61.0988 71.4688 61.6726 72.5474 62.5849C72.9662 62.9406 73.3048 63.3881 73.649 63.7611C73.6605 63.9791 73.5744 64.0537 73.4367 64.0651ZM99.1178 61.1103C99.0949 62.9635 97.6433 65.6659 97.3851 66.0446C97.2474 66.2454 97.1499 66.4749 97.0409 66.6987C96.8056 67.1634 96.4671 67.4273 95.9278 67.3929C95.1762 67.347 94.4245 67.3183 93.6729 67.2896C92.5139 67.2437 85.3306 67.0831 79.0193 64.3864C73.4941 62.0226 67.6246 57.8801 66.7181 57.3236C66.3738 57.1113 66.0525 56.8531 65.7255 56.6121C65.5419 56.4744 65.4272 56.2793 65.3698 56.0498C65.3296 55.8892 65.2952 55.7286 65.2263 55.5794C65.1288 55.3556 64.8419 55.2925 64.6641 55.4531C64.5608 55.5449 64.4862 55.6712 64.4231 55.7974C64.3829 55.8834 64.3887 55.9982 64.3772 56.1015C64.3198 56.5949 64.2452 56.6695 63.8149 56.5031C63.2354 56.2793 58.5708 55.8433 58.3126 55.7802C57.6471 55.6195 57.2569 54.8679 57.5266 54.2311C57.7733 53.6516 58.1348 53.1696 58.7257 52.8942C59.4774 52.5442 60.2519 52.3205 61.0781 52.3147C61.5256 52.309 61.9732 52.2918 62.4207 52.3205C62.9084 52.3491 63.3961 52.4065 63.878 52.4754C64.3428 52.5442 64.8075 52.6131 65.255 52.7393C65.8288 52.9 66.4083 52.9401 66.9992 52.9745C68.5254 53.0606 70.0459 53.1753 71.5663 53.2901C72.8228 53.3819 74.0851 53.4852 75.3416 53.5885C76.621 53.6917 77.8948 53.8007 79.1628 54.0245C79.6619 54.1163 80.1726 54.1622 80.6775 54.2081C81.3488 54.2655 85.3707 55.063 86.1912 55.2122C86.6273 55.2925 91.2747 56.4802 92.0836 56.7498C92.2213 56.7957 92.3533 56.8531 92.491 56.8818C92.7549 56.9392 93.1107 56.7383 93.1451 56.3425C93.1795 55.9351 92.6402 55.654 92.2041 55.4818C92.0377 55.4187 91.814 55.3327 91.8369 55.1204C91.8599 54.845 92.0377 54.7991 92.2213 54.7589C93.5754 54.4663 95.0499 54.3688 96.4269 54.2253C97.1326 54.1507 97.8498 54.1679 98.6473 54.145C98.699 54.4147 98.7851 55.4245 98.8252 55.7113C99.1006 57.5818 99.135 59.4006 99.1178 61.1103Z" fill="#222E55"/>
<path d="M51.4104 35.1308C51.8063 34.9931 52.3284 34.8267 52.8677 34.712C53.5907 34.5628 54.3193 34.3964 55.0021 34.2415C55.289 34.1784 55.5472 34.1038 55.7939 34.0178C55.9373 33.9661 56.0807 33.9374 56.2242 33.8973C55.8857 33.4727 55.6275 33.1285 55.4553 32.8817C54.4226 31.3785 53.8259 29.7835 53.7456 28.0221C53.7284 27.7122 52.3571 24.5509 52.3456 24.5624C52.162 24.723 52.3284 24.5738 51.8751 24.9754C51.1637 25.6008 50.5096 24.7574 49.8957 24.1206C49.3105 23.5066 48.622 22.6919 49.3793 22.0092C50.7276 20.7985 51.1465 20.4256 52.4891 19.2092C52.6038 19.1002 52.7128 18.8937 52.6956 18.7503C52.5636 17.7404 48.513 13.1677 47.3941 13.1218C47.0614 13.1103 46.7917 13.2078 46.5393 13.4373C45.4434 14.4356 42.7697 16.8798 42.7697 16.8798L41.955 15.979L36.7281 20.7871C37.7264 22.1354 43.4066 28.3893 50.0277 35.5898C50.4924 35.4234 50.9514 35.2858 51.4104 35.1308Z" fill="#222E55"/>
<path d="M29.5103 71.006V87.2891C57.6873 83.4679 85.933 83.4679 114.11 87.2948V71.0117C85.9388 67.3684 57.6815 67.3627 29.5103 71.006ZM112.871 85.8719L112.744 85.8547C85.5831 82.5958 58.0373 82.5958 30.8816 85.8489L30.7554 85.8661V71.7117L30.8586 71.7002C58.0372 68.5962 85.6003 68.602 112.779 71.706L112.876 71.7174V85.8719H112.871Z" fill="#222E55"/>
<path d="M30.9792 71.9128V85.6139C44.5197 83.996 58.1578 83.187 71.7958 83.187C85.4454 83.187 99.0892 83.996 112.647 85.6197V71.9185C85.5487 68.826 58.0717 68.826 30.9792 71.9128Z" fill="#222E55"/>
<path d="M34.4448 79.2278L34.9497 83.8752L34.1293 83.967L33.6244 79.3196L34.4448 79.2278Z" fill="white"/>
<path d="M36.0054 79.0615L36.189 80.8516L37.5374 80.7139L37.3537 78.9238L38.1685 78.8435L38.6389 83.4966L37.8242 83.577L37.6291 81.6319L36.2808 81.7696L36.4759 83.7204L35.6554 83.8007L35.185 79.1476L36.0054 79.0615Z" fill="white"/>
<path d="M39.5971 78.7057L40.6643 80.5647L40.7389 80.5589L40.5667 78.6196L41.3528 78.5508L41.5249 80.4901L41.5995 80.4843L42.3339 78.4647L43.2863 78.3787L42.2364 80.5704C42.7298 80.5933 43.0109 81.0351 43.2174 81.6261C43.3838 82.0966 43.5215 82.5957 43.7166 83.0375L42.8904 83.1121C42.7527 82.8138 42.6437 82.4293 42.5404 82.1023C42.3798 81.6146 42.1732 81.2073 41.7257 81.2474L41.5938 81.2589L41.7659 83.2097L40.9798 83.2785L40.8077 81.3277L40.6757 81.3392C40.2339 81.3794 40.1077 81.8154 40.0331 82.3261C39.9872 82.6646 39.9528 83.0605 39.8668 83.3818L39.0406 83.4564C39.161 82.9859 39.2184 82.4695 39.2988 82.0048C39.3963 81.3909 39.5856 80.9204 40.0676 80.7655L38.6447 78.7918L39.5971 78.7057Z" fill="white"/>
<path d="M46.0977 80.8803L44.7609 80.9836L44.8469 82.091L46.3387 81.9762L46.4075 82.8426L44.0896 83.0204L43.7281 78.3616L45.9658 78.1895L46.0346 79.0558L44.6174 79.1648L44.692 80.1345L46.0289 80.0312L46.0977 80.8803Z" fill="white"/>
<path d="M47.4747 78.0745L47.5952 79.8703L48.9493 79.7785L48.8288 77.9827L49.6492 77.9253L49.9705 82.5956L49.1501 82.653L49.0181 80.7022L47.6698 80.794L47.8018 82.7448L46.9756 82.8022L46.66 78.1376L47.4747 78.0745Z" fill="white"/>
<path d="M52.7303 80.4498L51.3934 80.5301L51.4566 81.6375L52.9483 81.5514L52.9999 82.4178L50.682 82.5555L50.4123 77.8851L52.6557 77.7532L52.7073 78.6195L51.2901 78.6999L51.3475 79.6695L52.6844 79.5892L52.7303 80.4498Z" fill="white"/>
<path d="M53.3327 77.7707C53.5852 77.7019 53.9351 77.6445 54.44 77.6215C54.9449 77.5986 55.3122 77.7019 55.5703 77.9428C55.8113 78.1666 55.9892 78.5453 56.0121 79.0043C56.0351 79.4633 55.9375 79.8534 55.731 80.1288C55.4671 80.4845 55.0597 80.6567 54.572 80.6796C54.463 80.6854 54.3655 80.6854 54.2909 80.6739L54.3712 82.3435L53.5565 82.3837L53.3327 77.7707ZM54.2507 79.8534C54.3196 79.8706 54.4056 79.8764 54.5261 79.8706C54.9622 79.8477 55.2203 79.5493 55.1974 79.0731C55.1744 78.6428 54.9335 78.3961 54.5204 78.419C54.354 78.4248 54.2393 78.4535 54.1819 78.4764L54.2507 79.8534Z" fill="white"/>
<path d="M57.3318 77.5238L57.4006 79.3196L58.7546 79.268L58.6858 77.4722L59.5063 77.4377L59.6899 82.1081L58.8694 82.1425L58.7948 80.186L57.4408 80.2377L57.5154 82.1941L56.6892 82.2286L56.5056 77.5525L57.3318 77.5238Z" fill="white"/>
<path d="M61.0783 77.3918L61.2275 82.0622L60.4013 82.0909L60.2521 77.4148L61.0783 77.3918Z" fill="white"/>
<path d="M65.6971 81.8211C65.5479 81.9243 65.2094 82.0391 64.7676 82.0506C63.5111 82.0793 62.8398 81.0752 62.8111 79.7441C62.7767 78.1491 63.643 77.2425 64.7446 77.2196C65.1692 77.2081 65.4963 77.3171 65.6454 77.4089L65.4962 78.2523C65.3299 78.1663 65.0946 78.0859 64.802 78.0917C64.1479 78.1032 63.6545 78.6253 63.6775 79.6638C63.6947 80.599 64.1422 81.1842 64.8766 81.167C65.1233 81.1613 65.3987 81.0867 65.5594 81.0006L65.6971 81.8211Z" fill="white"/>
<path d="M66.9421 77.254L66.9593 78.6425C66.9708 79.3941 66.9651 80.1343 66.9421 80.7597H66.965C67.1486 80.2089 67.3839 79.5892 67.5962 79.0843L68.3593 77.2368L69.2027 77.2253L69.2543 81.9072L68.4969 81.9129L68.4798 80.5301C68.474 79.8072 68.474 79.1704 68.5199 78.5564H68.5027C68.342 79.113 68.1183 79.7326 67.906 80.2318L67.1831 81.9301L66.2421 81.9416L66.1905 77.2598L66.9421 77.254Z" fill="white"/>
<path d="M72.6337 81.7696C72.4845 81.8671 72.1403 81.9761 71.6985 81.9819C70.442 81.9819 69.7879 80.9721 69.7879 79.641C69.7879 78.0459 70.6715 77.1566 71.7731 77.1509C72.1976 77.1509 72.5247 77.2599 72.6681 77.3574L72.5017 78.1951C72.3354 78.1033 72.1001 78.023 71.8075 78.023C71.1534 78.023 70.6485 78.5336 70.6485 79.5721C70.6485 80.5073 71.0846 81.0983 71.819 81.0983C72.0657 81.0983 72.3411 81.0294 72.5075 80.9434L72.6337 81.7696Z" fill="white"/>
<path d="M74.005 78.1204L73.0296 78.1147L73.0353 77.2253L75.8352 77.2483L75.8295 78.1376L74.8369 78.1319L74.8082 81.9244L73.982 81.9186L74.005 78.1204Z" fill="white"/>
<path d="M78.4343 79.9852L77.0975 79.9623L77.0803 81.0753L78.5778 81.0983L78.5663 81.9646L76.2426 81.9245L76.3172 77.2427L78.5663 77.2771L78.5491 78.1435L77.1262 78.1205L77.109 79.0902L78.4515 79.1131L78.4343 79.9852Z" fill="white"/>
<path d="M82.2383 80.2721C82.2383 79.7098 82.2383 79.027 82.2555 78.35H82.2383C82.1121 78.9467 81.9399 79.6065 81.785 80.1516L81.2916 81.9646L80.6547 81.9417L80.3162 80.1286C80.213 79.5721 80.104 78.9008 80.0351 78.2869H80.0236C79.9835 78.918 79.949 79.641 79.9089 80.2204L79.7941 81.9933L79.031 81.9704L79.3868 77.3L80.4826 77.3287L80.7982 78.9008C80.8957 79.4401 80.9933 80.0311 81.0621 80.5819H81.0793C81.1941 80.0426 81.3375 79.4287 81.4695 78.9123L81.8998 77.3689L82.9727 77.3976L83.0473 82.0851L82.244 82.0622L82.2383 80.2721Z" fill="white"/>
<path d="M84.6194 77.4606L84.5677 78.8491C84.539 79.6007 84.4989 80.3408 84.4415 80.9605H84.4644C84.6767 80.4211 84.9406 79.8129 85.1759 79.3195L86.0308 77.5122L86.8742 77.5466L86.6906 82.217L85.9332 82.1883L85.9849 80.8113C86.0136 80.0884 86.048 79.4515 86.1226 78.8433H86.1054C85.916 79.3941 85.6578 80.0023 85.4226 80.4842L84.6194 82.1424L83.6784 82.108L83.862 77.4319L84.6194 77.4606Z" fill="white"/>
<path d="M89.3356 77.6559L89.7774 79.3599C89.8577 79.6984 89.9208 79.9796 89.9839 80.2665H90.0012C90.0585 80.0656 90.1331 79.7616 90.2479 79.3714L90.7298 77.7305L91.5904 77.7764L90.7929 80.0427C90.5347 80.7599 90.2708 81.4541 89.9782 81.873C89.72 82.2402 89.4044 82.4639 88.9799 82.441C88.7905 82.4295 88.6815 82.3951 88.5782 82.3434L88.6815 81.5C88.7446 81.523 88.8307 81.5402 88.9512 81.5459C89.2036 81.5574 89.3872 81.3451 89.4618 81.1328C89.4963 81.0582 89.4848 80.9951 89.4618 80.9148L88.4061 77.6042L89.3356 77.6559Z" fill="white"/>
<path d="M92.7666 77.8567L92.6461 79.796L92.715 79.8017L93.8396 77.9255L94.8379 77.9887L93.4437 79.9796C93.9027 80.1632 94.0863 80.5877 94.201 81.1615C94.2986 81.6664 94.3846 82.1828 94.5281 82.6533L93.6445 82.5959C93.5412 82.2688 93.4953 81.9074 93.4264 81.5517C93.3346 81.0181 93.1912 80.605 92.7494 80.5763L92.5945 80.5648L92.474 82.5156L91.6593 82.4639L91.9462 77.7993L92.7666 77.8567Z" fill="white"/>
<path d="M95.2453 78.0746C95.5034 78.0401 95.8591 78.0229 96.364 78.0573C96.8689 78.0918 97.2247 78.2467 97.4484 78.5106C97.6665 78.7631 97.7927 79.1589 97.7583 79.6179C97.7238 80.0769 97.5804 80.4556 97.3452 80.7023C97.0411 81.0236 96.6165 81.1441 96.1288 81.1097C96.0198 81.104 95.9223 81.0867 95.8477 81.0695L95.7272 82.7392L94.9125 82.6818L95.2453 78.0746ZM95.9108 80.2491C95.9796 80.272 96.0657 80.2892 96.1862 80.295C96.6222 80.3237 96.9091 80.0597 96.9435 79.5835C96.9722 79.1532 96.76 78.8835 96.3526 78.8549C96.1862 78.8434 96.0714 78.8549 96.0083 78.8721L95.9108 80.2491Z" fill="white"/>
<path d="M98.659 81.7467L98.3033 82.9229L97.4542 82.854L98.9345 78.2812L100.013 78.3673L100.765 83.118L99.8811 83.0491L99.6975 81.8328L98.659 81.7467ZM99.6402 81.0353L99.491 80.0255C99.4508 79.7443 99.4107 79.3943 99.382 79.1132H99.3705C99.2959 79.3829 99.2099 79.7328 99.1295 79.9968L98.8369 80.9664L99.6402 81.0353Z" fill="white"/>
<path d="M101.534 78.2237C101.327 78.2065 101.189 77.977 101.207 77.7188C101.229 77.4491 101.413 77.254 101.625 77.277C101.826 77.2942 101.958 77.518 101.935 77.7876C101.912 78.0401 101.74 78.2409 101.534 78.2237ZM102.48 78.5737L102.073 83.2383L101.252 83.1637L101.66 78.5048L102.48 78.5737ZM102.647 78.3212C102.434 78.304 102.302 78.0745 102.32 77.8163C102.343 77.5466 102.515 77.3516 102.733 77.3745C102.939 77.3917 103.077 77.6155 103.048 77.8852C103.031 78.1376 102.859 78.3384 102.647 78.3212Z" fill="white"/>
<path d="M104.047 78.7173L103.874 80.5074L105.223 80.6336L105.395 78.8435L106.21 78.9181L105.768 83.5712L104.953 83.4966L105.137 81.5459L103.788 81.4197L103.605 83.3704L102.784 83.2901L103.226 78.637L104.047 78.7173Z" fill="white"/>
<path d="M107.73 79.0842L107.587 80.4612C107.506 81.2071 107.42 81.9415 107.323 82.5612H107.346C107.592 82.0333 107.896 81.4481 108.166 80.9719L109.136 79.2277L109.973 79.3137L109.486 83.9611L108.734 83.8808L108.878 82.5095C108.952 81.7923 109.032 81.1612 109.141 80.5588H109.124C108.901 81.0924 108.602 81.6833 108.338 82.1481L107.426 83.7488L106.491 83.6513L106.978 79.0039L107.73 79.0842Z" fill="white"/>
<path d="M50.831 71.5684L50.8597 72.0216L49.4139 72.1134L49.4827 73.2437C49.586 73.2208 49.7868 73.1921 49.8958 73.1863C50.2114 73.1634 50.5327 73.2322 50.7794 73.4158C51.0433 73.6052 51.2384 73.9265 51.2728 74.4199C51.2958 74.8158 51.2097 75.1199 51.049 75.3494C50.7966 75.7051 50.3548 75.8658 49.8958 75.8944C49.5917 75.9117 49.3622 75.9059 49.2188 75.8887L48.9548 71.6889L50.831 71.5684ZM49.6261 75.4527C49.7294 75.4699 49.8441 75.4699 49.9933 75.4584C50.263 75.4412 50.5269 75.315 50.6818 75.0912C50.7851 74.9363 50.8425 74.724 50.8253 74.4601C50.8023 74.133 50.6818 73.9207 50.5097 73.7888C50.3261 73.6511 50.0966 73.5994 49.8614 73.6167C49.7638 73.6224 49.6261 73.6453 49.5171 73.6626L49.6261 75.4527Z" fill="white"/>
<path d="M53.9293 71.3962L54.1588 75.6076L53.7227 75.6305L53.5162 71.8725L52.4088 71.9356L52.4777 73.2093C52.5293 74.1216 52.5523 75.1428 52.1047 75.5674C51.9843 75.6764 51.7949 75.7854 51.6056 75.7969L51.5253 75.3609C51.6572 75.3207 51.7892 75.2232 51.8637 75.1142C52.1162 74.7699 52.0933 73.9494 52.0588 73.2724L51.9613 71.4995L53.9293 71.3962Z" fill="white"/>
<path d="M55.3981 74.2191L55.1112 75.5617L54.6637 75.5846L55.6104 71.3159L56.1325 71.293L57.4751 75.4584L57.0103 75.4814L56.5915 74.1732L55.3981 74.2191ZM56.4767 73.7429L56.0923 72.5437C56.0062 72.2741 55.9431 72.0216 55.88 71.7807H55.8686C55.8284 72.0331 55.7882 72.2913 55.7366 72.5495L55.4612 73.783L56.4767 73.7429Z" fill="white"/>
<path d="M59.5864 71.1499L59.6036 71.6089L58.2553 71.6605L58.3988 75.4243L57.9685 75.4416L57.8078 71.2245L59.5864 71.1499Z" fill="white"/>
<path d="M62.7421 73.1233C62.788 74.5749 62.111 75.3667 61.2504 75.3896C60.361 75.4183 59.7127 74.5692 59.6725 73.2954C59.6324 71.9586 60.2692 71.0578 61.1643 71.0349C62.0823 71.0062 62.7019 71.8725 62.7421 73.1233ZM60.1373 73.2725C60.166 74.1733 60.579 74.9708 61.2618 74.9479C61.9503 74.9249 62.3118 74.1216 62.2831 73.1635C62.2602 72.3258 61.8815 71.4594 61.1585 71.4824C60.4414 71.4996 60.1086 72.343 60.1373 73.2725Z" fill="white"/>
<path d="M65.4732 70.9949L65.5535 74.7702L65.8461 74.7759V76.2217L65.5076 76.2275L65.4559 75.2119L63.3388 75.2578L63.333 76.2734L62.9945 76.2791L62.9371 74.8333L63.1896 74.8161C63.3101 74.5234 63.4249 74.2136 63.4994 73.8808C63.6027 73.3874 63.6371 72.8251 63.6199 72.1022L63.597 71.0293L65.4732 70.9949ZM64.0273 72.2743C64.0445 72.9514 64.0044 73.5194 63.8953 74.0013C63.8322 74.2997 63.7347 74.5808 63.6371 74.8103L65.1232 74.7816L65.0543 71.4654L64.0158 71.4883L64.0273 72.2743Z" fill="white"/>
<path d="M66.7755 70.9775L66.8387 75.1946L66.4084 75.2003L66.3452 70.9833L66.7755 70.9775Z" fill="white"/>
<path d="M67.9747 70.9545L67.9919 72.7331C67.9977 73.3987 67.9919 73.9552 67.9689 74.5175L67.9804 74.5232C68.1468 74.0814 68.3534 73.6224 68.5886 73.1175L69.6558 70.9315L70.0861 70.9258L70.1205 75.1486L69.7132 75.1544L69.6959 73.3528C69.6902 72.67 69.6902 72.1709 69.7189 71.6373L69.7017 71.6315C69.541 72.0963 69.3173 72.5897 69.0935 73.0602L68.0608 75.1716L67.596 75.1773L67.5616 70.9545H67.9747ZM68.5198 70.0594C68.5427 70.2603 68.5943 70.4553 68.8296 70.4496C69.0591 70.4496 69.1107 70.2603 69.1279 70.0537H69.4607C69.4378 70.4725 69.2427 70.7307 68.8181 70.7365C68.4107 70.7422 68.2157 70.4783 68.187 70.0652L68.5198 70.0594Z" fill="white"/>
<path d="M71.3254 70.9375V72.7046H72.9491V70.9375H73.3852L73.3794 75.1603H72.9434V73.1809H71.3197V75.1603H70.8894L70.8951 70.9375H71.3254Z" fill="white"/>
<path d="M74.5843 70.9431L74.5671 72.7217C74.5614 73.3873 74.5442 73.9438 74.5097 74.5061L74.5212 74.5119C74.6933 74.0758 74.9056 73.6168 75.1581 73.1176L76.2654 70.9546L76.6957 70.9603L76.6556 75.1831L76.2482 75.1774L76.2654 73.3758C76.2712 72.6931 76.2826 72.1882 76.3228 71.6603L76.3056 71.6546C76.1392 72.1193 75.9039 72.6013 75.6687 73.0717L74.5958 75.1602L74.131 75.1544L74.1712 70.9316L74.5843 70.9431Z" fill="white"/>
<path d="M77.8891 70.9949L77.8547 72.7735C77.8432 73.4391 77.8203 73.9956 77.7801 74.5579L77.7916 74.5636C77.9694 74.1276 78.1875 73.6743 78.4399 73.1809L79.5702 71.0293L80.0062 71.0351L79.9259 75.2521L79.5186 75.2464L79.553 73.4506C79.5645 72.7678 79.5817 72.2686 79.6276 71.735L79.6104 71.7293C79.4383 72.1883 79.1973 72.676 78.962 73.1407L77.8719 75.2177L77.4072 75.2062L77.4875 70.9892L77.8891 70.9949ZM78.4571 70.1171C78.4744 70.3179 78.5202 70.5129 78.7555 70.5187C78.985 70.5244 79.0424 70.3351 79.0653 70.1285L79.3981 70.1343C79.3636 70.5531 79.1628 70.8056 78.7383 70.7998C78.3309 70.7941 78.1416 70.5244 78.1244 70.1113L78.4571 70.1171Z" fill="white"/>
<path d="M83.5291 70.9661L83.5177 71.339C84.2234 71.4021 84.9119 71.9644 84.866 73.2898C84.8201 74.6151 84.0971 75.1028 83.3799 75.1258L83.3685 75.5216L82.9496 75.5102L82.9611 75.1143C82.2611 75.034 81.5669 74.5405 81.6071 73.2094C81.653 71.8267 82.4447 71.3562 83.0988 71.3275L83.1103 70.9546L83.5291 70.9661ZM83.0816 71.7234C82.6398 71.7406 82.0947 72.1021 82.0603 73.198C82.0259 74.2078 82.4906 74.6495 82.984 74.7241L83.0816 71.7234ZM83.3972 74.7413C83.8791 74.7069 84.384 74.3168 84.4184 73.2725C84.4528 72.1882 83.9824 71.7865 83.5004 71.7406L83.3972 74.7413Z" fill="white"/>
<path d="M88.3142 73.3987C88.2511 74.8503 87.5167 75.5904 86.6618 75.5502C85.7724 75.5101 85.1872 74.6207 85.2446 73.3413C85.302 72.0044 86.0019 71.1553 86.9027 71.1955C87.815 71.2356 88.3715 72.1479 88.3142 73.3987ZM85.7093 73.3528C85.6692 74.2535 86.0249 75.0797 86.7077 75.1084C87.3962 75.1371 87.8207 74.3626 87.8609 73.4044C87.8953 72.5667 87.5855 71.6717 86.8626 71.643C86.1396 71.6086 85.7495 72.4233 85.7093 73.3528Z" fill="white"/>
<path d="M89.4445 71.3794L89.3527 73.1465L90.9764 73.2326L91.0682 71.4655L91.5042 71.4884L91.2805 75.7055L90.8444 75.6825L90.9477 73.7031L89.324 73.617L89.2207 75.5965L88.7904 75.5735L89.0141 71.3564L89.4445 71.3794Z" fill="white"/>
<path d="M94.5795 71.6834L94.3443 75.4529L94.6369 75.4816L94.5164 76.9217L94.1779 76.8988L94.2123 75.8832L92.1009 75.7513L92.0092 76.7611L91.6706 76.7381L91.7337 75.2923L91.9862 75.298C92.1296 75.0169 92.2731 74.7185 92.3706 74.3915C92.5141 73.9095 92.5944 73.353 92.6403 72.6243L92.7091 71.5571L94.5795 71.6834ZM93.0304 72.8366C92.9902 73.5136 92.9042 74.0759 92.755 74.5464C92.669 74.8333 92.5427 75.1087 92.4337 75.3324L93.914 75.4242L94.1206 72.1137L93.0821 72.0506L93.0304 72.8366Z" fill="white"/>
</svg>
