<svg width="137" height="87" viewBox="0 0 137 87" fill="none" xmlns="http://www.w3.org/2000/svg">
<path d="M88.7406 26.7317L84.031 32.8681C84.031 32.8681 125.948 33.1001 127.311 33.1001C133.679 33.1001 136.574 27.0275 136.574 27.0275L88.7406 26.7317Z" fill="#0A8BCF"/>
<path d="M26.3728 70.5744C26.3728 70.5744 52.3512 67.9644 64.4037 67.9644C76.4561 67.9644 110.479 70.5744 110.479 70.5744V85.7705C110.479 85.7705 85.4984 83.2069 72.1641 83.2069C58.8298 83.2069 26.1002 85.7705 26.1002 85.7705L26.3728 70.5744Z" fill="white"/>
<path d="M77.2682 13.9194C77.2856 13.5714 77.2333 13.2524 77.5059 13.1654C77.5059 13.1654 78.6486 13.3336 78.1788 13.409C77.709 13.4786 77.2392 14.5748 77.2392 14.5748C77.2392 14.5748 77.2682 13.9484 77.2682 13.9194Z" fill="white"/>
<path d="M77.1812 18.2406C77.2798 17.881 77.39 17.5214 77.4712 17.1559C77.5408 16.8543 77.5466 16.5527 77.477 16.2337C77.39 15.8335 77.4364 15.4101 77.5872 15.0157C77.6336 14.8997 77.709 14.7895 77.854 14.8011C77.999 14.8127 78.0686 14.9287 78.086 15.0505C78.115 15.2767 78.1208 15.5087 78.1266 15.6769C78.0396 16.6281 77.9294 17.5156 77.6278 18.3682C77.506 18.7046 77.3726 18.838 77.2392 18.751C77.0536 18.606 77.129 18.4204 77.1812 18.2406Z" fill="white"/>
<path d="M59.433 18.7858C59.4098 18.8554 59.3576 18.9308 59.2996 18.9714C59.2648 18.9946 59.172 18.983 59.1372 18.9482C59.0444 18.8728 58.94 18.7858 58.8878 18.6814C58.7602 18.4436 58.621 18.2058 58.5514 17.9506C58.3078 17.0864 58.1512 16.2105 58.1802 15.3115C58.1802 15.2303 58.1976 15.1433 58.215 15.0679C58.2498 14.9229 58.4528 14.865 58.563 14.9636C58.708 15.0912 58.8008 15.2477 58.824 15.4449C58.853 15.6711 58.8762 15.8974 58.911 16.1932C58.911 16.2106 58.9226 16.2976 58.8994 16.373C58.679 17.0922 58.9284 17.7186 59.2474 18.3392C59.2938 18.432 59.3576 18.5132 59.3982 18.6118C59.4214 18.6582 59.4504 18.7336 59.433 18.7858Z" fill="white"/>
<path d="M59.3286 14.9112C59.1778 14.9054 58.3542 13.96 58.3774 13.815C58.3948 13.7048 58.795 13.4554 58.911 13.4554C59.0618 13.4554 59.2184 13.6468 59.3286 13.9659C59.4388 14.2907 59.52 14.917 59.3286 14.9112Z" fill="white"/>
<path d="M60.477 7.44667C60.622 6.30986 60.825 5.19046 61.1672 4.10005C61.318 3.61865 61.5849 3.20105 62.0141 2.91105C62.3215 2.70225 62.6173 2.47604 62.9247 2.26724C63.6497 1.78003 64.4559 1.47843 65.2911 1.22902C65.6855 1.11302 66.0799 1.00864 66.4743 0.881037C66.8165 0.765036 67.1529 0.753427 67.5067 0.799828C67.8721 0.846228 68.2433 0.85783 68.6087 0.89263C69.1423 0.939031 69.6759 0.973825 70.2037 1.04923C70.6619 1.11303 71.0389 1.34504 71.3637 1.69304C72.3555 2.74285 72.7789 4.00726 72.8079 5.42827C72.8137 5.57327 72.8079 5.71827 72.8079 5.86327C72.8079 5.86327 72.8079 5.86327 72.8021 5.86327C72.8021 6.19387 72.8137 6.53028 72.7963 6.86088C72.7789 7.21468 72.6049 7.31907 72.2569 7.22627C71.7001 7.07546 71.1375 6.94206 70.5981 6.75646C69.6875 6.44326 68.7479 6.37367 67.8025 6.35047C66.8977 6.32727 65.9929 6.37946 65.0997 6.52447C65.0591 6.53027 65.0185 6.53026 64.9779 6.54186C64.0151 6.84347 63.0523 7.12768 62.1475 7.58588C61.724 7.80048 61.3064 8.02668 60.8888 8.24708C60.854 8.26448 60.8134 8.28189 60.7728 8.29349C60.5814 8.36309 60.4306 8.27029 60.4364 8.07308C60.4422 7.86428 60.4538 7.65547 60.477 7.44667Z" fill="white"/>
<path d="M59.6302 11.7214C59.5316 11.617 59.5258 11.4894 59.578 11.3734C59.6476 11.2226 59.7288 11.0776 59.8332 10.95C60.5756 10.0568 61.3934 9.22739 62.362 8.58358C63.4583 7.85858 64.6589 7.36557 65.9639 7.18577C66.4279 7.12197 68.4811 7.01176 70.0181 7.57437C71.5493 8.13697 72.0191 8.43278 73.2835 9.25059C73.4923 9.38399 74.5073 10.2018 74.7045 10.3526C75.0699 10.631 75.4411 10.8862 75.8993 10.9848C75.9573 10.9964 76.0269 11.0196 76.0675 11.0544C76.1081 11.095 76.1371 11.1646 76.1313 11.2168C76.1255 11.269 76.0791 11.3386 76.0327 11.3618C75.9399 11.3966 75.8297 11.4372 75.7427 11.4198C75.5455 11.3792 75.3425 11.3212 75.1569 11.2342C74.9713 11.1472 74.7973 11.0312 74.6291 10.9094C72.3845 9.26218 71.9263 9.16357 71.2071 8.80397C70.4879 8.44437 69.5367 8.11958 68.5275 7.91078C67.0775 7.62658 65.0823 7.95137 64.2297 8.29937C63.1392 8.74017 62.2402 9.45358 61.3818 10.2424C61.0164 10.5788 60.6684 10.9326 60.4016 11.356C60.303 11.5068 60.1638 11.6402 60.0188 11.7562C59.9028 11.8606 59.723 11.8258 59.6302 11.7214Z" fill="white"/>
<path d="M59.8564 15.8103C59.6882 14.2907 60.8714 11.9475 60.8714 11.9475C60.9352 11.8199 62.449 10.5323 65.3897 10.0277C68.4985 9.48827 70.0355 9.74346 71.4623 9.89426C74.1651 10.1727 75.8065 12.8407 75.8065 12.8407C75.8065 12.8407 76.7751 15.2941 76.6475 16.2917C76.2937 19.0583 76.5025 20.9201 75.8297 23.4606C75.5919 24.3538 74.4203 25.1658 72.8311 26.378C71.7639 27.19 70.8765 28.263 68.4927 28.263C66.5033 28.263 65.6333 27.77 64.1543 26.4534C62.5651 25.0382 61.028 23.7564 60.7496 22.9618C60.2914 21.6509 60.1812 18.7741 59.8564 15.8103Z" fill="white"/>
<path d="M72.6803 30.6528C72.7325 31.3604 72.3961 31.9056 71.9437 32.3696C71.3231 33.0076 70.0181 34.2836 69.5541 35.5596C69.1365 36.7022 68.7421 37.6418 68.0809 37.6418C67.6053 37.6418 65.5985 34.6548 64.8967 33.8312C64.2935 33.1236 63.5685 32.5262 63.0058 31.778C62.9536 31.7142 62.913 31.6388 62.855 31.5808C62.0778 30.7746 61.8516 29.8002 61.985 28.7156C62.0198 28.4256 62.0372 28.1356 62.0662 27.8455C62.0836 27.7005 62.0952 27.5556 62.1416 27.4164C62.275 27.0103 62.594 26.9059 62.971 27.1205C63.3249 27.3293 65.5057 29.3304 68.2201 29.3652C70.9345 29.4 71.1723 28.8431 72.1003 28.6517C72.1583 28.6401 72.2221 28.6285 72.2801 28.6169C72.5237 28.5879 72.6397 28.6633 72.6571 28.9069C72.6919 29.3014 72.6977 29.6958 72.7151 29.9684C72.7035 30.2816 72.6687 30.4672 72.6803 30.6528Z" fill="white"/>
<path d="M40.3161 50.9064C40.3915 50.1176 40.4785 49.3346 40.5713 48.5457C40.7627 47.0377 40.8903 42.0961 42.7811 38.4827C43.4655 37.1719 44.4109 36.0931 45.7275 35.4087C47.7865 34.3415 56.939 32.4564 57.0086 32.4796C57.0956 32.5086 57.0434 33.0306 57.0318 33.1118C56.9564 33.6918 56.881 34.266 56.7882 34.8403C56.7012 35.3971 56.7418 37.0849 56.7824 37.3807C56.8288 37.7345 56.9796 37.9433 57.374 37.8737C58.476 37.4735 58.0932 37.6939 60.6684 36.1395C60.9294 36.0525 61.1266 36.2439 61.3064 36.3889C61.5036 36.5397 61.7124 36.6731 61.9038 36.8297C62.2808 37.1371 62.7216 37.3111 63.174 37.4445C63.3654 37.5025 63.5801 37.4909 63.7831 37.4851C63.8469 37.4851 63.9165 37.4039 63.9687 37.3691C63.9629 37.3227 63.9686 37.2995 63.957 37.2821C63.3596 36.3541 62.652 35.5247 61.7472 34.8809C61.2774 34.5445 60.8134 34.5212 60.2972 34.759C59.7462 35.0084 59.2648 35.3623 58.824 35.7683C58.5804 35.9945 58.3426 36.2265 58.0874 36.4353C58.0062 36.5049 57.8554 36.5455 57.751 36.5223C57.6176 36.4933 57.5886 36.3483 57.6002 36.2149C57.6756 34.9678 57.7046 33.7208 57.9714 32.497C58.1338 31.7546 58.4934 31.0992 58.9052 30.4728C59.2358 29.9624 59.6534 29.5332 60.1232 29.1562C60.1754 29.1156 60.2856 29.0924 60.3436 29.1214C60.4016 29.1504 60.4538 29.249 60.4538 29.3186C60.4538 29.5042 60.4422 29.6956 60.4132 29.8754C60.3378 30.4554 60.535 30.9368 60.941 31.3428C60.999 31.4008 61.0512 31.4704 61.1208 31.5168C61.8052 31.975 64.1658 34.5618 64.6183 35.4318C65.0881 36.3425 66.7991 39.8167 67.0659 40.1821C67.3327 40.5475 67.7735 41.3131 68.0867 41.2725C68.3999 41.2261 68.9045 40.3271 69.2119 39.6253C69.5657 38.8133 70.5111 36.0641 71.8915 34.3878C73.0341 32.8218 74.7219 31.5864 75.2265 30.9832C75.5165 30.641 75.6731 30.2466 75.7253 29.7942C75.7543 29.5738 75.8239 29.3534 75.8993 29.1388C75.9399 29.017 76.1255 28.9938 76.2125 29.0808C76.3111 29.1852 76.4039 29.2954 76.4851 29.4172C76.7925 29.8638 76.9781 30.3742 77.1637 30.8846C77.2217 31.0354 77.2159 31.2094 77.2333 31.3718C77.3145 32.1026 77.1985 32.8276 77.1869 33.5526C77.1811 34.2776 77.1521 34.7881 77.1115 35.5131C77.0941 35.8205 77.0245 36.3483 76.9607 36.6557C76.9201 36.8529 76.7113 36.9515 76.5199 36.8819C76.3865 36.8297 75.8413 36.4759 75.6789 36.3831C73.8983 35.3623 73.1269 35.3274 72.6919 35.3796C72.4309 35.4144 72.2047 35.4435 72.0365 35.6349C71.9263 35.7625 71.8161 35.9539 71.7523 36.1047C71.5493 36.5803 71.3637 37.0675 71.1781 37.5489C71.1665 37.5837 70.9983 38.0419 71.1549 38.0767C71.3115 38.1115 71.6421 37.7229 71.7175 37.6533C71.8683 37.5083 72.4425 37.0385 72.5759 36.9631C73.1501 36.6557 73.7127 36.7659 74.2579 37.0617C75.1801 37.5663 76.1023 38.0825 76.9433 38.7205C77.2043 38.9177 77.4711 39.1091 77.7495 39.2077C77.9525 39.1149 77.9931 38.9815 78.0047 38.8307C78.0685 38.0651 78.1324 37.2995 78.1904 36.5339C78.1962 36.4527 78.3876 32.6768 78.3992 32.613C78.434 32.3694 78.5905 32.2824 78.8458 32.3346C79.6752 32.5028 80.493 32.729 81.3282 32.8102C82.4012 32.9146 84.611 33.1002 87.5342 33.8542C90.4574 34.6082 92.3773 36.2265 93.4271 39.5789C94.4769 42.9313 95.3353 47.5539 95.5151 48.4936C95.6485 49.207 95.6949 49.9377 95.7761 50.657C95.7877 50.7556 95.7761 50.8658 95.7587 50.9644C95.7181 51.1674 95.5731 51.2544 95.2889 51.2776C94.5929 51.3472 84.5936 52.9422 84.3674 52.9016C83.7526 52.7856 82.552 48.5109 82.5172 48.4355C82.4824 48.3717 82.4128 48.2906 82.349 48.279C82.291 48.2732 82.1924 48.3311 82.1576 48.3891C82.1054 48.4761 82.0822 48.5805 82.0648 48.6849C81.943 49.5492 81.8096 50.4134 81.711 51.2834C81.6472 51.8866 81.6124 52.484 80.8236 52.2462C80.8062 52.2404 79.594 52.0316 79.0082 51.9388C78.318 51.8286 77.6219 51.7416 76.9259 51.6952C75.4063 51.585 70.4357 51.1326 69.4671 51.1152C67.8199 51.0804 66.1727 50.8948 64.5255 50.8542C63.4351 50.8252 59.7172 50.5758 59.2242 50.5178C57.809 50.3612 56.3996 50.1756 54.9728 50.251C54.6248 50.2684 53.3488 47.7453 53.1516 47.2349C53.1052 47.1189 53.0472 47.0029 52.9718 46.9101C52.9312 46.8579 52.8268 46.8173 52.763 46.8289C52.6992 46.8463 52.6122 46.9275 52.6006 46.9913C52.5658 47.1711 52.5484 47.3625 52.56 47.5481C52.5832 47.8381 52.8732 52.0722 52.8558 52.194C52.8152 52.4144 52.6238 52.513 52.4672 52.5014C47.3863 52.5362 41.7081 51.9852 41.2151 51.9736C40.8381 51.9678 40.3741 51.8982 40.3219 51.5212C40.2987 51.324 40.2987 51.1152 40.3161 50.9064Z" fill="white"/>
<path d="M70.3081 63.1269L61.4341 65.4296C56.069 66.7752 50.3908 67.0304 48.094 66.7578C45.7913 66.491 45.5709 66.3866 44.2949 66.3112C43.8251 66.2822 43.3553 66.1894 42.8913 66.1082C42.6651 66.0676 42.4679 65.9632 42.3345 65.7544C42.1373 65.4412 40.5075 63.3531 40.2175 60.1399C40.2175 58.5623 40.3683 54.5313 40.3915 54.0499C40.4031 53.7831 40.5249 53.6149 40.7511 53.5221C40.9019 53.4641 41.0701 53.4119 41.2267 53.4177C43.8425 53.5569 49.689 53.4989 49.9964 53.5279C50.2574 53.5453 50.53 53.5627 50.8142 53.7193C50.7562 53.8121 50.7214 53.9107 50.6518 53.9571C50.5706 54.0093 50.4546 54.0093 50.356 54.0325C49.6948 54.1891 49.0336 54.3457 48.3782 54.5139C48.2042 54.5603 48.0244 54.6299 47.8736 54.7343C47.6358 54.8967 47.6531 55.2041 47.891 55.3549C47.9896 55.4187 48.1172 55.4593 48.2332 55.4651C48.3724 55.4709 48.5174 55.4361 48.6624 55.4129C49.5208 55.2737 50.385 55.2447 51.2492 55.2273C51.8118 55.2157 52.357 55.2969 52.9022 55.4245C53.5228 55.5753 54.1492 55.6797 54.7814 55.7783C55.634 55.9117 56.4808 56.1089 57.316 56.3119C58.418 56.5787 59.5026 56.8861 60.6046 57.1645C60.6046 57.1645 64.1659 58.3651 65.8711 59.2467C67.5763 60.1283 68.3187 60.7083 69.4091 61.6305C69.8325 61.9901 70.1747 62.4425 70.5227 62.8195C70.5343 63.0399 70.4473 63.1153 70.3081 63.1269Z" fill="white"/>
<path d="M96.2691 60.1401C96.2459 62.0135 94.7785 64.7453 94.5174 65.1281C94.3783 65.3311 94.2797 65.5631 94.1695 65.7893C93.9317 66.2591 93.5894 66.526 93.0442 66.4912C92.2844 66.4448 91.5246 66.4157 90.7648 66.3867C89.5932 66.3403 82.3316 66.1779 75.9515 63.4519C70.3661 61.0623 64.4326 56.8747 63.5162 56.3121C63.1682 56.0975 62.8434 55.8365 62.5128 55.5929C62.3272 55.4537 62.2112 55.2565 62.1532 55.0245C62.1126 54.8621 62.0778 54.6997 62.0082 54.5489C61.9096 54.3227 61.6196 54.2589 61.4398 54.4213C61.3354 54.5141 61.26 54.6417 61.1962 54.7693C61.1556 54.8563 61.1614 54.9723 61.1498 55.0767C61.0918 55.5755 61.0164 55.6509 60.5814 55.4827C59.9956 55.2565 55.2802 54.8157 55.0192 54.7519C54.3464 54.5895 53.952 53.8297 54.2246 53.1859C54.474 52.6001 54.8394 52.1128 55.4368 51.8344C56.1966 51.4806 56.9796 51.2545 57.8148 51.2487C58.2672 51.2429 58.7196 51.2254 59.172 51.2544C59.665 51.2834 60.158 51.3415 60.6452 51.4111C61.115 51.4807 61.5848 51.5502 62.0372 51.6778C62.6172 51.8402 63.203 51.8809 63.8004 51.9157C65.3433 52.0027 66.8803 52.1186 68.4173 52.2346C69.6875 52.3274 70.9635 52.4319 72.2337 52.5363C73.5271 52.6407 74.8147 52.7509 76.0965 52.9771C76.6011 53.0699 77.1173 53.1163 77.6277 53.1627C78.3063 53.2207 82.3722 54.0269 83.2016 54.1777C83.6424 54.2589 88.3404 55.4595 89.1582 55.7321C89.2974 55.7785 89.4308 55.8365 89.57 55.8655C89.8368 55.9235 90.1964 55.7205 90.2312 55.3203C90.266 54.9085 89.7208 54.6243 89.28 54.4503C89.1118 54.3865 88.8856 54.2995 88.9088 54.0849C88.932 53.8065 89.1118 53.7601 89.2974 53.7195C90.6662 53.4237 92.1568 53.3251 93.5488 53.1801C94.2622 53.1047 94.9873 53.1221 95.7935 53.0989C95.8457 53.3715 95.9327 54.3923 95.9733 54.6823C96.2517 56.5731 96.2865 58.4117 96.2691 60.1401Z" fill="white"/>
<path d="M51.6262 19.0759C51.5914 19.0295 51.5566 18.9831 51.516 18.9367C51.4464 18.8613 51.3768 18.7801 51.3072 18.7047C51.2028 18.5887 51.0984 18.4727 50.9882 18.3625C50.9534 18.3277 50.9186 18.2871 50.8838 18.2523C50.443 17.7883 49.8978 17.7419 49.4164 18.1653C48.4651 19.0005 47.5139 19.8473 46.5859 20.7115C46.5685 20.7289 46.5453 20.7579 46.5279 20.7927C46.1219 21.2103 46.1277 21.7149 46.5337 22.1731C46.5453 22.1847 46.5511 22.1905 46.5627 22.2021C46.6671 22.3297 46.7773 22.4515 46.8933 22.5675C46.9803 22.6661 47.0673 22.7589 47.1601 22.8575C47.5661 23.2983 48.1055 23.3679 48.558 22.9851C49.5672 22.1209 50.5648 21.2451 51.5508 20.3519C51.9394 20.0039 51.951 19.4819 51.6262 19.0759Z" fill="#222E55"/>
<path d="M43.1871 11.0484C42.1489 9.9638 40.6235 8.52538 39.5447 7.40017C39.4519 7.30157 39.3533 7.20877 39.2605 7.11017C37.8511 5.60796 35.7804 5.32955 33.9708 6.39676C33.0544 6.93616 32.4106 7.72497 31.7842 8.53117C30.833 9.74918 29.5976 11.3906 28.9886 12.7942C28.89 13.0262 28.8204 13.264 28.7334 13.5018C28.5768 13.9542 28.8842 14.511 29.0466 14.6792C29.2032 14.8474 30.0268 15.7232 30.0268 15.7232C30.0268 15.7232 31.645 14.3718 32.428 13.7106C33.2748 12.9972 34.5276 11.9126 35.3744 11.1992C35.4904 11.1064 35.6122 11.0136 35.7399 10.944C36.1343 10.7236 36.3953 10.7584 36.6911 11.089C37.5147 11.9996 39.5911 14.2036 39.5911 14.2036C39.5911 14.2036 41.9923 12.075 43.1871 11.0484Z" fill="#222E55"/>
<path d="M50.9302 26.3374C51.922 27.3814 52.212 27.654 52.9312 28.437C53.1748 28.7096 53.4822 28.814 53.8302 28.7328C54.532 28.5762 54.9844 28.1296 55.2164 27.4684C55.344 27.103 55.2454 26.7666 54.9786 26.4766C53.5286 24.8874 50.6692 21.7322 50.6692 21.7322L49.4859 22.8168C49.4917 22.8168 50.9128 26.0242 50.9302 26.3374Z" fill="#222E55"/>
<path d="M102.156 12.4173C100.66 13.5019 97.1971 16.2859 96.9419 16.4773C96.5997 16.7325 96.4953 17.0979 96.7157 17.4227C97.7365 18.8032 99.3489 20.8216 99.7897 21.4248C99.7897 21.4248 103.409 15.2651 103.363 12.9915C103.247 12.2955 102.614 12.0867 102.156 12.4173Z" fill="#222E55"/>
<path d="M99.9753 22.7761L92.7079 13.2698C92.7079 13.09 92.8065 12.945 93.0095 12.8C93.6765 12.3244 99.2851 8.04982 100.329 7.24361C100.045 6.188 98.5311 6.18219 97.2493 6.34459C94.8249 6.64619 92.3947 6.94779 90.005 7.4466C88.0678 7.8526 87.0586 9.17501 86.8614 11.1644C86.6294 13.5598 86.467 16.1525 86.148 18.5421C85.858 20.7519 84.9242 23.8085 82.8478 27.0101C82.4418 27.6307 81.0846 29.4694 79.2344 31.9112C79.4084 31.9402 79.5882 31.9808 79.7738 32.0272C79.8782 32.0504 83.0102 32.5666 85.3128 32.9494C90.0398 26.8245 91.4841 26.4591 96.2227 25.3281C96.7215 25.2063 97.2145 25.0613 97.7017 24.8989C99.5867 24.2725 100.509 23.4953 100.062 22.8979C100.033 22.8515 100.004 22.8167 99.9753 22.7761ZM94.4247 21.2333C94.2855 21.0999 94.2855 20.8737 94.4189 20.7403L95.2367 19.8935C95.3701 19.7543 95.5963 19.7543 95.7297 19.8877C95.8689 20.0211 95.8689 20.2473 95.7355 20.3807L94.9177 21.2275C94.7843 21.3667 94.5639 21.3667 94.4247 21.2333ZM95.3411 22.4165C95.2019 22.2831 95.2019 22.0569 95.3353 21.9235L96.1531 21.0767C96.2865 20.9375 96.5127 20.9375 96.6461 21.0709C96.7853 21.2043 96.7853 21.4305 96.6519 21.5639L95.8341 22.4107C95.7007 22.5499 95.4803 22.5557 95.3411 22.4165ZM97.5683 22.7529L96.7505 23.5997C96.6171 23.7389 96.3909 23.7389 96.2575 23.6055C96.1183 23.4721 96.1183 23.2459 96.2517 23.1125L97.0695 22.2657C97.2029 22.1265 97.4291 22.1265 97.5625 22.2599C97.7017 22.3875 97.7075 22.6137 97.5683 22.7529Z" fill="#222E55"/>
<path d="M39.5737 53.2031C39.8927 53.1973 39.7071 52.4259 39.5795 51.9851L25.1664 52.1649C25.1664 52.1649 28.0606 58.2376 34.4291 58.2376C35.0961 58.2376 37.0623 58.2085 39.5447 58.1621C39.4867 55.8363 39.4403 53.2031 39.5737 53.2031Z" fill="#F1CE43"/>
<path d="M39.7477 49.4912C39.9565 47.757 40.2465 45.3152 40.4843 43.349L16.9419 43.581C16.9419 43.581 19.8361 49.6536 26.2046 49.6536C27.2776 49.6536 33.3734 49.5724 39.7477 49.4912Z" fill="#F1CE43"/>
<path d="M41.1107 65.3776C40.8381 64.3104 39.6259 61.2653 39.6259 61.2653C39.6201 61.0449 39.6143 60.7433 39.6027 60.3895L35.5948 60.4649C35.5948 60.4649 37.4799 64.3974 41.5341 65.9344C41.3079 65.7198 41.1455 65.5284 41.1107 65.3776Z" fill="#F1CE43"/>
<path d="M40.7569 41.1565C40.8381 40.4895 40.8961 40.0661 40.9077 40.0313C41.2209 39.0975 41.7081 38.1462 42.4389 37.0442C42.6477 36.731 42.9203 36.4294 43.1987 36.1278C43.4365 35.8668 44.0571 35.3042 44.0571 35.3042C44.1557 35.2114 44.3529 35.1128 44.5733 35.02L8.60725 35.31C8.60725 35.31 11.5015 41.3827 17.8699 41.3827C19.1981 41.3769 30.7634 41.2609 40.7569 41.1565Z" fill="#0A8BCF"/>
<path d="M95.6717 44.1552C95.6891 44.277 96.2691 47.5076 96.5823 49.4854C103.026 49.5724 109.238 49.6478 110.323 49.6478C116.691 49.6478 119.585 43.5752 119.585 43.5752L95.4745 43.3374C95.5789 43.726 95.6543 44.0276 95.6717 44.1552Z" fill="#F1CE43"/>
<path d="M96.8027 60.9695C96.7273 61.2537 95.9327 64.1596 95.4223 65.7488C99.1749 64.1074 100.932 60.4649 100.932 60.4649L96.8607 60.3895C96.8491 60.6621 96.8317 60.8767 96.8027 60.9695Z" fill="#F1CE43"/>
<path d="M91.3216 35.0084C92.6499 35.9074 93.2879 37.224 94.1231 39.0104C94.2333 39.2366 94.5291 40.1473 94.8307 41.1449C105.027 41.2493 117.283 41.3769 118.646 41.3769C125.014 41.3769 127.908 35.3042 127.908 35.3042L91.3216 35.0084Z" fill="#0A8BCF"/>
<path d="M45.4897 26.7317L49.4918 32.8681C49.4918 32.8681 10.6315 33.1001 9.26267 33.1001C2.89422 33.1001 0 27.0275 0 27.0275L45.4897 26.7317Z" fill="#0A8BCF"/>
<path d="M96.7679 53.8353C96.8201 54.3573 96.8781 56.3931 96.8897 58.1621C99.4127 58.2085 101.42 58.2376 102.098 58.2376C108.467 58.2376 111.361 52.1649 111.361 52.1649L96.7621 51.9851C96.7563 52.7797 96.7621 53.7715 96.7679 53.8353Z" fill="#F1CE43"/>
<path d="M66.4105 13.4091C65.8189 13.4207 65.3027 13.3105 64.7807 13.3047C64.247 13.2989 63.7077 13.2757 63.174 13.3163C62.6462 13.3569 62.1242 13.4613 61.5732 13.5425C61.492 13.4787 61.5384 13.3802 61.5848 13.2932C61.9908 12.5855 62.6056 12.2723 63.4176 12.2723C64.0383 12.2723 64.6473 12.3303 65.2621 12.4057C65.8479 12.4811 66.1959 12.7653 66.4105 13.4091Z" fill="#222E55"/>
<path d="M66.6831 24.2785C67.6691 24.4873 68.9161 24.4293 69.9137 24.2785C70.5053 24.1857 70.2385 23.2809 69.6527 23.3679C68.8117 23.4955 67.7793 23.5419 66.9499 23.3679C66.3757 23.2519 66.1147 24.1625 66.6831 24.2785Z" fill="#222E55"/>
<path d="M72.8891 22.0512C72.8659 21.8597 72.6571 21.6045 72.4657 21.5349C72.4193 21.5349 72.3671 21.5175 72.3381 21.5349C71.7697 21.9119 71.0447 21.9583 70.4125 21.9003C70.3023 21.8887 70.1921 21.8481 70.0819 21.8191C69.5715 21.6567 69.0901 21.5755 68.5681 21.8307C68.5449 21.8423 68.5275 21.8481 68.5043 21.8539C68.4811 21.8481 68.4637 21.8365 68.4405 21.8307C67.9185 21.5755 67.4371 21.6567 66.9267 21.8191C66.8165 21.8539 66.7063 21.8945 66.5961 21.9003C65.9639 21.9525 65.1171 21.8945 64.7227 21.5407C64.3283 21.1869 64.1311 21.8075 64.1079 21.9989C64.0847 22.1961 64.102 22.4571 64.2645 22.6253C64.9895 22.3643 65.1229 22.3759 65.9465 22.5325C66.1959 22.5789 66.4453 22.6137 66.7005 22.6253C67.2457 22.6485 67.5125 22.6543 68.0577 22.6601V22.666C68.2317 22.666 68.3245 22.666 68.4985 22.666C68.6725 22.666 68.7653 22.666 68.9393 22.666V22.6601C69.4845 22.6543 69.7513 22.6427 70.2965 22.6253C70.5517 22.6137 70.8011 22.5789 71.0505 22.5325C71.8741 22.3759 72.0075 22.3643 72.7325 22.6253C72.9065 22.4571 72.9065 22.2484 72.8891 22.0512Z" fill="#222E55"/>
<path d="M74.6059 13.3685C74.3739 12.6609 73.7649 12.3361 72.8137 12.2897C72.0887 12.2549 71.2477 12.2375 70.5633 12.4347C70.0761 12.5739 69.6005 12.9045 69.2757 13.8905C69.2757 13.8905 69.1481 14.0587 69.2003 15.1607C69.2583 16.2569 69.7919 18.2579 69.8673 18.4261C69.9717 18.6639 70.0065 18.9133 69.9079 19.1569C69.8093 19.4005 69.2931 19.5281 69.0089 19.7195C68.6435 19.9689 67.9707 20.0153 67.5241 19.7601C66.7585 19.3251 66.1379 19.7775 66.2075 18.7915C65.7493 18.5537 65.7725 19.6789 66.2829 19.9747C66.6889 20.2125 66.8803 20.1893 67.6053 20.5257C68.1795 20.8157 68.6957 20.6881 68.9625 20.5663C69.8325 20.1777 70.7895 19.8413 70.6213 19.2033C69.8383 16.3033 69.6875 15.7349 69.7571 14.4531C69.7803 14.0239 70.0413 13.6701 70.4589 13.5251C70.8765 13.3801 70.8765 13.3801 71.2651 13.3337C71.4159 13.3163 71.6131 13.2989 71.8335 13.2815C72.2105 13.2757 72.5875 13.2699 72.9645 13.2989C73.4923 13.3395 74.0143 13.4439 74.5653 13.5251C74.6175 13.4845 74.6175 13.4265 74.5943 13.3627C74.5943 13.3685 74.6001 13.3685 74.6059 13.3685Z" fill="#222E55"/>
<path d="M74.6233 14.3429C74.5479 14.2849 74.4725 14.2269 74.3855 14.1921C74.0375 14.0587 73.6837 13.9601 73.3183 13.8963C72.9355 13.8267 72.5469 13.8035 72.1583 13.8325C72.1583 13.8325 70.8301 13.8963 70.6039 14.2037C70.3777 14.5111 71.3985 15.3289 71.3985 15.3289C71.4217 15.0215 71.1955 14.7605 71.2419 14.6271C71.4507 14.6039 71.6595 14.5807 71.8683 14.5517C71.8915 14.5749 71.9089 14.5923 71.9263 14.6213C72.0365 14.9287 72.3381 15.1491 72.6977 15.1549C72.8949 15.1549 73.0747 15.0911 73.2197 14.9809C73.3879 14.8533 73.5097 14.6619 73.5271 14.4357C73.8635 14.4705 74.0317 14.4937 74.3681 14.5517C74.4377 14.5633 74.5189 14.5401 74.5943 14.5227C74.6523 14.5053 74.6813 14.3835 74.6233 14.3429Z" fill="#222E55"/>
<path d="M61.9502 14.3429C62.0256 14.2849 62.1011 14.2269 62.1881 14.1921C62.5361 14.0587 62.8899 13.9601 63.2553 13.8963C63.6381 13.8267 64.0267 13.8035 64.4153 13.8325C64.4153 13.8325 65.7435 13.8963 65.9697 14.2037C66.1959 14.5111 65.1751 15.3289 65.1751 15.3289C65.1519 15.0215 65.3781 14.7605 65.3317 14.6271C65.1229 14.6039 64.9141 14.5807 64.7053 14.5517C64.6821 14.5749 64.6647 14.5923 64.6473 14.6213C64.5371 14.9287 64.2355 15.1491 63.8817 15.1549C63.6845 15.1549 63.5047 15.0911 63.3597 14.9809C63.1915 14.8533 63.0697 14.6619 63.0523 14.4357C62.7159 14.4705 62.5477 14.4937 62.2112 14.5517C62.1416 14.5633 62.0604 14.5401 61.985 14.5227C61.9212 14.5053 61.898 14.3835 61.9502 14.3429Z" fill="#222E55"/>
<path d="M97.4697 56.9732C97.4175 55.935 97.2203 54.7924 97.1159 53.6962C97.0579 53.122 97.1681 50.1523 97.0985 49.7347C96.9999 49.1605 96.5011 46.0807 95.9501 43.7723C93.9433 35.5014 92.7369 34.5676 91.6174 33.86C90.3936 32.7638 81.6646 31.5864 80.2494 31.2964C79.6868 31.1804 79.13 31.0064 78.55 31.0122C78.3412 31.0122 78.202 30.8846 78.115 30.7106C78.0512 30.583 78.0221 30.438 77.9757 30.2988C77.9119 30.1016 77.8598 29.8986 77.7844 29.7072C77.68 29.4172 77.5697 29.1272 77.4421 28.843C77.2449 28.408 77.0129 27.9788 76.5721 27.741C76.1951 27.5438 76.1197 27.248 76.1777 26.8536C76.2241 26.5462 76.2473 26.2388 76.2705 25.9256C76.3227 25.218 76.3401 24.5104 76.4213 23.8086C76.5025 23.043 76.6649 22.289 76.7403 21.5234C76.7809 21.0884 76.9259 20.7751 77.2855 20.5373C77.6336 20.2995 77.883 19.9689 77.9932 19.5455C78.0338 19.3889 78.1266 19.2439 78.1904 19.0873C78.3238 18.7625 78.4746 18.4377 78.5732 18.1013C78.724 17.5851 78.8342 17.0515 78.9618 16.5295C78.985 16.4309 78.9908 16.3207 78.9908 16.2221C78.9908 15.3695 79.043 14.5227 78.7588 13.6875C78.637 13.3337 78.4456 13.1075 78.115 13.0031C77.9003 12.9335 77.6741 12.9161 77.3899 12.8639C77.3783 12.6725 77.3551 12.5101 77.3551 12.3419C77.3551 11.6575 77.3841 10.9673 77.3609 10.2829C77.3435 9.78407 77.3029 9.27947 77.1927 8.79807C76.9781 7.88746 76.7287 6.98845 76.3981 6.11264C76.1081 5.33544 75.8703 4.54083 75.5977 3.75783C75.2845 2.87622 74.7973 2.11641 73.9911 1.61761C73.6605 1.41461 73.2951 1.2638 72.9413 1.1014C72.7325 1.0086 72.5121 0.956408 72.3091 0.857807C71.9147 0.666406 71.4971 0.573602 71.0679 0.509801C70.5575 0.440201 70.0529 0.364809 69.5425 0.283609C69.0321 0.202408 68.5275 0.103806 68.0229 0.0284056C67.8199 -0.000594633 67.6053 -0.012206 67.4081 0.0167942C66.4511 0.167595 65.5057 0.382207 64.6125 0.77081C64.1427 0.979612 63.6612 1.16521 63.1972 1.38561C62.8492 1.55381 62.4722 1.7162 62.188 1.97141C61.3412 2.72541 60.709 3.63603 60.2972 4.70324C59.8506 5.86905 59.5432 7.08125 59.2358 8.28766C58.8646 9.74927 58.6848 11.2283 58.7892 12.7421C58.795 12.8407 58.766 12.9451 58.7602 13.0437C58.5804 13.1713 58.3948 13.2757 58.2498 13.4149C58.1048 13.5541 57.954 13.7223 57.896 13.9079C57.7974 14.2211 57.7336 14.5575 57.7104 14.8881C57.6524 15.7639 57.7452 16.6339 57.867 17.4981C57.8786 17.5967 57.9308 17.6953 57.9656 17.7939C58.1454 18.2579 58.3194 18.7277 58.5108 19.1859C58.7892 19.8587 59.1198 20.5083 59.6882 20.9897C59.8622 21.1347 59.9028 21.3435 59.9318 21.5465C60.0478 22.3585 60.3204 23.1126 60.622 23.8666L60.7264 26.7724C60.6916 27.2538 60.5234 27.6946 60.0826 27.9904C59.8274 28.1586 59.6244 28.408 59.404 28.6284C58.853 29.1852 58.2556 29.7072 57.9366 30.4554C57.838 30.6816 57.635 30.7918 57.403 30.8382C56.5156 31.0296 48.7435 32.8856 48.2331 33.0596C47.2645 33.4018 44.7531 33.8252 43.1755 35.5072C41.6037 37.1893 40.0377 39.7413 39.1503 49.1025C39.0633 49.9899 38.9879 50.8832 38.9125 51.7764C38.8951 51.962 38.8835 52.1592 38.9299 52.3274C38.9705 52.4724 39.1097 52.5884 39.1677 52.6696C39.1213 53.0234 39.0633 53.3308 39.0401 53.6382C38.8661 55.7784 38.9531 57.9244 38.9821 60.0704C38.9995 61.2942 38.7559 61.416 39.4519 63.8346C39.4519 63.8346 40.3335 67.4539 43.3495 68.0687C44.4689 68.3587 44.2717 68.2891 44.7415 68.3413C45.4549 68.4225 46.1799 68.4457 46.8991 68.4979C49.0626 68.6603 51.226 68.5501 53.3836 68.4283C54.039 68.3935 54.7002 68.3239 55.3498 68.2369C56.4924 68.0861 57.6292 67.8831 58.7834 67.8077C59.1546 67.7845 59.52 67.7323 59.8854 67.6569C60.5118 67.5351 61.1382 67.3959 61.753 67.2393C62.5302 67.0421 63.3017 66.8101 64.0731 66.6071C65.6043 66.2069 67.1761 65.9517 68.6957 65.4877C68.7943 65.4587 73.0863 64.6582 73.3647 64.7394C73.9215 64.896 74.4783 65.0469 75.0235 65.2325C76.4271 65.7081 84.3906 68.4631 88.8102 68.5907C93.2357 68.7183 94.2913 68.5095 95.2947 67.1175C97.1101 64.6235 97.9685 61.2188 97.4697 56.9732ZM77.2682 13.9195C77.2855 13.5715 77.2333 13.2525 77.5059 13.1655C77.5059 13.1655 78.6486 13.3337 78.1788 13.4091C77.709 13.4787 77.2391 14.5749 77.2391 14.5749C77.2391 14.5749 77.2682 13.9485 77.2682 13.9195ZM77.1811 18.2405C77.2797 17.8809 77.3899 17.5213 77.4711 17.1559C77.5407 16.8543 77.5466 16.5527 77.477 16.2337C77.39 15.8335 77.4363 15.4101 77.5871 15.0157C77.6335 14.8997 77.709 14.7895 77.854 14.8011C77.999 14.8127 78.0686 14.9287 78.0859 15.0505C78.1149 15.2767 78.1208 15.5087 78.1266 15.6769C78.0396 16.6281 77.9294 17.5155 77.6278 18.3681C77.506 18.7045 77.3726 18.8379 77.2391 18.7509C77.0535 18.6059 77.1289 18.4203 77.1811 18.2405ZM59.433 18.7857C59.4098 18.8553 59.3576 18.9307 59.2996 18.9713C59.2648 18.9945 59.172 18.9829 59.1372 18.9481C59.0444 18.8727 58.94 18.7857 58.8878 18.6813C58.7602 18.4435 58.621 18.2057 58.5514 17.9505C58.3078 17.0863 58.1512 16.2105 58.1802 15.3115C58.1802 15.2303 58.1976 15.1433 58.215 15.0679C58.2498 14.9229 58.4528 14.8649 58.563 14.9635C58.708 15.0911 58.8008 15.2477 58.824 15.4449C58.853 15.6711 58.8762 15.8973 58.911 16.1931C58.911 16.2105 58.9226 16.2975 58.8994 16.3729C58.679 17.0921 58.9284 17.7185 59.2474 18.3391C59.2938 18.4319 59.3576 18.5131 59.3982 18.6117C59.4214 18.6581 59.4504 18.7335 59.433 18.7857ZM59.3286 14.9113C59.1778 14.9055 58.3542 13.9601 58.3774 13.8151C58.3948 13.7049 58.795 13.4555 58.911 13.4555C59.0618 13.4555 59.2184 13.6469 59.3286 13.9659C59.4388 14.2907 59.52 14.9171 59.3286 14.9113ZM60.477 7.44665C60.622 6.30984 60.825 5.19044 61.1672 4.10003C61.318 3.61862 61.5848 3.20103 62.014 2.91103C62.3214 2.70223 62.6172 2.47601 62.9246 2.26721C63.6496 1.78001 64.4559 1.4784 65.2911 1.229C65.6855 1.113 66.0799 1.00861 66.4743 0.881012C66.8165 0.765011 67.1529 0.753403 67.5067 0.799803C67.8721 0.846204 68.2433 0.857806 68.6087 0.892606C69.1423 0.939006 69.6759 0.9738 70.2037 1.0492C70.6619 1.113 71.0389 1.34501 71.3637 1.69301C72.3555 2.74282 72.7789 4.00723 72.8079 5.42824C72.8137 5.57324 72.8079 5.71824 72.8079 5.86325C72.8079 5.86325 72.8079 5.86325 72.8021 5.86325C72.8021 6.19385 72.8137 6.53025 72.7963 6.86085C72.7789 7.21466 72.6049 7.31904 72.2569 7.22624C71.7001 7.07544 71.1375 6.94204 70.5981 6.75644C69.6875 6.44324 68.7479 6.37365 67.8025 6.35045C66.8977 6.32725 65.9929 6.37944 65.0997 6.52444C65.0591 6.53024 65.0185 6.53024 64.9779 6.54184C64.0151 6.84344 63.0522 7.12766 62.1474 7.58586C61.724 7.80046 61.3064 8.02665 60.8888 8.24705C60.854 8.26445 60.8134 8.28186 60.7728 8.29346C60.5814 8.36306 60.4306 8.27026 60.4364 8.07306C60.4422 7.86426 60.4538 7.65545 60.477 7.44665ZM59.6302 11.7213C59.5316 11.6169 59.5258 11.4893 59.578 11.3733C59.6476 11.2225 59.7288 11.0775 59.8332 10.9499C60.5756 10.0567 61.3934 9.22727 62.362 8.58347C63.4582 7.85846 64.6589 7.36546 65.9639 7.18565C66.4279 7.12185 68.4811 7.01164 70.0181 7.57425C71.5493 8.13685 72.0191 8.43266 73.2835 9.25047C73.4923 9.38387 74.5073 10.2017 74.7045 10.3525C75.0699 10.6309 75.4411 10.8861 75.8993 10.9847C75.9573 10.9963 76.0269 11.0195 76.0675 11.0543C76.1081 11.0949 76.1371 11.1645 76.1313 11.2167C76.1255 11.2689 76.0791 11.3385 76.0327 11.3617C75.9399 11.3965 75.8297 11.4371 75.7427 11.4197C75.5455 11.3791 75.3425 11.3211 75.1569 11.2341C74.9713 11.1471 74.7973 11.0311 74.6291 10.9093C72.3845 9.26206 71.9263 9.16346 71.2071 8.80385C70.4879 8.44425 69.5367 8.11946 68.5275 7.91066C67.0775 7.62646 65.0823 7.95125 64.2297 8.29925C63.1392 8.74006 62.2402 9.45346 61.3818 10.2423C61.0164 10.5787 60.6684 10.9325 60.4016 11.3559C60.303 11.5067 60.1638 11.6401 60.0188 11.7561C59.9028 11.8605 59.723 11.8257 59.6302 11.7213ZM59.8564 15.8103C59.6882 14.2907 60.8714 11.9475 60.8714 11.9475C60.9352 11.8199 62.449 10.5323 65.3897 10.0277C68.4985 9.48827 70.0355 9.74346 71.4623 9.89426C74.1651 10.1727 75.8065 12.8407 75.8065 12.8407C75.8065 12.8407 76.7751 15.2941 76.6475 16.2917C76.2937 19.0583 76.5025 20.9201 75.8297 23.4606C75.5919 24.3538 74.4203 25.1658 72.8311 26.378C71.7639 27.19 70.8765 28.263 68.4927 28.263C66.5033 28.263 65.6333 27.77 64.1543 26.4534C62.565 25.0382 61.028 23.7564 60.7496 22.9618C60.2914 21.6509 60.1812 18.7741 59.8564 15.8103ZM72.6803 30.6526C72.7325 31.3602 72.3961 31.9054 71.9437 32.3694C71.3231 33.0074 70.0181 34.2834 69.5541 35.5594C69.1365 36.7021 68.7421 37.6417 68.0809 37.6417C67.6053 37.6417 65.5985 34.6546 64.8967 33.831C64.2935 33.1234 63.5684 32.526 63.0058 31.7778C62.9536 31.714 62.913 31.6386 62.855 31.5806C62.0778 30.7744 61.8516 29.8 61.985 28.7154C62.0198 28.4254 62.0372 28.1354 62.0662 27.8454C62.0836 27.7004 62.0952 27.5554 62.1416 27.4162C62.275 27.0102 62.594 26.9058 62.971 27.1204C63.3248 27.3292 65.5057 29.3302 68.2201 29.365C70.9345 29.3998 71.1723 28.843 72.1003 28.6516C72.1583 28.64 72.2221 28.6284 72.2801 28.6168C72.5237 28.5878 72.6397 28.6632 72.6571 28.9068C72.6919 29.3012 72.6977 29.6956 72.7151 29.9682C72.7035 30.2814 72.6687 30.467 72.6803 30.6526ZM40.3161 50.9064C40.3915 50.1176 40.4785 49.3345 40.5713 48.5457C40.7627 47.0377 40.8903 42.0961 42.7811 38.4827C43.4655 37.1719 44.4109 36.0931 45.7275 35.4087C47.7865 34.3414 56.939 32.4564 57.0086 32.4796C57.0956 32.5086 57.0434 33.0306 57.0318 33.1118C56.9564 33.6918 56.881 34.266 56.7882 34.8402C56.7012 35.397 56.7418 37.0849 56.7824 37.3807C56.8288 37.7345 56.9796 37.9433 57.374 37.8737C58.476 37.4735 58.0932 37.6939 60.6684 36.1394C60.9294 36.0524 61.1266 36.2439 61.3064 36.3889C61.5036 36.5397 61.7124 36.6731 61.9038 36.8297C62.2808 37.1371 62.7216 37.3111 63.174 37.4445C63.3654 37.5025 63.5801 37.4909 63.7831 37.4851C63.8469 37.4851 63.9165 37.4039 63.9687 37.3691C63.9629 37.3227 63.9686 37.2995 63.9571 37.2821C63.3596 36.354 62.652 35.5247 61.7472 34.8808C61.2774 34.5444 60.8134 34.5212 60.2972 34.759C59.7462 35.0084 59.2648 35.3623 58.824 35.7683C58.5804 35.9945 58.3426 36.2265 58.0874 36.4353C58.0062 36.5049 57.8554 36.5455 57.751 36.5223C57.6176 36.4933 57.5886 36.3483 57.6002 36.2149C57.6756 34.9678 57.7046 33.7208 57.9714 32.497C58.1338 31.7546 58.4934 31.0992 58.9052 30.4728C59.2358 29.9624 59.6534 29.5332 60.1232 29.1562C60.1754 29.1156 60.2856 29.0924 60.3436 29.1214C60.4016 29.1504 60.4538 29.249 60.4538 29.3186C60.4538 29.5042 60.4422 29.6956 60.4132 29.8754C60.3378 30.4554 60.535 30.9368 60.941 31.3428C60.999 31.4008 61.0512 31.4704 61.1208 31.5168C61.8052 31.975 64.1659 34.5618 64.6183 35.4318C65.0881 36.3424 66.7991 39.8167 67.0659 40.1821C67.3327 40.5475 67.7735 41.3131 68.0867 41.2725C68.3999 41.2261 68.9045 40.3271 69.2119 39.6253C69.5657 38.8133 70.5111 36.0641 71.8915 34.3878C73.0341 32.8218 74.7219 31.5864 75.2265 30.9832C75.5165 30.641 75.6731 30.2466 75.7253 29.7942C75.7543 29.5738 75.8239 29.3534 75.8993 29.1388C75.9399 29.017 76.1255 28.9938 76.2125 29.0808C76.3111 29.1852 76.4039 29.2954 76.4851 29.4172C76.7925 29.8638 76.9781 30.3742 77.1637 30.8846C77.2217 31.0354 77.2159 31.2094 77.2333 31.3718C77.3145 32.1026 77.1986 32.8276 77.187 33.5526C77.1811 34.2776 77.1521 34.788 77.1115 35.5131C77.0941 35.8205 77.0245 36.3483 76.9607 36.6557C76.9201 36.8529 76.7113 36.9515 76.5199 36.8819C76.3865 36.8297 75.8413 36.4759 75.6789 36.3831C73.8983 35.3623 73.1269 35.3274 72.6919 35.3796C72.4309 35.4144 72.2047 35.4434 72.0365 35.6348C71.9263 35.7624 71.8161 35.9538 71.7523 36.1046C71.5493 36.5803 71.3637 37.0675 71.1781 37.5489C71.1665 37.5837 70.9983 38.0419 71.1549 38.0767C71.3115 38.1115 71.6421 37.7229 71.7175 37.6533C71.8683 37.5083 72.4425 37.0385 72.5759 36.9631C73.1501 36.6557 73.7127 36.7659 74.2579 37.0617C75.1801 37.5663 76.1023 38.0825 76.9433 38.7205C77.2043 38.9177 77.4711 39.1091 77.7495 39.2077C77.9525 39.1149 77.9931 38.9815 78.0047 38.8307C78.0686 38.0651 78.1324 37.2995 78.1904 36.5339C78.1962 36.4527 78.3876 32.6768 78.3992 32.613C78.434 32.3694 78.5906 32.2824 78.8458 32.3346C79.6752 32.5028 80.493 32.729 81.3282 32.8102C82.4012 32.9146 84.611 33.1002 87.5342 33.8542C90.4574 34.6082 92.3773 36.2265 93.4271 39.5789C94.4769 42.9313 95.3353 47.5539 95.5151 48.4935C95.6485 49.207 95.6949 49.9377 95.7761 50.6569C95.7877 50.7556 95.7761 50.8657 95.7587 50.9644C95.7181 51.1674 95.5731 51.2544 95.2889 51.2776C94.5929 51.3472 84.5936 52.9422 84.3674 52.9016C83.7526 52.7856 82.552 48.5109 82.5172 48.4355C82.4824 48.3717 82.4128 48.2905 82.349 48.2789C82.291 48.2731 82.1924 48.3311 82.1576 48.3891C82.1054 48.4761 82.0822 48.5805 82.0648 48.6849C81.943 49.5491 81.8096 50.4134 81.711 51.2834C81.6472 51.8866 81.6124 52.484 80.8236 52.2462C80.8062 52.2404 79.594 52.0316 79.0082 51.9388C78.318 51.8286 77.6219 51.7416 76.9259 51.6952C75.4063 51.585 70.4357 51.1326 69.4671 51.1152C67.8199 51.0804 66.1727 50.8947 64.5255 50.8541C63.4351 50.8251 59.7172 50.5758 59.2242 50.5178C57.809 50.3612 56.3996 50.1756 54.9728 50.251C54.6248 50.2684 53.3488 47.7453 53.1516 47.2349C53.1052 47.1189 53.0472 47.0029 52.9718 46.9101C52.9312 46.8579 52.8268 46.8173 52.763 46.8289C52.6992 46.8463 52.6122 46.9275 52.6006 46.9913C52.5658 47.1711 52.5484 47.3625 52.56 47.5481C52.5832 47.8381 52.8732 52.0722 52.8558 52.194C52.8152 52.4144 52.6238 52.513 52.4672 52.5014C47.3863 52.5362 41.7081 51.9852 41.2151 51.9736C40.8381 51.9678 40.3741 51.8982 40.3219 51.5212C40.2987 51.324 40.2987 51.1152 40.3161 50.9064ZM70.3081 63.127L61.434 65.4297C56.069 66.7753 50.3908 67.0305 48.0939 66.7579C45.7913 66.4911 45.5709 66.3867 44.2949 66.3113C43.8251 66.2823 43.3553 66.1895 42.8913 66.1083C42.6651 66.0677 42.4679 65.9633 42.3345 65.7545C42.1373 65.4413 40.5075 63.3532 40.2175 60.14C40.2175 58.5624 40.3683 54.5314 40.3915 54.05C40.4031 53.7832 40.5249 53.615 40.7511 53.5222C40.9019 53.4642 41.0701 53.412 41.2267 53.4178C43.8425 53.557 49.689 53.499 49.9964 53.528C50.2574 53.5454 50.53 53.5628 50.8142 53.7194C50.7562 53.8122 50.7214 53.9108 50.6518 53.9572C50.5706 54.0094 50.4546 54.0094 50.356 54.0326C49.6948 54.1892 49.0335 54.3458 48.3781 54.514C48.2041 54.5604 48.0243 54.63 47.8735 54.7344C47.6357 54.8968 47.6531 55.2042 47.8909 55.355C47.9895 55.4188 48.1171 55.4594 48.2331 55.4652C48.3723 55.471 48.5173 55.4362 48.6623 55.413C49.5208 55.2738 50.385 55.2448 51.2492 55.2274C51.8118 55.2158 52.357 55.297 52.9022 55.4246C53.5228 55.5754 54.1492 55.6798 54.7814 55.7784C55.634 55.9118 56.4808 56.109 57.316 56.312C58.418 56.5788 59.5026 56.8862 60.6046 57.1646C60.6046 57.1646 64.1659 58.3652 65.8711 59.2468C67.5763 60.1284 68.3187 60.7084 69.4091 61.6306C69.8325 61.9902 70.1747 62.4426 70.5227 62.8196C70.5343 63.04 70.4473 63.1154 70.3081 63.127ZM96.2691 60.14C96.2459 62.0134 94.7785 64.7453 94.5175 65.1281C94.3783 65.3311 94.2797 65.563 94.1695 65.7893C93.9317 66.2591 93.5895 66.5259 93.0443 66.4911C92.2845 66.4447 91.5246 66.4157 90.7648 66.3867C89.5932 66.3403 82.3316 66.1779 75.9515 63.4518C70.3661 61.0622 64.4327 56.8746 63.5162 56.312C63.1682 56.0974 62.8434 55.8364 62.5128 55.5928C62.3272 55.4536 62.2112 55.2564 62.1532 55.0244C62.1126 54.862 62.0778 54.6996 62.0082 54.5488C61.9096 54.3226 61.6196 54.2588 61.4398 54.4212C61.3354 54.514 61.26 54.6416 61.1962 54.7692C61.1556 54.8562 61.1614 54.9722 61.1498 55.0766C61.0918 55.5754 61.0164 55.6508 60.5814 55.4826C59.9956 55.2564 55.2802 54.8156 55.0192 54.7518C54.3464 54.5894 53.952 53.8296 54.2246 53.1858C54.474 52.6 54.8394 52.1128 55.4368 51.8344C56.1966 51.4806 56.9796 51.2544 57.8148 51.2486C58.2672 51.2428 58.7196 51.2254 59.172 51.2544C59.665 51.2834 60.158 51.3414 60.6452 51.411C61.115 51.4806 61.5848 51.5502 62.0372 51.6778C62.6172 51.8402 63.2031 51.8808 63.8005 51.9156C65.3433 52.0026 66.8803 52.1186 68.4173 52.2346C69.6875 52.3274 70.9635 52.4318 72.2337 52.5362C73.5271 52.6406 74.8147 52.7508 76.0965 52.977C76.6011 53.0698 77.1173 53.1162 77.6278 53.1626C78.3064 53.2206 82.3722 54.0268 83.2016 54.1776C83.6424 54.2588 88.3404 55.4594 89.1582 55.732C89.2974 55.7784 89.4308 55.8364 89.57 55.8654C89.8368 55.9234 90.1964 55.7204 90.2312 55.3202C90.266 54.9084 89.7208 54.6242 89.28 54.4502C89.1118 54.3864 88.8856 54.2994 88.9088 54.0848C88.932 53.8064 89.1118 53.76 89.2974 53.7194C90.6662 53.4236 92.1569 53.325 93.5489 53.18C94.2623 53.1046 94.9873 53.122 95.7935 53.0988C95.8457 53.3714 95.9327 54.3922 95.9733 54.6822C96.2517 56.573 96.2865 58.4116 96.2691 60.14Z" fill="#222E55"/>
<path d="M48.0417 33.8774C48.4419 33.7382 48.9697 33.57 49.5149 33.454C50.2457 33.3032 50.9823 33.135 51.6726 32.9784C51.9626 32.9146 52.2236 32.8392 52.473 32.7522C52.618 32.7 52.763 32.671 52.908 32.6304C52.5658 32.2012 52.3048 31.8532 52.1308 31.6038C51.0867 30.0842 50.4835 28.4718 50.4023 26.6912C50.3849 26.378 48.9987 23.1822 48.9871 23.1938C48.8015 23.3562 48.9697 23.2053 48.5115 23.6113C47.7923 24.2435 47.1311 23.3909 46.5105 22.7471C45.9189 22.1265 45.2229 21.3029 45.9885 20.6127C47.3515 19.3889 47.7749 19.0119 49.1321 17.7823C49.2481 17.6721 49.3583 17.4633 49.3409 17.3183C49.2075 16.2975 45.1127 11.6749 43.9817 11.6285C43.6453 11.6169 43.3727 11.7155 43.1175 11.9475C42.0097 12.9567 39.3069 15.4275 39.3069 15.4275L38.4833 14.5169L33.1994 19.3773C34.2086 20.7403 39.9507 27.0624 46.6439 34.3414C47.1137 34.1732 47.5777 34.034 48.0417 33.8774Z" fill="#222E55"/>
<path d="M25.903 70.1435V86.604C54.387 82.7412 82.9406 82.7412 111.425 86.6098V70.1493C82.9464 66.4663 54.3812 66.4605 25.903 70.1435ZM110.172 85.1714L110.044 85.154C82.5868 81.8596 54.7408 81.8596 27.2892 85.1482L27.1616 85.1656V70.8569L27.266 70.8453C54.7408 67.7075 82.6042 67.7133 110.079 70.8511L110.178 70.8627V85.1714H110.172Z" fill="#222E55"/>
<path d="M27.3878 71.0602V84.9107C41.0759 83.2751 54.8626 82.4573 68.6493 82.4573C82.4476 82.4573 96.2401 83.2751 109.946 84.9165V71.066C82.552 67.9397 54.7756 67.9398 27.3878 71.0602Z" fill="#222E55"/>
<path d="M30.8913 78.4551L31.4017 83.1531L30.5723 83.2459L30.0619 78.5479L30.8913 78.4551Z" fill="white"/>
<path d="M32.4689 78.2868L32.6545 80.0964L34.0175 79.9572L33.8319 78.1476L34.6555 78.0664L35.1311 82.7702L34.3075 82.8514L34.1103 80.8852L32.7473 81.0244L32.9445 82.9964L32.1151 83.0776L31.6395 78.3738L32.4689 78.2868Z" fill="white"/>
<path d="M36.0997 77.9273L37.1785 79.8065L37.2539 79.8007L37.0799 77.8403L37.8745 77.7707L38.0485 79.7311L38.1239 79.7253L38.8663 77.6837L39.8291 77.5967L38.7677 79.8123C39.2665 79.8355 39.5507 80.2821 39.7595 80.8795C39.9277 81.3551 40.0669 81.8597 40.2641 82.3063L39.4289 82.3817C39.2897 82.0801 39.1795 81.6915 39.0751 81.3609C38.9127 80.8679 38.7039 80.4561 38.2515 80.4967L38.1181 80.5083L38.2921 82.4803L37.4975 82.5499L37.3235 80.5779L37.1901 80.5895C36.7435 80.6301 36.6159 81.0709 36.5405 81.5871C36.4941 81.9293 36.4593 82.3295 36.3723 82.6543L35.5371 82.7297C35.6589 82.2541 35.7169 81.7321 35.7981 81.2623C35.8967 80.6417 36.0881 80.1661 36.5753 80.0095L35.1369 78.0143L36.0997 77.9273Z" fill="white"/>
<path d="M42.6711 80.1256L41.3197 80.23L41.4067 81.3494L42.9147 81.2334L42.9843 82.1092L40.6411 82.289L40.2757 77.5794L42.5378 77.4054L42.6074 78.2812L41.1747 78.3914L41.2501 79.3716L42.6015 79.2672L42.6711 80.1256Z" fill="white"/>
<path d="M44.0632 77.2893L44.1849 79.1048L45.5538 79.012L45.432 77.1966L46.2614 77.1385L46.5862 81.8598L45.7568 81.9178L45.6234 79.9458L44.2603 80.0386L44.3938 82.0106L43.5586 82.0686L43.2395 77.3531L44.0632 77.2893Z" fill="white"/>
<path d="M49.376 79.6905L48.0246 79.7717L48.0884 80.8911L49.5964 80.8041L49.6486 81.6799L47.3054 81.8191L47.0328 77.0979L49.3006 76.9645L49.3528 77.8403L47.9202 77.9215L47.9782 78.9017L49.3296 78.8205L49.376 79.6905Z" fill="white"/>
<path d="M49.985 76.982C50.2402 76.9124 50.594 76.8544 51.1044 76.8312C51.6148 76.808 51.986 76.9124 52.247 77.156C52.4906 77.3822 52.6704 77.765 52.6936 78.229C52.7168 78.693 52.6182 79.0874 52.4094 79.3658C52.1426 79.7254 51.7308 79.8994 51.2378 79.9226C51.1276 79.9284 51.029 79.9284 50.9536 79.9168L51.0348 81.6046L50.2112 81.6452L49.985 76.982ZM50.913 79.0874C50.9826 79.1048 51.0696 79.1106 51.1914 79.1048C51.6322 79.0816 51.8932 78.78 51.87 78.2986C51.8468 77.8636 51.6032 77.6142 51.1856 77.6374C51.0174 77.6432 50.9014 77.6722 50.8434 77.6954L50.913 79.0874Z" fill="white"/>
<path d="M54.0276 76.7326L54.0972 78.548L55.466 78.4958L55.3964 76.6804L56.2258 76.6456L56.4114 81.3669L55.582 81.4017L55.5066 79.4239L54.1378 79.4761L54.2132 81.4539L53.378 81.4887L53.1924 76.7616L54.0276 76.7326Z" fill="white"/>
<path d="M57.815 76.599L57.9658 81.3202L57.1306 81.3492L56.9798 76.6222L57.815 76.599Z" fill="white"/>
<path d="M62.4841 81.0769C62.3333 81.1813 61.9911 81.2973 61.5445 81.3089C60.2743 81.3379 59.5957 80.3229 59.5667 78.9773C59.5319 77.3649 60.4077 76.4485 61.5213 76.4253C61.9505 76.4137 62.2811 76.5239 62.4319 76.6167L62.2811 77.4693C62.1129 77.3823 61.8751 77.3011 61.5793 77.3069C60.9181 77.3185 60.4193 77.8463 60.4425 78.8961C60.4599 79.8415 60.9123 80.4331 61.6547 80.4157C61.9041 80.4099 62.1825 80.3345 62.3449 80.2475L62.4841 81.0769Z" fill="white"/>
<path d="M63.7427 76.4599L63.7601 77.8635C63.7717 78.6233 63.7659 79.3715 63.7427 80.0037H63.7659C63.9515 79.4469 64.1893 78.8205 64.4039 78.3101L65.1753 76.4425L66.0279 76.4309L66.0801 81.1637L65.3145 81.1695L65.2971 79.7717C65.2913 79.0409 65.2913 78.3971 65.3377 77.7765H65.3203C65.1579 78.3391 64.9317 78.9655 64.7171 79.4701L63.9863 81.1869L63.0351 81.1985L62.9829 76.4657L63.7427 76.4599Z" fill="white"/>
<path d="M69.4963 81.0246C69.3455 81.1232 68.9975 81.2334 68.5509 81.2392C67.2807 81.2392 66.6195 80.2184 66.6195 78.8728C66.6195 77.2604 67.5127 76.3614 68.6263 76.3556C69.0555 76.3556 69.3861 76.4658 69.5311 76.5644L69.363 77.4112C69.1947 77.3184 68.9569 77.2372 68.6611 77.2372C67.9999 77.2372 67.4895 77.7534 67.4895 78.8032C67.4895 79.7486 67.9303 80.346 68.6727 80.346C68.9221 80.346 69.2006 80.2764 69.3688 80.1894L69.4963 81.0246Z" fill="white"/>
<path d="M70.8825 77.3357L69.8965 77.3299L69.9023 76.4309L72.7328 76.4541L72.727 77.3531L71.7236 77.3473L71.6945 81.1811L70.8593 81.1753L70.8825 77.3357Z" fill="white"/>
<path d="M75.3602 79.2208L74.0088 79.1976L73.9914 80.3228L75.5052 80.346L75.4936 81.2218L73.1445 81.1812L73.2199 76.4484L75.4936 76.4832L75.4762 77.359L74.0378 77.3358L74.0204 78.316L75.3776 78.3392L75.3602 79.2208Z" fill="white"/>
<path d="M79.2056 79.5106C79.2056 78.9422 79.2056 78.252 79.223 77.5676H79.2056C79.078 78.1708 78.904 78.8378 78.7474 79.3888L78.2486 81.2217L77.6048 81.1985L77.2626 79.3656C77.1582 78.803 77.048 78.1244 76.9784 77.5038H76.9668C76.9262 78.1418 76.8914 78.8726 76.8508 79.4584L76.7348 81.2507L75.9634 81.2275L76.323 76.5062L77.4308 76.5352L77.7498 78.1244C77.8484 78.6696 77.947 79.267 78.0166 79.8238H78.034C78.15 79.2786 78.295 78.658 78.4284 78.136L78.8634 76.5758L79.948 76.6048L80.0234 81.3435L79.2114 81.3203L79.2056 79.5106Z" fill="white"/>
<path d="M81.6126 76.6688L81.5604 78.0724C81.5314 78.8322 81.4908 79.5804 81.4328 80.2068H81.456C81.6706 79.6616 81.9374 79.0468 82.1752 78.548L83.0394 76.721L83.892 76.7558L83.7064 81.477L82.9408 81.448L82.993 80.056C83.022 79.3252 83.0568 78.6814 83.1322 78.0666H83.1148C82.9234 78.6234 82.6624 79.2382 82.4246 79.7254L81.6126 81.4016L80.6614 81.3668L80.847 76.6398L81.6126 76.6688Z" fill="white"/>
<path d="M86.3802 76.866L86.8269 78.5887C86.9081 78.9309 86.9718 79.2151 87.0356 79.5051H87.0531C87.1111 79.3021 87.1865 78.9947 87.3025 78.6003L87.7896 76.9414L88.6597 76.9878L87.8535 79.2789C87.5925 80.0039 87.3256 80.7057 87.0298 81.1291C86.7688 81.5003 86.4498 81.7265 86.0206 81.7033C85.8292 81.6917 85.719 81.6569 85.6146 81.6047L85.7191 80.7521C85.7829 80.7753 85.8698 80.7927 85.9916 80.7985C86.2468 80.8101 86.4325 80.5955 86.5079 80.3809C86.5427 80.3055 86.5311 80.2417 86.5079 80.1605L85.4406 76.8138L86.3802 76.866Z" fill="white"/>
<path d="M89.8487 77.069L89.7269 79.0294L89.7965 79.0352L90.9333 77.1386L91.9425 77.2024L90.5331 79.215C90.9971 79.4006 91.1827 79.8298 91.2987 80.4098C91.3973 80.9202 91.4843 81.4422 91.6293 81.9178L90.7361 81.8598C90.6317 81.5292 90.5853 81.1638 90.5157 80.8042C90.4229 80.2648 90.2779 79.8472 89.8313 79.8182L89.6747 79.8066L89.5529 81.7786L88.7293 81.7264L89.0193 77.011L89.8487 77.069Z" fill="white"/>
<path d="M92.3543 77.2894C92.6153 77.2546 92.9749 77.2372 93.4853 77.272C93.9957 77.3068 94.3553 77.4634 94.5815 77.7302C94.8019 77.9854 94.9295 78.3856 94.8947 78.8496C94.8599 79.3136 94.7149 79.6964 94.4771 79.9458C94.1697 80.2706 93.7405 80.3924 93.2475 80.3576C93.1373 80.3518 93.0387 80.3344 92.9633 80.317L92.8415 82.0049L92.0179 81.9469L92.3543 77.2894ZM93.0271 79.4876C93.0967 79.5108 93.1837 79.5282 93.3055 79.534C93.7463 79.563 94.0363 79.2962 94.0711 78.8148C94.1001 78.3798 93.8855 78.1072 93.4737 78.0782C93.3055 78.0666 93.1895 78.0782 93.1257 78.0956L93.0271 79.4876Z" fill="white"/>
<path d="M95.8053 81.0013L95.4457 82.1903L94.5873 82.1207L96.0837 77.498L97.1741 77.5851L97.9339 82.3875L97.0407 82.3179L96.8551 81.0883L95.8053 81.0013ZM96.7971 80.2821L96.6463 79.2613C96.6057 78.9771 96.5651 78.6233 96.5361 78.3391H96.5245C96.4491 78.6117 96.3621 78.9655 96.2809 79.2323L95.9851 80.2125L96.7971 80.2821Z" fill="white"/>
<path d="M98.7111 77.4401C98.5023 77.4227 98.3631 77.1907 98.3805 76.9297C98.4037 76.6571 98.5894 76.4599 98.804 76.4831C99.007 76.5005 99.1403 76.7267 99.1171 76.9993C99.0939 77.2545 98.9199 77.4575 98.7111 77.4401ZM99.6682 77.7939L99.2563 82.5093L98.4269 82.4339L98.8388 77.7243L99.6682 77.7939ZM99.8363 77.5387C99.6217 77.5213 99.4883 77.2893 99.5057 77.0283C99.5289 76.7557 99.703 76.5585 99.9234 76.5817C100.132 76.5991 100.271 76.8253 100.242 77.0979C100.225 77.3531 100.051 77.5561 99.8363 77.5387Z" fill="white"/>
<path d="M101.252 77.9389L101.078 79.7485L102.441 79.8761L102.615 78.0665L103.438 78.1419L102.992 82.8457L102.168 82.7703L102.354 80.7983L100.991 80.6707L100.805 82.6427L99.9755 82.5615L100.422 77.8577L101.252 77.9389Z" fill="white"/>
<path d="M104.975 78.3101L104.83 79.7021C104.749 80.4561 104.662 81.1985 104.563 81.8249H104.587C104.836 81.2913 105.143 80.6997 105.416 80.2183L106.396 78.4551L107.243 78.5421L106.75 83.2401L105.99 83.1589L106.135 81.7727C106.211 81.0477 106.292 80.4097 106.402 79.8007H106.385C106.158 80.3401 105.857 80.9375 105.59 81.4073L104.668 83.0255L103.722 82.9269L104.215 78.2289L104.975 78.3101Z" fill="white"/>
<path d="M47.456 70.7119L47.485 71.1701L46.0234 71.2629L46.093 72.4055C46.1974 72.3823 46.4004 72.3533 46.5106 72.3475C46.8296 72.3243 47.1544 72.3939 47.4038 72.5795C47.6706 72.7709 47.8678 73.0957 47.9026 73.5945C47.9258 73.9947 47.8388 74.3021 47.6764 74.5341C47.4212 74.8937 46.9746 75.0561 46.5106 75.0851C46.2032 75.1026 45.9712 75.0967 45.8262 75.0793L45.5594 70.8337L47.456 70.7119ZM46.238 74.6385C46.3424 74.6559 46.4584 74.6559 46.6092 74.6443C46.8818 74.6269 47.1486 74.4993 47.3052 74.2731C47.4096 74.1165 47.4676 73.9019 47.4502 73.6351C47.427 73.3045 47.3052 73.0899 47.1312 72.9565C46.9456 72.8173 46.7136 72.7651 46.4758 72.7825C46.3772 72.7883 46.238 72.8115 46.1278 72.8289L46.238 74.6385Z" fill="white"/>
<path d="M50.5881 70.538L50.8201 74.7952L50.3792 74.8184L50.1704 71.0194L49.051 71.0832L49.1206 72.3708C49.1728 73.293 49.1961 74.3254 48.7437 74.7546C48.6219 74.8648 48.4304 74.975 48.239 74.9866L48.1579 74.5458C48.2913 74.5052 48.4246 74.4066 48.5 74.2964C48.7552 73.9484 48.7321 73.119 48.6973 72.4346L48.5987 70.6424L50.5881 70.538Z" fill="white"/>
<path d="M52.0729 73.3916L51.7829 74.7488L51.3305 74.772L52.2875 70.4568L52.8153 70.4336L54.1725 74.6444L53.7027 74.6676L53.2793 73.3452L52.0729 73.3916ZM53.1633 72.9102L52.7747 71.698C52.6877 71.4254 52.6239 71.1702 52.5601 70.9266H52.5485C52.5079 71.1818 52.4673 71.4428 52.4151 71.7038L52.1367 72.9508L53.1633 72.9102Z" fill="white"/>
<path d="M56.3069 70.2886L56.3243 70.7526L54.9613 70.8048L55.1063 74.6096L54.6713 74.627L54.5089 70.364L56.3069 70.2886Z" fill="white"/>
<path d="M59.4969 72.2838C59.5433 73.7512 58.859 74.5516 57.9889 74.5748C57.0899 74.6038 56.4345 73.7454 56.3939 72.4578C56.3533 71.1064 56.9971 70.1958 57.9019 70.1726C58.8299 70.1436 59.4563 71.0194 59.4969 72.2838ZM56.8637 72.4346C56.8927 73.3452 57.3103 74.1514 58.0005 74.1282C58.6965 74.105 59.0619 73.293 59.0329 72.3244C59.0097 71.4776 58.6269 70.6018 57.8961 70.625C57.1711 70.6424 56.8347 71.495 56.8637 72.4346Z" fill="white"/>
<path d="M62.2578 70.1321L62.339 73.9485L62.6347 73.9543V75.4159L62.2925 75.4217L62.2403 74.3951L60.1001 74.4415L60.0943 75.4681L59.7521 75.4739L59.6941 74.0123L59.9493 73.9949C60.0711 73.6991 60.1871 73.3859 60.2625 73.0495C60.3669 72.5507 60.4017 71.9823 60.3843 71.2515L60.3611 70.1669L62.2578 70.1321ZM60.7961 71.4255C60.8135 72.1099 60.7729 72.6841 60.6627 73.1713C60.5989 73.4729 60.5003 73.7571 60.4017 73.9891L61.904 73.9601L61.8343 70.6077L60.7845 70.6309L60.7961 71.4255Z" fill="white"/>
<path d="M63.5743 70.1146L63.6382 74.3777L63.2032 74.3835L63.1393 70.1204L63.5743 70.1146Z" fill="white"/>
<path d="M64.7866 70.0915L64.804 71.8895C64.8098 72.5623 64.804 73.1249 64.7808 73.6933L64.7924 73.6991C64.9606 73.2525 65.1694 72.7885 65.4072 72.2781L66.486 70.0683L66.921 70.0625L66.9558 74.3313L66.544 74.3371L66.5266 72.5159C66.5208 71.8257 66.5208 71.3211 66.5498 70.7817L66.5324 70.7759C66.37 71.2457 66.1438 71.7445 65.9176 72.2201L64.8736 74.3545L64.4038 74.3604L64.369 70.0915H64.7866ZM65.3376 69.1867C65.3608 69.3897 65.413 69.5869 65.6508 69.5811C65.8828 69.5811 65.935 69.3897 65.9524 69.1809H66.2888C66.2656 69.6043 66.0684 69.8653 65.6391 69.8711C65.2273 69.8769 65.0302 69.6101 65.0012 69.1925L65.3376 69.1867Z" fill="white"/>
<path d="M68.1738 70.0741V71.8605H69.8152V70.0741H70.256L70.2502 74.3429H69.8094V72.3419H68.168V74.3429H67.733L67.7388 70.0741H68.1738Z" fill="white"/>
<path d="M71.4682 70.08L71.4508 71.878C71.445 72.5508 71.4276 73.1134 71.3928 73.6818L71.4044 73.6876C71.5784 73.2468 71.793 72.7828 72.0482 72.2782L73.1676 70.0916L73.6026 70.0974L73.562 74.3662L73.1502 74.3604L73.1676 72.5392C73.1734 71.849 73.185 71.3386 73.2256 70.805L73.2082 70.7992C73.04 71.269 72.8022 71.7562 72.5644 72.2318L71.4798 74.343L71.01 74.3372L71.0506 70.0684L71.4682 70.08Z" fill="white"/>
<path d="M74.809 70.1321L74.7742 71.9301C74.7626 72.6029 74.7394 73.1655 74.6988 73.7339L74.7104 73.7397C74.8902 73.2989 75.1106 72.8407 75.3658 72.3419L76.5084 70.1669L76.9492 70.1727L76.868 74.4357L76.4562 74.4299L76.491 72.6145C76.5026 71.9243 76.52 71.4197 76.5664 70.8803L76.5491 70.8745C76.3751 71.3385 76.1314 71.8315 75.8936 72.3013L74.7916 74.4009L74.3218 74.3893L74.403 70.1263L74.809 70.1321ZM75.3832 69.2447C75.4006 69.4477 75.447 69.6449 75.6848 69.6507C75.9168 69.6565 75.9748 69.4651 75.998 69.2563L76.3344 69.2621C76.2996 69.6855 76.0966 69.9407 75.6674 69.9349C75.2556 69.9291 75.0642 69.6565 75.0468 69.2389L75.3832 69.2447Z" fill="white"/>
<path d="M80.5105 70.1029L80.4989 70.4799C81.2123 70.5437 81.9083 71.1121 81.8619 72.4519C81.8155 73.7917 81.0847 74.2847 80.3597 74.3079L80.3481 74.7081L79.9247 74.6965L79.9363 74.2963C79.2287 74.2151 78.5269 73.7163 78.5675 72.3707C78.6139 70.9729 79.4143 70.4973 80.0755 70.4683L80.0871 70.0913L80.5105 70.1029ZM80.0581 70.8685C79.6115 70.8859 79.0605 71.2513 79.0257 72.3591C78.9909 73.3799 79.4607 73.8265 79.9595 73.9019L80.0581 70.8685ZM80.3771 73.9193C80.8643 73.8845 81.3747 73.4901 81.4095 72.4345C81.4443 71.3383 80.9687 70.9323 80.4815 70.8859L80.3771 73.9193Z" fill="white"/>
<path d="M85.3477 72.5623C85.2839 74.0297 84.5415 74.7779 83.6773 74.7373C82.7783 74.6967 82.1867 73.7977 82.2447 72.5043C82.3027 71.1529 83.0103 70.2945 83.9209 70.3351C84.8431 70.3757 85.4057 71.2979 85.3477 72.5623ZM82.7145 72.5159C82.6739 73.4265 83.0335 74.2617 83.7237 74.2907C84.4197 74.3197 84.8489 73.5367 84.8895 72.5681C84.9243 71.7213 84.6111 70.8165 83.8803 70.7875C83.1495 70.7527 82.7551 71.5763 82.7145 72.5159Z" fill="white"/>
<path d="M86.4903 70.5206L86.3975 72.307L88.0389 72.3941L88.1317 70.6076L88.5725 70.6308L88.3463 74.8939L87.9055 74.8707L88.0099 72.8697L86.3685 72.7827L86.2641 74.7837L85.8291 74.7605L86.0553 70.4974L86.4903 70.5206Z" fill="white"/>
<path d="M91.6813 70.828L91.4436 74.6387L91.7393 74.6677L91.6176 76.1235L91.2753 76.1003L91.3101 75.0737L89.1757 74.9403L89.0829 75.9611L88.7407 75.9379L88.8045 74.4763L89.0597 74.4821C89.2047 74.1979 89.3497 73.8963 89.4483 73.5657C89.5933 73.0785 89.6745 72.5159 89.7209 71.7792L89.7905 70.7004L91.6813 70.828ZM90.1153 71.9939C90.0747 72.6783 89.9877 73.2467 89.8369 73.7223C89.7499 74.0123 89.6223 74.2907 89.5121 74.5169L91.0086 74.6097L91.2174 71.263L90.1675 71.1992L90.1153 71.9939Z" fill="white"/>
</svg>
