<svg viewBox="0 0 578 368" fill="none" xmlns="http://www.w3.org/2000/svg">
<path d="M375.523 113.018L355.594 138.987C355.594 138.987 532.969 139.966 538.739 139.966C565.682 139.966 577.941 114.267 577.941 114.267L375.523 113.018Z" fill="#0093D6"/>
<path d="M111.997 300.043C111.997 300.043 221.935 289.011 272.923 289.011C323.911 289.011 467.898 300.043 467.898 300.043V364.336C467.898 364.336 362.189 353.493 305.769 353.493C249.347 353.493 110.856 364.336 110.856 364.336L111.997 300.043Z" fill="white"/>
<path d="M326.975 58.7885C327.039 57.3183 326.833 55.9611 327.989 55.6003C327.989 55.6003 332.831 56.3194 330.845 56.6213C328.857 56.9207 326.87 61.552 326.87 61.552C326.87 61.552 326.97 58.9185 326.975 58.7885Z" fill="white"/>
<path d="M326.594 77.0828C327.016 75.5586 327.485 74.0443 327.829 72.503C328.113 71.2219 328.14 69.9579 327.853 68.6056C327.49 66.9023 327.686 65.1131 328.332 63.4418C328.523 62.9411 328.842 62.4821 329.466 62.5288C330.077 62.5803 330.381 63.0589 330.447 63.5915C330.568 64.5486 330.585 65.5181 330.632 66.2298C330.261 70.2672 329.792 74.0149 328.511 77.6104C327.998 79.0462 327.424 79.6082 326.876 79.218C326.057 78.6363 326.386 77.8436 326.594 77.0828Z" fill="white"/>
<path d="M251.497 79.3813C251.399 79.6832 251.181 79.9948 250.928 80.1765C250.781 80.2795 250.393 80.2182 250.231 80.0857C249.833 79.7568 249.404 79.4009 249.166 78.9567C248.628 77.9578 248.049 76.9417 247.745 75.8569C246.719 72.2123 246.049 68.5014 246.176 64.6849C246.189 64.3364 246.247 63.9854 246.333 63.6467C246.481 63.0405 247.349 62.7853 247.816 63.2074C248.417 63.7547 248.822 64.4199 248.923 65.2445C249.04 66.2041 249.144 67.1638 249.283 68.4081C249.278 68.4768 249.323 68.845 249.222 69.1714C248.282 72.2074 249.34 74.8752 250.702 77.4866C250.906 77.8743 251.166 78.2327 251.352 78.6278C251.458 78.8585 251.566 79.1677 251.497 79.3813Z" fill="white"/>
<path d="M251.046 62.9999C250.413 62.9852 246.918 58.9847 247.029 58.3637C247.11 57.8901 248.806 56.8494 249.279 56.8421C249.922 56.8298 250.575 57.6422 251.046 59.0019C251.518 60.364 251.864 63.0171 251.046 62.9999Z" fill="white"/>
<path d="M255.918 31.4147C256.526 26.6165 257.38 21.8601 258.833 17.2484C259.476 15.2114 260.6 13.4418 262.424 12.2073C263.725 11.3287 264.969 10.3641 266.272 9.48793C269.35 7.43122 272.764 6.14271 276.283 5.107C277.952 4.61614 279.634 4.17191 281.28 3.6246C282.726 3.1411 284.159 3.0822 285.656 3.27609C287.205 3.47734 288.771 3.52888 290.329 3.66632C292.58 3.87003 294.838 4.01238 297.071 4.33144C299.01 4.60878 300.593 5.57332 301.987 7.05571C306.174 11.5103 307.976 16.8435 308.103 22.8712C308.118 23.4848 308.106 24.1008 308.106 24.7169H308.089C308.089 26.1232 308.145 27.5344 308.072 28.9358C307.998 30.4305 307.269 30.887 305.777 30.4796C303.43 29.8341 301.052 29.2819 298.753 28.4891C294.902 27.1638 290.928 26.8619 286.925 26.7687C283.094 26.6828 279.275 26.9012 275.483 27.5049C275.312 27.5344 275.13 27.5221 274.965 27.5737C270.901 28.845 266.81 30.0402 262.988 31.9791C261.202 32.8872 259.442 33.8395 257.665 34.7672C257.513 34.8482 257.349 34.9071 257.184 34.966C256.364 35.2581 255.734 34.8752 255.748 34.0432C255.765 33.167 255.807 32.2835 255.918 31.4147Z" fill="white"/>
<path d="M252.32 49.5009C251.915 49.0615 251.874 48.5216 252.104 48.0307C252.401 47.4024 252.755 46.7766 253.197 46.244C256.348 42.4546 259.808 38.9474 263.905 36.2403C268.534 33.1822 273.629 31.0813 279.148 30.3352C281.112 30.0702 289.81 29.5965 296.297 31.9845C302.786 34.3774 304.759 35.6169 310.117 39.0897C310.995 39.6591 315.305 43.1074 316.137 43.7406C317.678 44.9187 319.254 46.001 321.186 46.4182C321.434 46.4747 321.721 46.5557 321.893 46.725C322.059 46.8895 322.194 47.1914 322.17 47.4147C322.148 47.6356 321.956 47.9424 321.76 48.0209C321.377 48.1804 320.911 48.3449 320.53 48.2639C319.686 48.0872 318.839 47.8344 318.056 47.4761C317.269 47.1104 316.525 46.6269 315.823 46.1115C306.318 39.1437 304.384 38.7216 301.333 37.1974C298.28 35.6758 294.269 34.3038 289.999 33.4178C283.853 32.2054 275.41 33.5994 271.808 35.0622C267.191 36.9397 263.387 39.9536 259.759 43.289C258.206 44.7199 256.748 46.1974 255.604 47.9964C255.192 48.6443 254.596 49.199 253.994 49.6874C253.489 50.0972 252.725 49.9426 252.32 49.5009Z" fill="white"/>
<path d="M253.278 66.8078C252.566 60.3775 257.573 50.4695 257.573 50.4695C257.833 49.932 264.258 44.4859 276.699 42.3335C289.849 40.0608 296.37 41.1431 302.408 41.7714C313.843 42.9593 320.791 54.2466 320.791 54.2466C320.791 54.2466 324.88 64.6308 324.342 68.8424C322.85 80.5494 323.736 88.4375 320.894 99.1874C319.895 102.969 314.94 106.408 308.217 111.532C303.701 114.971 299.937 119.521 289.849 119.521C281.436 119.519 277.737 117.425 271.481 111.852C264.759 105.861 258.245 100.429 257.075 97.0865C255.123 91.5029 254.665 79.337 253.278 66.8078Z" fill="white"/>
<path d="M307.553 129.603C307.776 132.595 306.34 134.905 304.426 136.873C301.805 139.568 296.27 144.982 294.314 150.362C292.552 155.207 290.883 159.163 288.083 159.17C286.06 159.175 277.591 146.533 274.616 143.036C272.064 140.029 269.008 137.511 266.622 134.353C266.411 134.07 266.225 133.768 265.984 133.518C262.708 130.109 261.736 125.993 262.303 121.391C262.453 120.172 262.521 118.942 262.656 117.72C262.722 117.114 262.786 116.488 262.978 115.913C263.55 114.188 264.902 113.746 266.475 114.674C267.977 115.555 277.2 124.015 288.679 124.17C300.158 124.327 301.169 121.961 305.111 121.148C305.366 121.094 305.621 121.04 305.881 121.006C306.9 120.878 307.401 121.207 307.482 122.226C307.617 123.89 307.666 125.564 307.725 126.727C307.641 128.023 307.494 128.823 307.553 129.603Z" fill="white"/>
<path d="M170.609 215.31C170.94 211.982 171.283 208.652 171.698 205.334C172.498 198.957 173.041 178.037 181.052 162.761C183.957 157.219 187.958 152.645 193.512 149.758C202.222 145.23 240.956 137.266 241.238 137.367C241.604 137.499 241.388 139.696 241.344 140.037C241.015 142.479 240.698 144.921 240.32 147.358C239.952 149.724 240.127 156.851 240.298 158.118C240.502 159.62 241.128 160.489 242.799 160.196C247.455 158.503 245.835 159.433 256.727 152.858C257.829 152.485 258.664 153.3 259.437 153.901C260.264 154.544 261.155 155.111 261.97 155.769C263.568 157.065 265.435 157.799 267.355 158.38C268.16 158.623 269.068 158.572 269.927 158.55C270.209 158.542 270.481 158.206 270.717 158.049C270.695 157.855 270.715 157.75 270.67 157.683C268.14 153.747 265.151 150.252 261.322 147.515C259.329 146.089 257.358 145.998 255.181 146.987C252.847 148.05 250.822 149.535 248.942 151.255C247.912 152.2 246.918 153.194 245.835 154.078C245.479 154.365 244.861 154.539 244.424 154.453C243.855 154.343 243.747 153.715 243.779 153.16C244.09 147.891 244.218 142.604 245.347 137.418C246.032 134.267 247.553 131.506 249.286 128.848C250.69 126.7 252.442 124.864 254.45 123.291C254.676 123.112 255.144 123.031 255.385 123.149C255.623 123.269 255.841 123.691 255.846 123.983C255.859 124.771 255.787 125.569 255.684 126.352C255.358 128.818 256.202 130.843 257.908 132.559C258.156 132.809 258.374 133.101 258.659 133.29C261.555 135.229 271.559 146.177 273.466 149.866C275.454 153.71 282.687 168.411 283.813 169.957C284.937 171.503 286.807 174.755 288.14 174.559C289.47 174.365 291.598 170.551 292.894 167.584C294.386 164.155 298.389 152.507 304.243 145.419C309.07 138.797 316.22 133.567 318.367 131.022C319.582 129.579 320.252 127.895 320.476 125.996C320.586 125.056 320.895 124.126 321.217 123.227C321.398 122.714 322.164 122.606 322.544 122.994C322.969 123.426 323.362 123.905 323.705 124.405C325.009 126.307 325.794 128.462 326.577 130.61C326.813 131.253 326.803 131.987 326.881 132.681C327.235 135.764 326.729 138.832 326.697 141.907C326.663 144.987 326.557 147.135 326.368 150.207C326.29 151.513 326.003 153.754 325.725 155.033C325.541 155.865 324.658 156.292 323.858 155.992C323.298 155.781 320.986 154.279 320.304 153.886C312.779 149.555 309.512 149.405 307.659 149.643C306.565 149.783 305.602 149.903 304.886 150.73C304.427 151.255 303.951 152.08 303.681 152.708C302.812 154.718 302.046 156.77 301.251 158.812C301.19 158.969 300.483 160.896 301.143 161.043C301.803 161.188 303.212 159.549 303.521 159.247C304.152 158.638 306.579 156.638 307.158 156.328C309.583 155.025 311.959 155.492 314.273 156.751C318.188 158.881 322.068 161.058 325.639 163.758C326.744 164.592 327.87 165.412 329.051 165.824C329.9 165.441 330.077 164.855 330.131 164.226C330.403 160.982 330.663 157.74 330.926 154.495C330.955 154.144 331.77 138.167 331.809 137.909C331.964 136.886 332.61 136.512 333.697 136.728C337.194 137.435 340.67 138.395 344.204 138.736C348.734 139.173 358.088 139.966 370.467 143.144C382.849 146.325 390.958 153.175 395.393 167.368C399.828 181.561 403.478 201.122 404.229 205.093C404.795 208.107 404.987 211.197 405.323 214.255C405.37 214.687 405.328 215.143 405.24 215.566C405.056 216.434 404.449 216.785 403.252 216.901C400.307 217.193 357.99 223.957 357.032 223.78C354.431 223.297 349.341 205.191 349.196 204.892C349.058 204.612 348.754 204.278 348.486 204.239C348.231 204.205 347.819 204.455 347.669 204.698C347.448 205.054 347.345 205.513 347.286 205.94C346.771 209.599 346.199 213.251 345.799 216.923C345.524 219.485 345.374 221.998 342.056 221.007C341.973 220.985 336.843 220.108 334.362 219.718C331.441 219.257 328.494 218.896 325.544 218.682C319.116 218.216 298.082 216.304 293.991 216.221C287.018 216.076 280.041 215.286 273.071 215.111C268.459 214.994 252.722 213.928 250.646 213.695C244.667 213.03 238.703 212.24 232.663 212.561C231.19 212.64 225.798 201.951 224.954 199.806C224.76 199.32 224.515 198.835 224.186 198.439C224.002 198.219 223.565 198.047 223.302 198.108C223.023 198.174 222.654 198.515 222.605 198.79C222.463 199.559 222.375 200.361 222.436 201.139C222.532 202.361 223.769 220.29 223.678 220.805C223.516 221.728 222.696 222.15 222.021 222.101C200.522 222.246 176.494 219.907 174.405 219.868C172.822 219.841 170.844 219.556 170.636 217.946C170.523 217.082 170.523 216.182 170.609 215.31Z" fill="white"/>
<path d="M297.513 267.011L259.972 276.762C237.275 282.46 213.244 283.526 203.511 282.389C193.779 281.248 192.839 280.804 187.442 280.495C185.452 280.379 183.476 279.969 181.503 279.641C180.534 279.481 179.716 279.027 179.157 278.134C178.322 276.796 171.426 267.965 170.208 254.373C170.208 247.705 170.846 230.626 170.937 228.611C170.989 227.474 171.504 226.77 172.456 226.387C173.09 226.134 173.806 225.918 174.471 225.953C185.531 226.549 210.272 226.309 211.576 226.409C212.69 226.495 213.826 226.556 215.024 227.222C214.776 227.607 214.634 228.041 214.339 228.223C213.991 228.439 213.507 228.434 213.087 228.537C210.292 229.212 207.494 229.862 204.713 230.584C203.972 230.775 203.216 231.087 202.588 231.524C201.591 232.219 201.645 233.507 202.664 234.16C203.084 234.432 203.624 234.602 204.117 234.629C204.716 234.663 205.327 234.516 205.931 234.42C209.556 233.838 213.21 233.716 216.872 233.642C219.238 233.595 221.569 233.941 223.859 234.489C226.488 235.115 229.139 235.564 231.809 235.978C235.417 236.541 238.99 237.368 242.544 238.229C247.195 239.356 251.804 240.669 256.45 241.827C256.45 241.827 271.51 246.915 278.728 250.643C285.946 254.373 289.08 256.83 293.699 260.735C295.483 262.247 296.931 264.161 298.414 265.764C298.477 266.655 298.107 266.976 297.513 267.011Z" fill="white"/>
<path d="M407.366 254.373C407.272 262.308 401.063 273.853 399.949 275.472C399.357 276.331 398.945 277.321 398.471 278.261C397.477 280.236 396.012 281.375 393.698 281.238C390.482 281.046 387.262 280.911 384.045 280.791C379.08 280.604 348.359 279.905 321.364 268.365C297.722 258.256 272.62 240.528 268.749 238.157C267.264 237.247 265.89 236.147 264.491 235.099C263.693 234.505 263.215 233.676 262.962 232.709C262.783 232.029 262.633 231.329 262.356 230.691C261.946 229.744 260.714 229.462 259.943 230.159C259.509 230.551 259.172 231.099 258.92 231.636C258.743 232.017 258.775 232.495 258.726 232.932C258.493 235.048 258.156 235.359 256.308 234.64C253.82 233.671 233.878 231.813 232.781 231.55C229.939 230.873 228.273 227.638 229.429 224.931C230.484 222.455 232.025 220.388 234.568 219.203C237.771 217.708 241.084 216.751 244.631 216.726C246.547 216.714 248.469 216.635 250.381 216.748C252.462 216.871 254.541 217.119 256.608 217.421C258.586 217.71 260.581 218.007 262.503 218.542C264.965 219.232 267.446 219.404 269.974 219.546C276.495 219.907 283.006 220.413 289.517 220.894C294.905 221.294 300.287 221.74 305.669 222.17C311.14 222.609 316.603 223.083 322.015 224.047C324.155 224.428 326.329 224.634 328.499 224.821C331.375 225.068 348.57 228.465 352.077 229.121C353.945 229.471 373.813 234.554 377.288 235.71C377.865 235.904 378.434 236.145 379.026 236.275C380.167 236.523 381.674 235.664 381.821 233.975C381.971 232.242 379.652 231.04 377.794 230.299C377.087 230.016 376.13 229.668 376.213 228.757C376.316 227.591 377.079 227.39 377.857 227.221C383.652 225.972 389.955 225.547 395.843 224.936C398.864 224.622 401.924 224.695 405.338 224.583C405.557 225.726 405.922 230.063 406.104 231.28C407.294 239.286 407.451 247.064 407.366 254.373Z" fill="white"/>
<path d="M465.151 361.931L464.608 361.867C348.515 347.934 230.785 347.929 114.689 361.85L114.147 361.913V301.4L114.576 301.351C230.748 288.093 348.554 288.098 464.721 301.368L465.151 301.417V361.931ZM108.843 298.389V367.978C229.283 351.64 350.015 351.647 470.455 368V298.408C350.034 282.841 229.263 282.836 108.843 298.389Z" fill="#313F60"/>
<path d="M115.116 302.265V360.82C172.998 353.901 231.285 350.443 289.575 350.443C347.918 350.443 406.245 353.908 464.183 360.837V302.282C348.367 289.085 230.934 289.078 115.116 302.265Z" fill="#313F60"/>
<path d="M218.465 80.6185C218.327 80.4246 218.178 80.2307 218.006 80.0417C217.709 79.7128 217.41 79.3889 217.11 79.0624C216.676 78.5716 216.231 78.0881 215.77 77.6218C215.623 77.4696 215.48 77.315 215.336 77.1628C213.461 75.192 211.166 75.0104 209.121 76.802C205.084 80.3436 201.071 83.9146 197.139 87.5641C197.054 87.6451 196.973 87.7654 196.899 87.9151C195.169 89.6822 195.208 91.8223 196.916 93.7588C196.953 93.8005 196.992 93.8422 197.031 93.884C197.476 94.419 197.947 94.9319 198.426 95.4375C198.799 95.8499 199.174 96.2597 199.552 96.6671C201.275 98.5201 203.557 98.8294 205.462 97.2046C209.742 93.5551 213.959 89.8319 218.119 86.0523C219.79 84.5331 219.832 82.3389 218.465 80.6185Z" fill="#313F60"/>
<path d="M182.757 46.6508C178.357 42.0563 171.9 35.977 167.344 31.2255C166.949 30.8107 166.539 30.4082 166.147 29.991C160.175 23.627 151.411 22.4563 143.759 26.9697C139.876 29.2596 137.149 32.5974 134.501 35.9942C130.486 41.1433 125.248 48.0988 122.679 54.0431C122.259 55.0175 121.959 56.0385 121.609 57.0374C120.941 58.9517 122.259 61.3005 122.929 62.0147C123.601 62.7289 127.072 66.4202 127.072 66.4202C127.072 66.4202 133.917 60.7016 137.237 57.9013C140.828 54.8751 146.12 50.3003 149.71 47.2742C150.189 46.8717 150.707 46.4937 151.261 46.1845C152.925 45.2592 154.027 45.3893 155.286 46.7882C158.772 50.6488 167.568 59.9727 167.568 59.9727C167.568 59.9727 177.704 51.0022 182.757 46.6508Z" fill="#313F60"/>
<path d="M215.517 111.357C219.716 115.77 220.929 116.931 223.984 120.232C225.02 121.373 226.318 121.822 227.798 121.493C230.761 120.838 232.682 118.943 233.666 116.136C234.211 114.582 233.794 113.166 232.67 111.929C226.539 105.199 214.437 91.8502 214.437 91.8502L209.425 96.4447C209.425 96.4447 215.456 110.019 215.517 111.357Z" fill="#313F60"/>
<path d="M432.274 52.4539C425.932 57.0385 411.287 68.8314 410.217 69.634C408.777 70.7114 408.33 72.2576 409.263 73.6345C413.57 79.4659 420.405 88.0265 422.275 90.5569C422.275 90.5569 437.593 64.4996 437.399 54.8738C436.901 51.936 434.225 51.0426 432.274 52.4539Z" fill="#313F60"/>
<path d="M412.878 96.1709L409.415 99.7444C408.848 100.331 407.906 100.346 407.319 99.7812C406.735 99.2118 406.72 98.2669 407.287 97.6828L410.748 94.1068C411.317 93.5227 412.26 93.508 412.844 94.0749C413.43 94.6419 413.445 95.5868 412.878 96.1709ZM403.441 94.767C402.857 94.1976 402.842 93.2576 403.409 92.6686L406.87 89.0952C407.437 88.511 408.379 88.4939 408.966 89.0632C409.552 89.6277 409.567 90.5726 409 91.1568L405.537 94.7327C404.97 95.3168 404.028 95.3315 403.441 94.767ZM399.563 89.7529C398.979 89.186 398.965 88.2435 399.532 87.6569L402.992 84.081C403.559 83.4969 404.502 83.4797 405.088 84.0491C405.675 84.6161 405.689 85.5585 405.122 86.1451L401.659 89.7185C401.093 90.3051 400.15 90.3199 399.563 89.7529ZM423.054 96.2838L392.306 56.0529C392.311 55.2921 392.716 54.681 393.585 54.0649C396.407 52.0622 420.128 33.9642 424.548 30.5503C423.351 26.0883 416.947 26.0613 411.518 26.7387C401.264 28.0199 390.966 29.2863 380.854 31.3896C372.652 33.0978 368.377 38.7059 367.557 47.1217C366.568 57.2678 365.878 68.2189 364.546 78.333C363.313 87.6888 359.379 100.616 350.571 114.163C348.855 116.802 343.097 124.562 335.285 134.907C336.029 135.042 336.782 135.211 337.563 135.391C337.997 135.491 351.258 137.683 360.994 139.293C380.997 113.371 387.113 111.832 407.162 107.041C409.275 106.538 411.359 105.902 413.423 105.22C421.404 102.579 425.307 99.2903 423.414 96.755C423.301 96.6053 423.181 96.4458 423.054 96.2838Z" fill="#313F60"/>
<path d="M167.461 225.019C168.821 225 168.035 221.723 167.488 219.875L106.504 220.634C106.504 220.634 118.76 246.335 145.704 246.335C148.524 246.335 156.836 246.21 167.341 246.028C167.093 236.162 166.892 225.029 167.461 225.019Z" fill="#FFCC2A"/>
<path d="M168.203 209.313C169.077 201.982 170.316 191.655 171.33 183.32L71.7075 184.299C71.7075 184.299 83.9667 209.998 110.908 209.998C115.441 209.998 141.235 209.672 168.203 209.313Z" fill="#FFCC2A"/>
<path d="M173.958 276.555C172.809 272.032 167.682 259.156 167.682 259.156C167.665 258.219 167.633 256.94 167.594 255.44L150.639 255.76C150.639 255.76 158.604 272.407 175.766 278.899C174.802 278 174.115 277.178 173.958 276.555Z" fill="#FFCC2A"/>
<path d="M172.478 174.042C172.834 171.23 173.072 169.436 173.121 169.288C174.444 165.339 176.508 161.317 179.61 156.637C180.493 155.301 181.635 154.037 182.825 152.749C183.841 151.652 186.46 149.254 186.46 149.254C186.88 148.871 187.699 148.456 188.644 148.054L36.4456 149.281C36.4456 149.281 48.7049 174.982 75.6457 174.982C81.244 174.982 130.178 174.487 172.478 174.042Z" fill="#0093D6"/>
<path d="M404.844 186.745C404.915 187.268 407.364 200.943 408.685 209.3C435.957 209.666 462.248 210 466.827 210C493.768 210 506.027 184.298 506.027 184.298L404.012 183.297C404.454 184.934 404.768 186.2 404.844 186.745Z" fill="#FFCC2A"/>
<path d="M409.633 257.898C409.321 259.089 405.951 271.402 403.792 278.124C419.678 271.188 427.098 255.761 427.098 255.761L409.876 255.437C409.817 256.603 409.738 257.489 409.633 257.898Z" fill="#FFCC2A"/>
<path d="M386.436 148.032C392.051 151.829 394.743 157.412 398.3 164.959C398.756 165.926 400.01 169.777 401.304 174.001C444.45 174.455 496.317 174.98 502.09 174.98C529.03 174.98 541.29 149.281 541.29 149.281L386.436 148.032Z" fill="#0093D6"/>
<path d="M192.486 113.018L209.423 138.987C209.423 138.987 44.9726 139.966 39.2001 139.966C12.2592 139.966 0 114.267 0 114.267L192.486 113.018Z" fill="#0093D6"/>
<path d="M409.484 227.706C409.703 229.92 409.958 238.517 410.002 246.02C420.688 246.204 429.177 246.334 432.032 246.334C458.975 246.334 471.232 220.633 471.232 220.633L409.452 219.867C409.442 223.249 409.457 227.436 409.484 227.706Z" fill="#FFCC2A"/>
<path d="M281.01 56.6333C278.514 56.6799 276.32 56.2111 274.108 56.1915C271.843 56.1743 269.566 56.0737 267.31 56.2406C265.077 56.405 262.865 56.8542 260.539 57.1953C260.2 56.9229 260.382 56.5081 260.598 56.1326C262.306 53.1384 264.922 51.8057 268.348 51.8204C270.969 51.8302 273.551 52.0585 276.153 52.3947C278.649 52.7162 280.124 53.9065 281.01 56.6333Z" fill="#313F60"/>
<path d="M282.182 102.644C286.344 103.518 291.634 103.295 295.855 102.644C298.358 102.262 297.239 98.4157 294.738 98.801C291.172 99.3458 286.816 99.5348 283.299 98.7985C280.886 98.2929 279.779 102.141 282.182 102.644Z" fill="#313F60"/>
<path d="M308.424 93.1989C308.331 92.389 307.438 91.3189 306.628 91.0048C306.444 91.0048 306.21 90.9312 306.08 91.0171C303.673 92.6222 300.62 92.7989 297.942 92.5731C297.471 92.5338 297.004 92.3645 296.548 92.2197C294.395 91.53 292.341 91.1987 290.142 92.281C290.054 92.3227 289.965 92.3497 289.875 92.3866C289.789 92.3497 289.698 92.3227 289.61 92.281C287.411 91.2011 285.359 91.53 283.206 92.2221C282.75 92.3669 282.284 92.5338 281.81 92.5755C279.132 92.8013 275.564 92.5436 273.887 91.0637C272.211 89.5813 271.382 92.1878 271.288 92.9977C271.193 93.8321 271.251 94.9366 271.953 95.6385C275.019 94.5316 275.596 94.5856 279.076 95.2409C280.129 95.4372 281.199 95.587 282.266 95.636C284.561 95.7244 285.71 95.7539 288.007 95.7882V95.8103C288.753 95.8103 289.129 95.8103 289.877 95.8054C290.626 95.8103 290.999 95.8103 291.747 95.8103V95.7882C294.045 95.7539 295.191 95.7219 297.485 95.6336C298.556 95.5845 299.626 95.4348 300.676 95.2385C304.159 94.5832 304.735 94.5292 307.798 95.6336C308.5 94.9317 308.52 94.0334 308.424 93.1989Z" fill="#313F60"/>
<path d="M315.708 56.4778C314.719 53.486 312.144 52.1067 308.134 51.9128C305.066 51.7631 301.515 51.6919 298.602 52.519C296.55 53.1007 294.532 54.507 293.151 58.6793C293.151 58.6793 292.601 59.4009 292.844 64.0469C293.084 68.6904 295.352 77.1528 295.669 77.872C296.108 78.8733 296.253 79.9458 295.836 80.9546C295.421 81.9608 293.227 82.5253 292.031 83.3352C290.475 84.3881 287.651 84.5918 285.751 83.5193C282.511 81.6859 279.893 83.5929 280.18 79.4206C278.251 78.4217 278.344 83.1732 280.486 84.4298C282.204 85.4361 283.022 85.3478 286.085 86.759C288.517 87.991 290.696 87.4462 291.83 86.9381C295.502 85.2938 299.566 83.858 298.84 81.1754C295.524 68.9039 294.891 66.4889 295.173 61.0845C295.269 59.2634 296.378 57.759 298.153 57.1503C299.925 56.5441 299.925 56.5441 301.559 56.3355C302.187 56.2569 303.029 56.1808 303.969 56.1146C305.567 56.09 307.162 56.0729 308.75 56.1907C310.984 56.3526 313.195 56.8042 315.522 57.1429C315.745 56.9638 315.733 56.7208 315.642 56.4655C315.661 56.468 315.688 56.4729 315.708 56.4778Z" fill="#313F60"/>
<path d="M315.774 60.5836C315.459 60.3406 315.133 60.0805 314.758 59.9381C313.295 59.3859 311.783 58.954 310.237 58.684C308.619 58.3968 306.97 58.2913 305.318 58.414C305.318 58.414 299.71 58.684 298.743 59.9848C297.774 61.288 302.098 64.7412 302.098 64.7412C302.199 63.4306 301.227 62.3237 301.431 61.7641C302.314 61.6611 303.198 61.558 304.081 61.4549C304.17 61.5433 304.256 61.6365 304.332 61.7592C304.805 63.0698 306.084 63.9976 307.584 64.0123C308.423 64.0246 309.186 63.7399 309.802 63.2711C310.521 62.7238 311.037 61.9188 311.108 60.9739C312.541 61.1236 313.253 61.2193 314.674 61.4549C314.966 61.5187 315.307 61.4009 315.619 61.3395C315.896 61.2806 316.012 60.7628 315.774 60.5836Z" fill="#313F60"/>
<path d="M262.159 60.5836C262.473 60.3406 262.8 60.0805 263.175 59.9381C264.638 59.3859 266.15 58.954 267.694 58.684C269.311 58.3968 270.963 58.2913 272.612 58.414C272.612 58.414 278.22 58.684 279.189 59.9848C280.159 61.288 275.834 64.7412 275.834 64.7412C275.734 63.4306 276.706 62.3237 276.502 61.7641C275.618 61.6611 274.735 61.558 273.851 61.4549C273.763 61.5433 273.677 61.6365 273.601 61.7592C273.127 63.0698 271.849 63.9976 270.349 64.0123C269.51 64.0246 268.746 63.7399 268.13 63.2711C267.411 62.7238 266.896 61.9188 266.825 60.9739C265.391 61.1236 264.677 61.2193 263.259 61.4549C262.967 61.5187 262.623 61.4009 262.311 61.3395C262.036 61.2806 261.921 60.7628 262.159 60.5836Z" fill="#313F60"/>
<path d="M407.366 254.373C407.273 262.308 401.063 273.853 399.949 275.472C399.357 276.331 398.945 277.32 398.471 278.26C397.477 280.236 396.012 281.375 393.698 281.238C390.483 281.046 387.263 280.911 384.045 280.791C379.08 280.604 348.36 279.905 321.365 268.365C297.722 258.255 272.62 240.528 268.749 238.157C267.265 237.247 265.89 236.147 264.491 235.099C263.694 234.505 263.215 233.676 262.962 232.709C262.783 232.029 262.633 231.329 262.356 230.691C261.946 229.744 260.714 229.462 259.943 230.159C259.509 230.551 259.173 231.099 258.92 231.636C258.743 232.017 258.775 232.495 258.726 232.932C258.493 235.048 258.157 235.359 256.309 234.64C253.82 233.671 233.879 231.813 232.782 231.55C229.94 230.873 228.273 227.638 229.429 224.931C230.484 222.455 232.026 220.388 234.568 219.203C237.771 217.708 241.085 216.751 244.631 216.726C246.548 216.714 248.469 216.635 250.381 216.748C252.463 216.871 254.541 217.119 256.608 217.421C258.586 217.71 260.581 218.007 262.503 218.542C264.965 219.232 267.446 219.404 269.974 219.546C276.495 219.907 283.006 220.413 289.518 220.894C294.905 221.294 300.287 221.74 305.669 222.17C311.14 222.609 316.603 223.083 322.015 224.047C324.155 224.428 326.33 224.634 328.499 224.821C331.376 225.068 348.571 228.465 352.078 229.12C353.946 229.471 373.813 234.554 377.288 235.71C377.865 235.904 378.435 236.145 379.026 236.275C380.167 236.523 381.674 235.664 381.821 233.975C381.971 232.242 379.652 231.04 377.794 230.299C377.087 230.016 376.13 229.668 376.213 228.757C376.316 227.591 377.08 227.39 377.858 227.221C383.652 225.972 389.955 225.547 395.843 224.936C398.864 224.622 401.925 224.695 405.339 224.582C405.557 225.726 405.923 230.063 406.104 231.28C407.295 239.286 407.452 247.064 407.366 254.373ZM297.514 267.01L259.97 276.761C237.275 282.46 213.245 283.527 203.512 282.389C193.78 281.247 192.84 280.806 187.443 280.496C185.453 280.381 183.477 279.971 181.504 279.642C180.534 279.48 179.717 279.029 179.158 278.135C178.323 276.798 171.427 267.965 170.209 254.373C170.209 247.704 170.847 230.625 170.938 228.61C170.99 227.474 171.505 226.769 172.457 226.389C173.088 226.134 173.807 225.918 174.472 225.954C185.531 226.548 210.273 226.308 211.576 226.408C212.691 226.497 213.827 226.556 215.025 227.221C214.774 227.609 214.635 228.041 214.34 228.225C213.989 228.441 213.508 228.436 213.086 228.539C210.293 229.211 207.495 229.864 204.714 230.586C203.971 230.777 203.215 231.089 202.589 231.523C201.59 232.22 201.646 233.506 202.665 234.162C203.085 234.432 203.622 234.601 204.118 234.628C204.717 234.665 205.328 234.515 205.929 234.419C209.554 233.84 213.211 233.715 216.87 233.644C219.239 233.595 221.568 233.943 223.858 234.488C226.489 235.114 229.137 235.565 231.81 235.98C235.415 236.54 238.991 237.367 242.545 238.231C247.196 239.357 251.805 240.668 256.448 241.829C256.448 241.829 271.51 246.914 278.729 250.642C285.947 254.373 289.081 256.83 293.7 260.737C295.484 262.246 296.93 264.161 298.415 265.766C298.476 266.657 298.105 266.978 297.514 267.01ZM170.609 215.31C170.938 211.982 171.284 208.652 171.699 205.333C172.497 198.957 173.039 178.037 181.052 162.761C183.958 157.219 187.959 152.644 193.51 149.758C202.223 145.23 240.954 137.266 241.239 137.366C241.605 137.499 241.389 139.696 241.342 140.037C241.016 142.479 240.697 144.921 240.319 147.355C239.953 149.724 240.125 156.851 240.299 158.118C240.503 159.62 241.129 160.488 242.8 160.196C247.453 158.503 245.836 159.433 256.728 152.858C257.83 152.485 258.665 153.3 259.438 153.899C260.265 154.544 261.156 155.111 261.971 155.769C263.568 157.065 265.436 157.798 267.355 158.38C268.16 158.623 269.068 158.572 269.925 158.549C270.207 158.542 270.482 158.206 270.718 158.049C270.693 157.855 270.713 157.749 270.671 157.683C268.138 153.746 265.149 150.251 261.323 147.515C259.33 146.089 257.359 145.998 255.182 146.987C252.848 148.05 250.823 149.535 248.943 151.255C247.91 152.2 246.918 153.194 245.836 154.078C245.48 154.365 244.862 154.539 244.422 154.453C243.855 154.343 243.747 153.715 243.779 153.16C244.091 147.89 244.219 142.604 245.348 137.418C246.032 134.264 247.554 131.503 249.287 128.848C250.691 126.7 252.441 124.864 254.448 123.291C254.676 123.112 255.145 123.031 255.383 123.149C255.624 123.269 255.842 123.691 255.847 123.983C255.859 124.771 255.786 125.569 255.683 126.352C255.359 128.818 256.201 130.843 257.909 132.558C258.157 132.809 258.375 133.101 258.66 133.29C261.556 135.229 271.56 146.177 273.467 149.866C275.452 153.71 282.687 168.411 283.811 169.957C284.938 171.503 286.808 174.755 288.138 174.559C289.471 174.365 291.599 170.551 292.892 167.584C294.387 164.155 298.39 152.507 304.241 145.419C309.071 138.797 316.22 133.567 318.366 131.022C319.58 129.579 320.25 127.895 320.476 125.996C320.587 125.056 320.896 124.125 321.215 123.227C321.399 122.714 322.165 122.606 322.543 122.994C322.967 123.426 323.363 123.905 323.706 124.405C325.007 126.307 325.795 128.462 326.578 130.61C326.811 131.253 326.803 131.987 326.882 132.681C327.235 135.764 326.73 138.832 326.695 141.907C326.664 144.987 326.558 147.135 326.369 150.207C326.29 151.513 326.003 153.754 325.724 155.032C325.542 155.864 324.658 156.292 323.858 155.992C323.299 155.781 320.984 154.279 320.302 153.886C312.777 149.554 309.51 149.405 307.66 149.643C306.565 149.783 305.603 149.903 304.887 150.73C304.428 151.255 303.951 152.08 303.679 152.708C302.813 154.718 302.044 156.77 301.252 158.812C301.19 158.969 300.481 160.896 301.144 161.043C301.804 161.188 303.21 159.548 303.522 159.247C304.15 158.638 306.58 156.638 307.157 156.328C309.584 155.025 311.957 155.491 314.274 156.75C318.189 158.881 322.069 161.058 325.64 163.758C326.742 164.592 327.871 165.412 329.052 165.824C329.901 165.441 330.077 164.855 330.131 164.226C330.404 160.982 330.664 157.74 330.927 154.495C330.954 154.144 331.771 138.167 331.81 137.909C331.965 136.885 332.61 136.512 333.695 136.728C337.195 137.435 340.67 138.395 344.204 138.736C348.733 139.173 358.088 139.966 370.468 143.144C382.85 146.325 390.956 153.175 395.394 167.368C399.829 181.561 403.478 201.122 404.227 205.093C404.796 208.107 404.988 211.197 405.321 214.255C405.37 214.687 405.329 215.143 405.238 215.565C405.056 216.434 404.45 216.785 403.252 216.9C400.307 217.193 357.988 223.957 357.033 223.78C354.432 223.296 349.339 205.191 349.194 204.892C349.059 204.612 348.755 204.278 348.485 204.239C348.229 204.204 347.82 204.455 347.67 204.698C347.449 205.054 347.346 205.513 347.287 205.94C346.772 209.599 346.2 213.251 345.8 216.923C345.522 219.485 345.375 221.998 342.057 221.007C341.971 220.984 336.844 220.108 334.36 219.718C331.44 219.257 328.494 218.896 325.544 218.682C319.114 218.216 298.083 216.304 293.992 216.221C287.019 216.076 280.042 215.286 273.069 215.111C268.457 214.993 252.72 213.928 250.646 213.695C244.668 213.03 238.704 212.24 232.661 212.561C231.189 212.64 225.799 201.951 224.952 199.806C224.761 199.32 224.516 198.834 224.187 198.439C224.003 198.218 223.566 198.047 223.303 198.108C223.023 198.174 222.655 198.515 222.604 198.79C222.464 199.558 222.373 200.361 222.434 201.139C222.532 202.361 223.767 220.29 223.679 220.805C223.514 221.728 222.697 222.15 222.022 222.101C200.522 222.246 176.495 219.907 174.406 219.868C172.823 219.841 170.845 219.556 170.636 217.946C170.523 217.082 170.523 216.181 170.609 215.31ZM307.554 129.603C307.778 132.595 306.339 134.905 304.428 136.873C301.806 139.568 296.272 144.982 294.313 150.362C292.554 155.207 290.885 159.163 288.082 159.17C286.062 159.175 277.59 146.536 274.618 143.036C272.063 140.029 269.007 137.511 266.624 134.353C266.413 134.07 266.224 133.768 265.983 133.518C262.707 130.109 261.737 125.993 262.304 121.391C262.454 120.172 262.52 118.942 262.658 117.72C262.724 117.114 262.788 116.488 262.977 115.913C263.551 114.188 264.901 113.746 266.477 114.674C267.976 115.555 277.202 124.015 288.681 124.17C300.157 124.327 301.171 121.961 305.11 121.148C305.368 121.094 305.623 121.04 305.881 121.006C306.902 120.878 307.402 121.207 307.483 122.226C307.618 123.89 307.667 125.564 307.726 126.727C307.64 128.025 307.495 128.823 307.554 129.603ZM253.277 66.8077C252.566 60.3774 257.575 50.4694 257.575 50.4694C257.835 49.9319 264.258 44.4859 276.701 42.3334C289.849 40.0607 296.37 41.1431 302.408 41.7714C313.842 42.9593 320.793 54.2466 320.793 54.2466C320.793 54.2466 324.879 64.6307 324.342 68.8423C322.85 80.5493 323.736 88.4399 320.893 99.1898C319.895 102.972 314.939 106.408 308.217 111.532C303.704 114.971 299.936 119.521 289.849 119.521C281.436 119.519 277.739 117.425 271.483 111.851C264.761 105.861 258.245 100.429 257.077 97.0864C255.123 91.5029 254.667 79.3394 253.277 66.8077ZM252.32 49.5C251.915 49.0631 251.874 48.5207 252.104 48.0323C252.401 47.4016 252.755 46.7757 253.196 46.2431C256.348 42.4537 259.808 38.9489 263.905 36.2394C268.533 33.1813 273.629 31.0829 279.148 30.3368C281.112 30.0693 289.81 29.5956 296.296 31.9861C302.786 34.3766 304.759 35.616 310.117 39.0888C310.995 39.6607 315.305 43.1065 316.139 43.7422C317.678 44.9178 319.254 46.0026 321.186 46.4198C321.433 46.4738 321.721 46.5548 321.892 46.7266C322.059 46.8886 322.194 47.1905 322.172 47.4163C322.148 47.6372 321.956 47.9439 321.762 48.0225C321.377 48.1796 320.911 48.3465 320.53 48.263C319.686 48.0863 318.839 47.836 318.056 47.4752C317.271 47.1119 316.525 46.626 315.823 46.113C306.317 39.1453 304.386 38.7231 301.333 37.199C298.28 35.6774 294.269 34.3029 289.999 33.4194C283.853 32.207 275.41 33.5986 271.81 35.0638C267.191 36.9389 263.387 39.9552 259.759 43.2881C258.206 44.719 256.748 46.1989 255.607 47.9955C255.194 48.6459 254.595 49.1981 253.994 49.6889C253.489 50.0988 252.725 49.9418 252.32 49.5ZM255.918 31.4142C256.527 26.6161 257.381 21.8621 258.834 17.248C259.477 15.2134 260.601 13.4414 262.425 12.2069C263.725 11.3307 264.97 10.3637 266.273 9.48996C269.351 7.43082 272.765 6.1423 276.284 5.10657C277.953 4.61572 279.634 4.17395 281.281 3.62418C282.727 3.14316 284.16 3.08179 285.657 3.27567C287.206 3.47693 288.772 3.52847 290.328 3.66837C292.578 3.87207 294.839 4.01196 297.072 4.33102C299.011 4.60837 300.594 5.57291 301.988 7.0553C306.175 11.5099 307.976 16.8455 308.104 22.8708C308.119 23.4844 308.107 24.1004 308.107 24.7165H308.089C308.089 26.1228 308.146 27.534 308.072 28.9354C307.999 30.4301 307.27 30.8866 305.777 30.4792C303.431 29.8361 301.053 29.2814 298.753 28.4887C294.902 27.1634 290.929 26.8615 286.926 26.7707C283.095 26.6848 279.276 26.9008 275.484 27.5045C275.312 27.534 275.131 27.5217 274.966 27.5733C270.902 28.8446 266.81 30.0423 262.989 31.9812C261.202 32.8868 259.443 33.8416 257.666 34.7668C257.514 34.8503 257.347 34.9067 257.185 34.968C256.365 35.2601 255.734 34.8748 255.749 34.0452C255.764 33.1666 255.808 32.2855 255.918 31.4142ZM251.047 62.9986C250.413 62.9864 246.918 58.9859 247.029 58.3649C247.112 57.8888 248.806 56.8506 249.279 56.8432C249.925 56.831 250.575 57.6434 251.047 59.0006C251.518 60.3627 251.864 63.0158 251.047 62.9986ZM251.498 79.3811C251.4 79.683 251.182 79.9947 250.926 80.1763C250.779 80.2794 250.394 80.218 250.232 80.0855C249.832 79.759 249.405 79.4007 249.167 78.9565C248.627 77.9576 248.05 76.9415 247.745 75.8592C246.717 72.2121 246.047 68.5036 246.177 64.6847C246.189 64.3362 246.248 63.9853 246.332 63.6466C246.482 63.0404 247.348 62.7851 247.814 63.2072C248.418 63.7546 248.823 64.4197 248.924 65.2443C249.039 66.2039 249.142 67.166 249.282 68.4079C249.277 68.4766 249.321 68.8448 249.221 69.1712C248.283 72.2072 249.338 74.875 250.703 77.4864C250.904 77.8742 251.167 78.2325 251.353 78.6301C251.459 78.8583 251.567 79.1676 251.498 79.3811ZM326.595 77.0839C327.017 75.5597 327.486 74.043 327.829 72.5017C328.114 71.223 328.141 69.9566 327.854 68.6067C327.491 66.901 327.687 65.1142 328.33 63.4429C328.521 62.9422 328.843 62.4808 329.466 62.5299C330.077 62.5789 330.382 63.06 330.448 63.5926C330.566 64.5473 330.585 65.5192 330.63 66.231C330.259 70.2658 329.793 74.016 328.512 77.6115C327.999 79.0448 327.424 79.6093 326.877 79.2191C326.057 78.635 326.384 77.8422 326.595 77.0839ZM326.975 58.7895C327.039 57.3194 326.833 55.9597 327.989 55.6014C327.989 55.6014 332.831 56.3205 330.846 56.6224C328.858 56.9218 326.87 61.553 326.87 61.553C326.87 61.553 326.97 58.9171 326.975 58.7895ZM412.459 240.987C412.247 236.582 411.411 231.769 410.961 227.128C410.726 224.688 411.195 212.12 410.89 210.367C410.466 207.94 408.372 194.917 406.036 185.144C397.531 150.141 392.427 146.19 387.692 143.21C382.519 138.579 345.569 133.594 339.593 132.355C337.215 131.861 334.861 131.12 332.392 131.145C331.511 131.152 330.914 130.607 330.544 129.876C330.271 129.338 330.151 128.72 329.962 128.133C329.697 127.299 329.464 126.45 329.16 125.625C328.708 124.398 328.254 123.163 327.712 121.973C326.865 120.122 325.895 118.309 324.025 117.317C322.432 116.471 322.106 115.224 322.369 113.572C322.572 112.279 322.656 110.961 322.751 109.65C322.967 106.666 323.058 103.671 323.385 100.699C323.738 97.4644 324.428 94.2689 324.73 91.0316C324.901 89.2007 325.527 87.8779 327.027 86.8544C328.507 85.8433 329.547 84.4615 330.028 82.6674C330.208 81.9974 330.603 81.3887 330.865 80.7359C331.422 79.3541 332.068 77.9993 332.48 76.5758C333.116 74.3817 333.597 72.1434 334.12 69.9173C334.22 69.4927 334.255 69.0436 334.255 68.6067C334.264 65.0062 334.466 61.4132 333.27 57.8912C332.76 56.3843 331.943 55.4418 330.539 55.0001C329.641 54.7154 328.676 54.6393 327.469 54.4209C327.412 53.606 327.324 52.9139 327.324 52.2218C327.326 49.3184 327.451 46.4149 327.346 43.5164C327.27 41.4155 327.108 39.2754 326.627 37.2407C325.714 33.3973 324.663 29.5809 323.274 25.8675C322.047 22.5812 321.053 19.209 319.89 15.8957C318.577 12.1553 316.503 8.93774 313.079 6.83197C311.678 5.97049 310.134 5.33728 308.629 4.655C307.758 4.2623 306.808 4.03897 305.947 3.62665C304.27 2.82654 302.506 2.41666 300.682 2.16632C298.527 1.86935 296.377 1.54294 294.232 1.20178C292.082 0.855743 289.947 0.433594 287.795 0.119446C286.943 -0.0057373 286.04 -0.0548096 285.196 0.0826416C281.146 0.73056 277.153 1.62393 273.363 3.27567C271.366 4.14694 269.331 4.93231 267.368 5.87723C265.883 6.59143 264.3 7.27866 263.087 8.35608C259.511 11.5369 256.819 15.395 255.081 19.9232C253.182 24.8612 251.879 29.9736 250.583 35.0883C249.014 41.2634 248.241 47.5365 248.688 53.9251C248.717 54.3497 248.602 54.7865 248.553 55.2111C247.792 55.7535 247.007 56.1806 246.393 56.7868C245.787 57.3832 245.141 58.0925 244.891 58.8779C244.464 60.2056 244.206 61.6218 244.111 63.0158C243.865 66.7193 244.251 70.4033 244.771 74.0675C244.832 74.4946 245.038 74.902 245.195 75.3094C245.959 77.2753 246.69 79.251 247.5 81.1973C248.688 84.0516 250.08 86.7857 252.487 88.8252C253.223 89.4511 253.39 90.3126 253.511 91.1789C253.999 94.6051 255.157 97.8055 256.436 101.008L256.88 113.295C256.731 115.322 256.026 117.195 254.154 118.456C253.081 119.18 252.207 120.213 251.28 121.146C248.938 123.502 246.43 125.721 245.06 128.887C244.648 129.842 243.787 130.305 242.803 130.516C239.057 131.319 206.15 139.17 204.005 139.919C199.899 141.355 189.264 143.156 182.603 150.281C175.94 157.408 169.333 168.2 165.566 207.81C165.207 211.577 164.881 215.349 164.557 219.119C164.491 219.897 164.427 220.734 164.638 221.463C164.815 222.074 165.394 222.565 165.652 222.916C165.448 224.42 165.212 225.716 165.107 227.022C164.366 236.086 164.731 245.159 164.849 254.233C164.918 259.424 163.882 259.927 166.827 270.169C166.827 270.169 170.548 285.474 183.323 288.092C188.054 289.327 187.232 289.03 189.213 289.251C192.241 289.587 195.295 289.695 198.335 289.923C207.492 290.618 216.637 290.137 225.779 289.636C228.56 289.486 231.341 289.192 234.104 288.829C238.939 288.198 243.745 287.336 248.622 287.015C250.185 286.912 251.746 286.686 253.282 286.382C255.928 285.859 258.571 285.292 261.188 284.624C264.479 283.79 267.731 282.806 271.017 281.944C277.506 280.246 284.143 279.176 290.573 277.217C290.985 277.09 309.147 273.705 310.34 274.039C312.686 274.689 315.04 275.337 317.347 276.12C323.289 278.135 356.977 289.783 375.693 290.326C394.41 290.868 398.896 289.98 403.14 284.092C410.929 273.359 414.554 258.935 412.459 240.987Z" fill="#313F60"/>
<path d="M203.287 143.246C204.983 142.664 207.221 141.935 209.511 141.462C212.611 140.823 215.726 140.117 218.651 139.444C219.876 139.164 220.988 138.85 222.045 138.482C222.656 138.271 223.27 138.138 223.886 137.959C222.448 136.15 221.321 134.67 220.592 133.603C216.184 127.168 213.615 120.342 213.269 112.81C213.207 111.472 207.327 97.9541 207.275 97.9959C206.485 98.6929 207.209 98.0523 205.26 99.758C202.207 102.426 199.407 98.8279 196.8 96.0938C194.304 93.475 191.349 89.9777 194.599 87.0595C200.369 81.8785 202.168 80.2979 207.899 75.0751C208.399 74.6186 208.868 73.7253 208.787 73.1092C208.213 68.7823 190.886 49.2215 186.119 49.0178C184.698 48.9589 183.55 49.3786 182.467 50.3701C177.789 54.648 166.345 65.0886 166.345 65.0886L162.86 61.228L140.504 81.7901C144.777 87.5577 169.069 114.3 197.399 145.114C199.365 144.507 201.329 143.918 203.287 143.246Z" fill="#313F60"/>
<path d="M128.629 317.698L131.078 339.698L127.527 340.088L125.085 318.088L128.629 317.698Z" fill="white"/>
<path d="M135.414 316.953L136.28 325.42L142.094 324.833L141.23 316.361L144.752 316.005L147.005 338.05L143.484 338.408L142.541 329.185L136.719 329.774L137.667 338.995L134.118 339.355L131.865 317.311L135.414 316.953Z" fill="white"/>
<path d="M150.892 315.44L155.595 324.256L155.916 324.224L155.101 315.067L158.498 314.768L159.31 323.925L159.639 323.895L162.729 314.39L166.843 314.027L162.373 324.347C164.519 324.484 165.738 326.585 166.666 329.371C167.402 331.617 168.013 333.968 168.877 336.066L165.301 336.385C164.678 334.954 164.212 333.148 163.748 331.607C163.024 329.297 162.128 327.368 160.199 327.538L159.639 327.587L160.462 336.812L157.067 337.112L156.245 327.886L155.661 327.943C153.754 328.109 153.212 330.169 152.912 332.569C152.726 334.169 152.588 336.027 152.23 337.541L148.649 337.86C149.155 335.637 149.385 333.212 149.704 331.005C150.099 328.102 150.909 325.891 152.981 325.181L146.754 315.804L150.892 315.44Z" fill="white"/>
<path d="M179.013 325.859L173.247 326.318L173.655 331.565L180.095 331.049L180.414 335.151L170.418 335.941L168.69 313.847L178.367 313.079L178.686 317.18L172.57 317.666L172.928 322.253L178.694 321.794L179.013 325.859Z" fill="white"/>
<path d="M184.756 312.66L185.343 321.147L191.182 320.757L190.59 312.27L194.127 312.027L195.661 334.123L192.124 334.361L191.484 325.116L185.647 325.506L186.29 334.756L182.732 334.992L181.198 312.898L184.756 312.66Z" fill="white"/>
<path d="M207.443 324.028L201.676 324.366L201.982 329.611L208.425 329.236L208.663 333.334L198.664 333.911L197.371 311.822L207.043 311.258L207.284 315.354L201.167 315.708L201.435 320.3L207.205 319.966L207.443 324.028Z" fill="white"/>
<path d="M214.01 321.262C214.319 321.343 214.692 321.358 215.208 321.333C217.095 321.243 218.197 319.841 218.084 317.581C217.979 315.546 216.918 314.38 215.141 314.466C214.42 314.503 213.936 314.626 213.686 314.736L214.01 321.262ZM209.987 311.398C211.07 311.087 212.599 310.812 214.771 310.706C216.963 310.603 218.558 311.111 219.662 312.245C220.723 313.313 221.486 315.114 221.596 317.274C221.704 319.441 221.282 321.304 220.413 322.59C219.279 324.256 217.52 325.066 215.421 325.167C214.957 325.189 214.533 325.182 214.206 325.13L214.597 333.031L211.075 333.202L209.987 311.398Z" fill="white"/>
<path d="M227.262 310.244L227.596 318.756L233.447 318.522L233.116 310.011L236.66 309.871L237.526 332.016L233.98 332.156L233.616 322.891L227.763 323.122L228.124 332.387L224.555 332.529L223.694 310.386L227.262 310.244Z" fill="white"/>
<path d="M243.45 309.657L244.169 331.797L240.6 331.92L239.881 309.775L243.45 309.657Z" fill="white"/>
<path d="M263.366 330.71C262.723 331.186 261.262 331.743 259.351 331.783C253.917 331.896 251.013 327.164 250.878 320.856C250.714 313.297 254.449 309.009 259.206 308.909C261.049 308.869 262.46 309.365 263.101 309.809L262.465 313.802C261.731 313.393 260.72 313.02 259.461 313.047C256.639 313.105 254.496 315.55 254.604 320.478C254.7 324.916 256.626 327.669 259.797 327.601C260.872 327.578 262.055 327.223 262.747 326.813L263.366 330.71Z" fill="white"/>
<path d="M268.763 309.101L268.834 315.668C268.871 319.217 268.864 322.737 268.758 325.694L268.849 325.689C269.637 323.085 270.656 320.15 271.561 317.769L274.852 309.025L278.487 308.983L278.73 331.123L275.461 331.165L275.395 324.624C275.358 321.213 275.37 318.184 275.549 315.29L275.481 315.293C274.784 317.931 273.814 320.867 272.904 323.208L269.797 331.234L265.737 331.283L265.499 309.138L268.763 309.101Z" fill="white"/>
<path d="M293.238 330.449C292.588 330.913 291.118 331.44 289.206 331.445C283.772 331.465 280.959 326.677 280.947 320.371C280.932 312.815 284.746 308.596 289.505 308.583C291.348 308.579 292.747 309.096 293.381 309.555L292.666 313.534C291.942 313.107 290.936 312.714 289.679 312.719C286.852 312.726 284.668 315.136 284.678 320.06C284.687 324.497 286.563 327.283 289.733 327.273C290.804 327.268 291.996 326.939 292.693 326.539L293.238 330.449Z" fill="white"/>
<path d="M299.168 313.202L294.944 313.16L294.981 308.956L307.063 309.069L307.029 313.273L302.736 313.234L302.582 331.167L299.013 331.138L299.168 313.202Z" fill="white"/>
<path d="M318.183 322.002L312.398 321.916L312.317 327.171L318.779 327.269L318.715 331.378L308.685 331.223L309.021 309.083L318.725 309.228L318.661 313.339L312.526 313.243L312.457 317.845L318.242 317.931L318.183 322.002Z" fill="white"/>
<path d="M334.621 323.309C334.626 320.646 334.648 317.426 334.734 314.208L334.667 314.203C334.098 317.016 333.354 320.15 332.677 322.732L330.52 331.32L327.744 331.241L326.306 322.654C325.864 320.01 325.417 316.842 325.128 313.943L325.081 313.941C324.904 316.928 324.735 320.342 324.546 323.1L324.026 331.501L320.734 331.411L322.364 309.297L327.098 309.425L328.431 316.861C328.848 319.404 329.258 322.209 329.538 324.816H329.607C330.12 322.266 330.738 319.355 331.32 316.908L333.21 309.592L337.851 309.719L338.089 331.887L334.616 331.793L334.621 323.309Z" fill="white"/>
<path d="M344.943 309.971L344.688 316.543C344.55 320.092 344.366 323.607 344.111 326.554L344.207 326.559C345.12 323.997 346.285 321.116 347.309 318.787L351.032 310.211L354.667 310.356L353.808 332.504L350.541 332.371L350.794 325.835C350.931 322.416 351.096 319.395 351.42 316.514L351.346 316.509C350.521 319.111 349.402 321.992 348.379 324.287L344.874 332.148L340.815 331.983L341.679 309.843L344.943 309.971Z" fill="white"/>
<path d="M365.135 310.857L367.006 318.912C367.347 320.508 367.607 321.835 367.884 323.195L367.951 323.2C368.211 322.262 368.549 320.797 369.04 318.949L371.151 311.171L374.884 311.363L371.379 322.093C370.245 325.49 369.089 328.781 367.816 330.754C366.696 332.502 365.337 333.547 363.494 333.454C362.674 333.412 362.19 333.258 361.763 333.002L362.227 329.014C362.5 329.129 362.868 329.215 363.383 329.242C364.48 329.299 365.28 328.29 365.612 327.286C365.771 326.933 365.717 326.636 365.616 326.265L361.125 310.654L365.135 310.857Z" fill="white"/>
<path d="M379.944 311.703L379.367 320.882L379.672 320.902L384.573 311.986L388.873 312.251L382.794 321.717C384.772 322.564 385.557 324.583 386.038 327.278C386.448 329.676 386.806 332.099 387.413 334.342L383.599 334.109C383.162 332.565 382.965 330.842 382.698 329.18C382.32 326.66 381.719 324.711 379.812 324.598L379.139 324.554L378.558 333.799L375.043 333.586L376.435 311.49L379.944 311.703Z" fill="white"/>
<path d="M393.474 322.954C393.771 323.072 394.139 323.131 394.649 323.167C396.532 323.3 397.793 322.038 397.953 319.778C398.098 317.743 397.187 316.46 395.418 316.337C394.698 316.285 394.203 316.352 393.938 316.433L393.474 322.954ZM390.681 312.678C391.79 312.491 393.341 312.4 395.504 312.555C397.688 312.71 399.202 313.404 400.169 314.663C401.089 315.846 401.629 317.729 401.475 319.891C401.32 322.058 400.68 323.855 399.659 325.04C398.333 326.559 396.49 327.156 394.397 327.003C393.933 326.974 393.52 326.908 393.196 326.822L392.632 334.722L389.12 334.477L390.681 312.678Z" fill="white"/>
<path d="M409.571 326.564L408.969 321.81C408.798 320.479 408.648 318.823 408.525 317.495L408.474 317.49C408.137 318.781 407.774 320.428 407.413 321.684L406.108 326.291L409.571 326.564ZM405.293 329.978L403.725 335.546L400.05 335.257L406.613 313.588L411.264 313.956L414.349 336.393L410.535 336.089L409.784 330.336L405.293 329.978Z" fill="white"/>
<path d="M422.656 313.647C421.745 313.566 421.163 312.491 421.271 311.281C421.384 310.008 422.145 309.085 423.078 309.171C423.961 309.247 424.548 310.29 424.435 311.561C424.325 312.776 423.561 313.723 422.678 313.647H422.656ZM417.818 313.22C416.935 313.137 416.324 312.062 416.434 310.852C416.547 309.578 417.357 308.66 418.262 308.741C419.124 308.817 419.688 309.855 419.575 311.132C419.465 312.342 418.721 313.296 417.84 313.22H417.818ZM421.914 314.867L419.946 336.912L416.387 336.6L418.356 314.553L421.914 314.867Z" fill="white"/>
<path d="M428.563 315.449L427.753 323.919L433.569 324.474L434.379 316.002L437.906 316.335L435.793 338.382L432.271 338.049L433.155 328.825L427.335 328.271L426.457 337.494L422.905 337.158L425.016 315.113L428.563 315.449Z" fill="white"/>
<path d="M444.464 317.061L443.767 323.587C443.394 327.116 442.972 330.601 442.52 333.522L442.611 333.531C443.698 331.04 445.051 328.247 446.229 325.999L450.516 317.713L454.129 318.099L451.78 340.099L448.536 339.748L449.233 333.254C449.593 329.86 449.962 326.858 450.475 324.011L450.406 324.001C449.412 326.537 448.104 329.335 446.926 331.551L442.908 339.142L438.871 338.71L441.219 316.71L444.464 317.061Z" fill="white"/>
</svg>
