<svg width="604" height="356" viewBox="0 0 604 356" fill="none" xmlns="http://www.w3.org/2000/svg">
<path d="M198.612 183.888C198.542 184.377 196.216 197.355 194.96 205.287C169.096 205.636 144.162 205.938 139.812 205.938C114.25 205.938 102.644 181.562 102.644 181.562L199.403 180.609C198.984 182.167 198.682 183.377 198.612 183.888Z" fill="#F1CE43"/>
<path d="M187.657 251.387C187.959 252.527 191.146 264.203 193.192 270.576C178.12 263.994 171.096 249.364 171.096 249.364L187.424 249.062C187.471 250.155 187.54 250.992 187.657 251.387Z" fill="#F1CE43"/>
<path d="M215.824 147.186C210.497 150.791 207.939 156.094 204.566 163.235C204.124 164.142 202.938 167.793 201.729 171.817C160.815 172.236 111.622 172.748 106.132 172.748C80.5704 172.748 68.964 148.372 68.964 148.372L215.824 147.186Z" fill="#0A8BCF"/>
<path d="M195.937 222.732C195.728 224.825 195.495 232.989 195.449 240.107C185.307 240.293 177.26 240.409 174.562 240.409C149 240.409 137.393 216.033 137.393 216.033L195.984 215.312C195.984 218.522 195.96 222.476 195.937 222.732Z" fill="#F1CE43"/>
<path d="M178.399 103.202C178.399 103.202 41.4947 103.853 37.1684 103.853C11.6064 103.853 0 79.4773 0 79.4773L195.984 78.5237L178.399 103.202Z" fill="#0A8BCF"/>
<path d="M231.524 138.044C231.524 138.044 74.616 138.347 71.8947 138.347C46.3326 138.347 34.7262 113.971 34.7262 113.971L217.731 113.25L231.524 138.044Z" fill="#0A8BCF"/>
<path d="M405.178 183.888C405.248 184.377 407.574 197.355 408.83 205.287C434.694 205.636 459.629 205.938 463.978 205.938C489.54 205.938 501.147 181.562 501.147 181.562L404.388 180.609C404.806 182.167 405.109 183.377 405.178 183.888Z" fill="#F1CE43"/>
<path d="M416.134 251.387C415.831 252.527 412.645 264.203 410.598 270.576C425.67 263.994 432.694 249.364 432.694 249.364L416.366 249.062C416.296 250.155 416.227 250.992 416.134 251.387Z" fill="#F1CE43"/>
<path d="M387.943 147.186C393.27 150.791 395.828 156.094 399.201 163.235C399.643 164.142 400.829 167.793 402.038 171.817C442.952 172.236 492.145 172.748 497.634 172.748C523.197 172.748 534.803 148.372 534.803 148.372L387.943 147.186Z" fill="#0A8BCF"/>
<path d="M407.853 222.732C408.062 224.825 408.295 232.989 408.342 240.107C418.483 240.293 426.53 240.409 429.229 240.409C454.791 240.409 466.397 216.033 466.397 216.033L407.807 215.312C407.807 218.522 407.807 222.476 407.853 222.732Z" fill="#F1CE43"/>
<path d="M425.391 103.202C425.391 103.202 562.295 103.853 566.622 103.853C592.184 103.853 603.79 79.4773 603.79 79.4773L407.807 78.5237L425.391 103.202Z" fill="#0A8BCF"/>
<path d="M372.266 138.044C372.266 138.044 529.197 138.347 531.895 138.347C557.458 138.347 569.087 113.971 569.087 113.971L386.082 113.25L372.266 138.044Z" fill="#0A8BCF"/>
<path d="M418.808 235.339C418.599 231.152 417.808 226.593 417.39 222.197C417.157 219.895 417.599 207.962 417.32 206.311C416.924 204.008 414.924 191.658 412.714 182.377C404.643 149.186 399.805 145.441 395.316 142.604C390.409 138.208 355.357 133.486 349.705 132.3C347.449 131.834 345.216 131.137 342.866 131.16C342.029 131.16 341.471 130.648 341.122 129.95C340.866 129.439 340.75 128.857 340.564 128.299C340.308 127.508 340.099 126.694 339.796 125.927C339.378 124.764 338.936 123.601 338.424 122.461C337.633 120.717 336.703 118.995 334.935 118.042C333.423 117.251 333.121 116.065 333.353 114.483C333.54 113.25 333.633 112.018 333.726 110.761C333.935 107.924 334.005 105.086 334.33 102.272C334.656 99.2016 335.33 96.1779 335.61 93.1076C335.772 91.3632 336.377 90.1071 337.796 89.1535C339.192 88.1999 340.192 86.8741 340.634 85.1762C340.796 84.5482 341.169 83.9667 341.424 83.3387C341.959 82.0361 342.564 80.7336 342.96 79.3846C343.564 77.3145 344.029 75.1746 344.518 73.0813C344.611 72.6859 344.634 72.244 344.634 71.8485C344.634 68.4294 344.843 65.0336 343.704 61.6842C343.215 60.2654 342.448 59.3583 341.122 58.9396C340.261 58.6605 339.354 58.5907 338.215 58.3814C338.168 57.6138 338.075 56.9626 338.075 56.288C338.075 53.5434 338.191 50.7756 338.098 48.0309C338.029 46.0306 337.866 44.0071 337.424 42.0765C336.563 38.4248 335.563 34.8196 334.237 31.2842C333.074 28.1674 330.144 27.4464 329.027 24.3064C327.771 20.7477 326.841 21.4687 323.585 19.4684C322.259 18.6544 321.259 16.1889 319.84 15.5376C319.002 15.1654 318.677 13.6071 317.863 13.2349C316.281 12.4674 314.862 11.6533 313.141 11.4207C311.094 11.1416 309.327 10.909 307.303 10.5833C305.256 10.2577 303.93 10.4205 301.883 10.1181C301.069 10.0019 299.371 9.69949 298.557 9.83905C294.72 10.4438 292.231 10.3275 288.649 11.8859C286.765 12.7232 286.207 12.5604 284.346 13.4675C282.927 14.142 280.787 16.4214 279.624 17.4449C276.228 20.4686 273.716 22.4922 272.065 26.7951C270.274 31.4703 266.506 35.1453 265.273 40.0065C263.785 45.8678 263.04 51.8222 263.482 57.8697C263.505 58.2651 263.389 58.6837 263.366 59.0792C262.645 59.5909 261.901 60.0095 261.319 60.5678C260.738 61.126 260.133 61.8005 259.9 62.5448C259.505 63.8008 259.249 65.1499 259.156 66.4756C258.923 69.9878 259.296 73.4767 259.784 76.9656C259.831 77.361 260.04 77.7564 260.179 78.1518C260.9 80.0126 261.598 81.8966 262.366 83.7341C263.482 86.4322 264.808 89.0372 267.088 90.9678C267.785 91.5493 267.948 92.3866 268.064 93.2007C268.53 96.457 269.623 99.4807 270.832 102.528L271.251 114.181C271.111 116.111 270.437 117.879 268.669 119.088C267.646 119.763 266.832 120.763 265.948 121.647C263.715 123.88 261.342 125.996 260.04 128.997C259.644 129.904 258.83 130.346 257.9 130.532C254.341 131.3 223.127 138.743 221.104 139.44C217.219 140.813 207.125 142.511 200.798 149.279C194.472 156.048 188.215 166.282 184.633 203.846C184.284 207.427 183.982 210.986 183.679 214.568C183.61 215.312 183.563 216.103 183.749 216.801C183.912 217.382 184.47 217.848 184.703 218.173C184.517 219.592 184.284 220.825 184.191 222.081C183.493 230.687 183.842 239.293 183.958 247.899C184.028 252.83 183.051 253.295 185.842 263.017C185.842 263.017 189.378 277.531 201.496 280.02C205.985 281.183 205.194 280.904 207.078 281.113C209.939 281.439 212.847 281.532 215.731 281.741C224.407 282.392 233.082 281.951 241.758 281.462C244.386 281.323 247.038 281.043 249.643 280.695C254.225 280.09 258.784 279.276 263.412 278.973C264.901 278.88 266.366 278.671 267.832 278.369C270.344 277.88 272.856 277.322 275.321 276.694C278.438 275.903 281.532 274.973 284.648 274.159C290.812 272.554 297.092 271.53 303.186 269.67C303.581 269.553 320.793 266.344 321.933 266.646C324.166 267.274 326.399 267.879 328.585 268.623C334.214 270.53 366.172 281.578 383.919 282.09C401.666 282.602 405.923 281.764 409.947 276.182C417.366 266.041 420.809 252.365 418.808 235.339Z" fill="#222E55"/>
<path d="M337.726 62.5445C337.796 61.1489 337.587 59.8696 338.68 59.5208C338.68 59.5208 343.285 60.1953 341.378 60.4976C339.494 60.7768 337.61 65.1728 337.61 65.1728C337.61 65.1728 337.726 62.6608 337.726 62.5445Z" fill="white"/>
<path d="M265.715 66.5222C265.11 66.4989 261.807 62.7076 261.9 62.1262C261.97 61.6842 263.575 60.6841 264.04 60.6841C264.645 60.6841 265.273 61.4516 265.715 62.7309C266.18 64.0334 266.506 66.5454 265.715 66.5222Z" fill="white"/>
<path d="M267.832 70.1504C267.157 64.0564 271.902 54.6596 271.902 54.6596C272.158 54.1479 278.252 48.9843 290.045 46.9375C302.512 44.7744 308.699 45.7978 314.42 46.4025C325.259 47.5422 331.865 58.2416 331.865 58.2416C331.865 58.2416 335.749 68.0803 335.238 72.0809C333.819 83.1756 334.656 90.6651 331.958 100.853C331.004 104.435 326.306 107.691 319.933 112.552C315.653 115.809 312.071 120.135 302.512 120.135C294.534 120.135 291.021 118.158 285.09 112.855C278.717 107.179 272.53 102.016 271.437 98.8524C269.6 93.5726 269.158 82.0359 267.832 70.1504Z" fill="white"/>
<path d="M189.424 210.986C189.727 207.823 190.076 204.659 190.448 201.519C191.215 195.472 191.727 175.632 199.31 161.141C202.077 155.884 205.869 151.535 211.125 148.814C219.382 144.511 256.132 136.975 256.388 137.068C256.737 137.184 256.528 139.277 256.481 139.603C256.179 141.929 255.876 144.231 255.504 146.557C255.155 148.814 255.318 155.559 255.481 156.768C255.667 158.187 256.272 159.024 257.853 158.745C262.273 157.14 260.738 158.024 271.065 151.791C272.111 151.442 272.902 152.209 273.623 152.791C274.414 153.396 275.251 153.931 276.019 154.559C277.531 155.791 279.299 156.489 281.136 157.024C281.904 157.257 282.764 157.21 283.578 157.187C283.834 157.187 284.113 156.861 284.323 156.722C284.299 156.536 284.323 156.443 284.276 156.373C281.88 152.628 279.043 149.325 275.414 146.72C273.53 145.371 271.646 145.278 269.599 146.232C267.39 147.232 265.459 148.651 263.692 150.279C262.715 151.186 261.761 152.116 260.738 152.954C260.412 153.233 259.807 153.396 259.388 153.303C258.854 153.186 258.737 152.605 258.784 152.07C259.086 147.069 259.202 142.068 260.272 137.137C260.924 134.137 262.366 131.532 264.017 129.02C265.343 126.973 267.018 125.252 268.925 123.74C269.134 123.577 269.576 123.484 269.809 123.6C270.041 123.717 270.251 124.112 270.251 124.391C270.251 125.135 270.204 125.903 270.088 126.647C269.786 128.997 270.576 130.904 272.204 132.532C272.437 132.765 272.646 133.044 272.925 133.23C275.67 135.067 285.16 145.441 286.974 148.953C288.858 152.605 295.72 166.537 296.79 168.003C297.86 169.468 299.627 172.561 300.883 172.375C302.139 172.189 304.163 168.561 305.396 165.746C306.814 162.49 310.606 151.442 316.165 144.72C320.747 138.44 327.515 133.486 329.562 131.067C330.725 129.694 331.353 128.089 331.562 126.298C331.679 125.415 331.958 124.531 332.26 123.67C332.423 123.182 333.167 123.089 333.516 123.438C333.912 123.856 334.284 124.298 334.609 124.787C335.842 126.601 336.586 128.624 337.331 130.671C337.563 131.276 337.54 131.974 337.61 132.625C337.935 135.556 337.47 138.463 337.424 141.371C337.401 144.301 337.284 146.325 337.121 149.232C337.052 150.465 336.773 152.605 336.517 153.814C336.354 154.605 335.516 155.001 334.749 154.721C334.214 154.512 332.028 153.093 331.376 152.721C324.236 148.604 321.142 148.465 319.375 148.697C318.328 148.837 317.421 148.953 316.746 149.721C316.304 150.232 315.862 151 315.607 151.605C314.792 153.512 314.048 155.466 313.304 157.396C313.257 157.536 312.583 159.373 313.211 159.513C313.839 159.652 315.165 158.094 315.467 157.815C316.072 157.233 318.374 155.349 318.909 155.047C321.212 153.814 323.468 154.256 325.655 155.442C329.376 157.466 333.051 159.536 336.424 162.095C337.47 162.885 338.54 163.653 339.657 164.048C340.471 163.676 340.634 163.141 340.68 162.537C340.936 159.466 341.192 156.373 341.424 153.303C341.448 152.977 342.215 137.812 342.262 137.579C342.401 136.602 343.029 136.253 344.053 136.463C347.379 137.137 350.658 138.044 354.008 138.37C358.311 138.789 367.173 139.533 378.918 142.557C390.664 145.58 398.34 152.07 402.55 165.537C406.76 179.004 410.226 197.542 410.923 201.31C411.458 204.171 411.644 207.102 411.97 210.009C412.017 210.428 411.97 210.846 411.9 211.242C411.737 212.056 411.156 212.405 410.016 212.498C407.225 212.777 367.079 219.196 366.172 219.01C363.707 218.545 358.869 201.38 358.729 201.101C358.59 200.845 358.311 200.519 358.055 200.473C357.822 200.449 357.427 200.682 357.287 200.915C357.078 201.263 356.985 201.682 356.915 202.101C356.427 205.566 355.892 209.032 355.496 212.521C355.24 214.94 355.101 217.336 351.938 216.405C351.868 216.382 346.983 215.545 344.634 215.173C341.866 214.731 339.075 214.382 336.261 214.196C330.167 213.754 310.21 211.94 306.326 211.87C299.72 211.73 293.091 210.986 286.486 210.823C282.113 210.707 267.18 209.707 265.227 209.474C259.551 208.846 253.899 208.102 248.178 208.404C246.782 208.474 241.665 198.333 240.874 196.309C240.688 195.844 240.455 195.379 240.153 195.007C239.99 194.797 239.572 194.635 239.316 194.681C239.06 194.751 238.711 195.076 238.664 195.332C238.525 196.053 238.455 196.821 238.502 197.565C238.595 198.728 239.758 215.731 239.688 216.219C239.525 217.103 238.758 217.498 238.13 217.452C217.731 217.592 194.96 215.382 192.96 215.335C191.448 215.312 189.587 215.033 189.378 213.521C189.355 212.661 189.355 211.8 189.424 210.986Z" fill="white"/>
<path d="M309.792 260.017L274.182 269.274C252.667 274.67 229.872 275.694 220.638 274.6C211.404 273.531 210.521 273.089 205.404 272.81C203.52 272.693 201.636 272.321 199.775 271.995C198.844 271.833 198.077 271.414 197.542 270.577C196.751 269.321 190.215 260.924 189.052 248.038C189.052 241.712 189.657 225.523 189.75 223.616C189.797 222.546 190.285 221.871 191.192 221.499C191.797 221.267 192.471 221.057 193.099 221.081C203.589 221.639 227.058 221.406 228.291 221.523C229.337 221.592 230.431 221.662 231.57 222.29C231.338 222.662 231.198 223.058 230.919 223.244C230.593 223.453 230.128 223.453 229.733 223.546C227.081 224.197 224.43 224.802 221.801 225.477C221.104 225.663 220.383 225.965 219.778 226.361C218.824 227.012 218.894 228.245 219.848 228.873C220.243 229.128 220.755 229.291 221.22 229.314C221.778 229.338 222.36 229.198 222.941 229.105C226.383 228.547 229.849 228.431 233.315 228.361C235.571 228.314 237.781 228.64 239.944 229.175C242.432 229.78 244.944 230.198 247.48 230.594C250.899 231.129 254.295 231.92 257.667 232.734C262.087 233.804 266.459 235.036 270.856 236.153C270.856 236.153 285.137 240.967 291.975 244.503C298.813 248.038 301.79 250.364 306.163 254.086C307.861 255.528 309.233 257.342 310.629 258.854C310.699 259.691 310.35 259.994 309.792 260.017Z" fill="white"/>
<path d="M413.97 248.038C413.877 255.574 407.993 266.506 406.946 268.041C406.388 268.855 405.992 269.786 405.55 270.693C404.597 272.577 403.225 273.647 401.015 273.507C397.968 273.321 394.921 273.205 391.851 273.088C387.152 272.902 358.008 272.251 332.4 261.296C309.978 251.713 286.16 234.896 282.485 232.64C281.066 231.78 279.787 230.733 278.438 229.733C277.694 229.175 277.228 228.384 276.996 227.453C276.833 226.802 276.693 226.151 276.414 225.546C276.019 224.639 274.856 224.383 274.135 225.035C273.716 225.407 273.414 225.918 273.158 226.43C272.995 226.779 273.019 227.244 272.972 227.663C272.739 229.663 272.437 229.965 270.669 229.291C268.32 228.361 249.387 226.616 248.364 226.36C245.665 225.709 244.084 222.662 245.177 220.08C246.177 217.731 247.643 215.777 250.062 214.638C253.109 213.219 256.249 212.312 259.598 212.288C261.412 212.265 263.25 212.195 265.064 212.312C267.041 212.428 269.018 212.661 270.972 212.94C272.856 213.219 274.74 213.498 276.554 214.01C278.88 214.661 281.252 214.824 283.648 214.963C289.835 215.312 295.999 215.777 302.186 216.242C307.303 216.615 312.397 217.033 317.514 217.452C322.701 217.871 327.887 218.313 333.028 219.22C335.051 219.592 337.121 219.778 339.168 219.964C341.89 220.197 358.218 223.43 361.544 224.034C363.311 224.36 382.152 229.175 385.454 230.291C386.013 230.477 386.548 230.71 387.106 230.826C388.199 231.059 389.618 230.245 389.757 228.64C389.897 226.988 387.711 225.849 385.943 225.151C385.268 224.895 384.361 224.546 384.454 223.685C384.547 222.569 385.268 222.383 386.013 222.22C391.502 221.034 397.479 220.639 403.062 220.057C405.923 219.755 408.83 219.824 412.063 219.731C412.272 220.825 412.621 224.918 412.784 226.081C413.924 233.734 414.063 241.107 413.97 248.038Z" fill="white"/>
<path d="M130.857 289.789V355.799C245.084 340.308 359.59 340.308 473.817 355.822V289.812C359.613 275.042 245.061 275.019 130.857 289.789ZM468.793 350.054L468.281 349.984C358.171 336.773 246.503 336.773 136.416 349.961L135.905 350.031V292.65L136.323 292.603C246.503 280.02 358.241 280.043 468.421 292.626L468.816 292.673V350.054H468.793Z" fill="#222E55"/>
<path d="M136.812 293.463V349.007C191.704 342.448 246.991 339.168 302.279 339.168C357.613 339.168 412.924 342.448 467.886 349.03V293.487C358.032 280.95 246.642 280.95 136.812 293.463Z" fill="#222E55"/>
<path d="M234.827 83.2453C234.687 83.0593 234.548 82.8732 234.385 82.6871C234.106 82.3847 233.826 82.0591 233.524 81.7567C233.105 81.2915 232.687 80.8264 232.245 80.3844C232.105 80.2449 231.966 80.0821 231.826 79.9425C230.058 78.0817 227.872 77.8957 225.942 79.5936C222.104 82.943 218.313 86.3388 214.568 89.8045C214.498 89.8743 214.405 89.9906 214.335 90.1301C212.684 91.8048 212.73 93.8283 214.358 95.6658C214.405 95.7123 214.428 95.7356 214.475 95.7821C214.893 96.2938 215.335 96.7823 215.8 97.2475C216.149 97.6429 216.522 98.015 216.87 98.4105C218.499 100.178 220.662 100.457 222.476 98.9222C226.523 95.4565 230.524 91.9211 234.478 88.3391C236.083 86.9436 236.129 84.8735 234.827 83.2453Z" fill="#222E55"/>
<path d="M200.961 51.031C196.798 46.6815 190.657 40.9132 186.354 36.4009C185.982 36.0055 185.587 35.6333 185.215 35.2379C179.562 29.1905 171.236 28.0973 163.979 32.377C160.304 34.5401 157.722 37.7034 155.21 40.9365C151.395 45.8209 146.441 52.4266 143.999 58.0554C143.603 58.9857 143.324 59.9394 142.975 60.893C142.347 62.7073 143.58 64.9402 144.231 65.6147C144.859 66.2892 148.162 69.8014 148.162 69.8014C148.162 69.8014 154.652 64.3819 157.792 61.7304C161.187 58.8695 166.212 54.5199 169.631 51.659C170.096 51.2869 170.584 50.9148 171.096 50.6356C172.678 49.7518 173.724 49.8913 174.911 51.2171C178.213 54.8689 186.563 63.7307 186.563 63.7307C186.563 63.7307 196.17 55.148 200.961 51.031Z" fill="#222E55"/>
<path d="M232.036 112.39C236.013 116.576 237.176 117.67 240.06 120.81C241.037 121.903 242.27 122.321 243.688 121.996C246.503 121.368 248.317 119.577 249.247 116.925C249.759 115.46 249.364 114.111 248.294 112.948C242.479 106.552 231.012 93.8984 231.012 93.8984L226.267 98.2479C226.244 98.2479 231.966 111.134 232.036 112.39Z" fill="#222E55"/>
<path d="M437.602 56.5206C431.578 60.8701 417.692 72.0579 416.692 72.8022C415.319 73.8256 414.901 75.2909 415.785 76.5934C419.878 82.1292 426.344 90.2467 428.135 92.6424C428.135 92.6424 442.672 67.9177 442.486 58.8C441.998 56.0321 439.463 55.1948 437.602 56.5206Z" fill="#222E55"/>
<path d="M428.856 98.0847L399.689 59.9393C399.689 59.2182 400.085 58.6367 400.899 58.0552C403.573 56.148 426.065 38.9826 430.275 35.7495C429.136 31.5163 423.065 31.493 417.925 32.1443C408.202 33.3538 398.433 34.5633 388.85 36.5636C381.082 38.1917 377.011 43.4949 376.244 51.4729C375.313 61.1022 374.662 71.4759 373.383 81.0821C372.22 89.9439 368.475 102.202 360.125 115.064C358.497 117.576 353.031 124.926 345.634 134.741C346.332 134.881 347.053 135.021 347.797 135.207C348.216 135.3 360.776 137.37 370.01 138.905C388.99 114.32 394.781 112.854 413.808 108.319C415.808 107.83 417.785 107.249 419.739 106.598C427.321 104.086 431.02 100.969 429.205 98.5731C429.089 98.4103 428.973 98.2475 428.856 98.0847ZM406.574 91.8977C406.016 91.3627 406.016 90.4556 406.551 89.9206L409.83 86.5247C410.365 85.9665 411.272 85.9665 411.807 86.5015C412.366 87.0364 412.366 87.9436 411.831 88.4785L408.551 91.8744C408.039 92.4326 407.132 92.4326 406.574 91.8977ZM410.249 96.6658C409.691 96.1309 409.691 95.2237 410.226 94.6888L413.505 91.2929C414.04 90.7347 414.947 90.7347 415.482 91.2696C416.041 91.8046 416.041 92.7117 415.506 93.2467L412.226 96.6425C411.714 97.1775 410.807 97.2008 410.249 96.6658ZM419.204 97.9916L415.924 101.387C415.389 101.946 414.482 101.969 413.947 101.411C413.389 100.876 413.389 99.9687 413.924 99.4337L417.203 96.0378C417.738 95.4796 418.646 95.4796 419.18 96.0146C419.739 96.5495 419.739 97.4334 419.204 97.9916Z" fill="#222E55"/>
<path d="M337.726 62.5445C337.796 61.1489 337.587 59.8696 338.68 59.5208C338.68 59.5208 343.285 60.1953 341.378 60.4976C339.494 60.7768 337.61 65.1728 337.61 65.1728C337.61 65.1728 337.726 62.6608 337.726 62.5445Z" fill="white"/>
<path d="M267.832 70.1504C267.157 64.0564 271.902 54.6596 271.902 54.6596C272.158 54.1479 278.252 48.9843 290.045 46.9375C302.512 44.7744 308.699 45.7978 314.42 46.4025C325.259 47.5422 331.865 58.2416 331.865 58.2416C331.865 58.2416 335.749 68.0803 335.238 72.0809C333.819 83.1756 334.656 90.6651 331.958 100.853C331.004 104.435 326.306 107.691 319.933 112.552C315.653 115.809 312.071 120.135 302.512 120.135C294.534 120.135 291.021 118.158 285.09 112.855C278.717 107.179 272.53 102.016 271.437 98.8524C269.6 93.5726 269.158 82.0359 267.832 70.1504Z" fill="white"/>
<path d="M327.539 124.484C327.004 127.275 318.165 134.718 316.351 136.602C313.862 139.161 308.606 144.301 306.768 149.395C305.093 154 303.512 157.745 300.86 157.745C298.953 157.745 290.905 145.767 288.091 142.441C285.672 139.58 282.764 137.207 280.508 134.207C280.299 133.951 280.136 133.648 279.903 133.416C276.787 130.183 275.879 126.275 276.414 121.926C276.554 120.763 276.624 119.6 276.74 118.437C276.81 117.855 276.856 117.274 277.042 116.716C277.577 115.087 278.857 114.669 280.369 115.529C281.787 116.367 290.533 124.391 301.418 124.531C312.304 124.67 321.235 117.204 324.98 116.437C325.213 116.39 325.468 116.344 325.701 116.297C326.678 116.181 327.376 116.46 327.446 117.437C327.585 119.018 327.632 120.6 327.678 121.693C327.608 122.926 327.678 123.74 327.539 124.484Z" fill="white"/>
<path d="M189.424 210.986C189.727 207.823 190.076 204.659 190.448 201.519C191.215 195.472 191.727 175.632 199.31 161.141C202.077 155.884 205.869 151.535 211.125 148.814C219.382 144.511 256.132 136.975 256.388 137.068C256.737 137.184 256.528 139.277 256.481 139.603C256.179 141.929 255.876 144.231 255.504 146.557C255.155 148.814 255.318 155.559 255.481 156.768C255.667 158.187 256.272 159.024 257.853 158.745C262.273 157.14 260.738 158.024 271.065 151.791C272.111 151.442 272.902 152.209 273.623 152.791C274.414 153.396 275.251 153.931 276.019 154.559C277.531 155.791 279.299 156.489 281.136 157.024C281.904 157.257 282.764 157.21 283.578 157.187C283.834 157.187 284.113 156.861 284.323 156.722C284.299 156.536 284.323 156.443 284.276 156.373C281.88 152.628 279.043 149.325 275.414 146.72C273.53 145.371 271.646 145.278 269.599 146.232C267.39 147.232 265.459 148.651 263.692 150.279C262.715 151.186 261.761 152.116 260.738 152.954C260.412 153.233 259.807 153.396 259.388 153.303C258.854 153.186 258.737 152.605 258.784 152.07C259.086 147.069 259.202 142.068 260.272 137.137C260.924 134.137 262.366 131.532 264.017 129.02C265.343 126.973 267.018 125.252 268.925 123.74C269.134 123.577 269.576 123.484 269.809 123.6C270.041 123.717 270.251 124.112 270.251 124.391C270.251 125.135 270.204 125.903 270.088 126.647C269.786 128.997 270.576 130.904 272.204 132.532C272.437 132.765 272.646 133.044 272.925 133.23C275.67 135.067 285.16 145.441 286.974 148.953C288.858 152.605 295.72 166.537 296.79 168.003C297.86 169.468 299.627 172.561 300.883 172.375C302.139 172.189 304.163 168.561 305.396 165.746C306.814 162.49 310.606 151.442 316.165 144.72C320.747 138.44 327.515 133.486 329.562 131.067C330.725 129.694 331.353 128.089 331.562 126.298C331.679 125.415 331.958 124.531 332.26 123.67C332.423 123.182 333.167 123.089 333.516 123.438C333.912 123.856 334.284 124.298 334.609 124.787C335.842 126.601 336.586 128.624 337.331 130.671C337.563 131.276 337.54 131.974 337.61 132.625C337.935 135.556 337.47 138.463 337.424 141.371C337.401 144.301 337.284 146.325 337.121 149.232C337.052 150.465 336.773 152.605 336.517 153.814C336.354 154.605 335.516 155.001 334.749 154.721C334.214 154.512 332.028 153.093 331.376 152.721C324.236 148.604 321.142 148.465 319.375 148.697C318.328 148.837 317.421 148.953 316.746 149.721C316.304 150.232 315.862 151 315.607 151.605C314.792 153.512 314.048 155.466 313.304 157.396C313.257 157.536 312.583 159.373 313.211 159.513C313.839 159.652 315.165 158.094 315.467 157.815C316.072 157.233 318.374 155.349 318.909 155.047C321.212 153.814 323.468 154.256 325.655 155.442C329.376 157.466 333.051 159.536 336.424 162.095C337.47 162.885 338.54 163.653 339.657 164.048C340.471 163.676 340.634 163.141 340.68 162.537C340.936 159.466 341.192 156.373 341.424 153.303C341.448 152.977 342.215 137.812 342.262 137.579C342.401 136.602 343.029 136.253 344.053 136.463C347.379 137.137 350.658 138.044 354.008 138.37C358.311 138.789 367.173 139.533 378.918 142.557C390.664 145.58 398.34 152.07 402.55 165.537C406.76 179.004 410.226 197.542 410.923 201.31C411.458 204.171 411.644 207.102 411.97 210.009C412.017 210.428 411.97 210.846 411.9 211.242C411.737 212.056 411.156 212.405 410.016 212.498C407.225 212.777 367.079 219.196 366.172 219.01C363.707 218.545 358.869 201.38 358.729 201.101C358.59 200.845 358.311 200.519 358.055 200.473C357.822 200.449 357.427 200.682 357.287 200.915C357.078 201.263 356.985 201.682 356.915 202.101C356.427 205.566 355.892 209.032 355.496 212.521C355.24 214.94 355.101 217.336 351.938 216.405C351.868 216.382 346.983 215.545 344.634 215.173C341.866 214.731 339.075 214.382 336.261 214.196C330.167 213.754 310.21 211.94 306.326 211.87C299.72 211.73 293.091 210.986 286.486 210.823C282.113 210.707 267.18 209.707 265.227 209.474C259.551 208.846 253.899 208.102 248.178 208.404C246.782 208.474 241.665 198.333 240.874 196.309C240.688 195.844 240.455 195.379 240.153 195.007C239.99 194.797 239.572 194.635 239.316 194.681C239.06 194.751 238.711 195.076 238.664 195.332C238.525 196.053 238.455 196.821 238.502 197.565C238.595 198.728 239.758 215.731 239.688 216.219C239.525 217.103 238.758 217.498 238.13 217.452C217.731 217.592 194.96 215.382 192.96 215.335C191.448 215.312 189.587 215.033 189.378 213.521C189.355 212.661 189.355 211.8 189.424 210.986Z" fill="white"/>
<path d="M309.792 260.017L274.182 269.274C252.667 274.67 229.872 275.694 220.638 274.6C211.404 273.531 210.521 273.089 205.404 272.81C203.52 272.693 201.636 272.321 199.775 271.995C198.844 271.833 198.077 271.414 197.542 270.577C196.751 269.321 190.215 260.924 189.052 248.038C189.052 241.712 189.657 225.523 189.75 223.616C189.797 222.546 190.285 221.871 191.192 221.499C191.797 221.267 192.471 221.057 193.099 221.081C203.589 221.639 227.058 221.406 228.291 221.523C229.337 221.592 230.431 221.662 231.57 222.29C231.338 222.662 231.198 223.058 230.919 223.244C230.593 223.453 230.128 223.453 229.733 223.546C227.081 224.197 224.43 224.802 221.801 225.477C221.104 225.663 220.383 225.965 219.778 226.361C218.824 227.012 218.894 228.245 219.848 228.873C220.243 229.128 220.755 229.291 221.22 229.314C221.778 229.338 222.36 229.198 222.941 229.105C226.383 228.547 229.849 228.431 233.315 228.361C235.571 228.314 237.781 228.64 239.944 229.175C242.432 229.78 244.944 230.198 247.48 230.594C250.899 231.129 254.295 231.92 257.667 232.734C262.087 233.804 266.459 235.036 270.856 236.153C270.856 236.153 285.137 240.967 291.975 244.503C298.813 248.038 301.79 250.364 306.163 254.086C307.861 255.528 309.233 257.342 310.629 258.854C310.699 259.691 310.35 259.994 309.792 260.017Z" fill="white"/>
<path d="M413.97 248.038C413.877 255.574 407.993 266.506 406.946 268.041C406.388 268.855 405.992 269.786 405.55 270.693C404.597 272.577 403.225 273.647 401.015 273.507C397.968 273.321 394.921 273.205 391.851 273.088C387.152 272.902 358.008 272.251 332.4 261.296C309.978 251.713 286.16 234.896 282.485 232.64C281.066 231.78 279.787 230.733 278.438 229.733C277.694 229.175 277.228 228.384 276.996 227.453C276.833 226.802 276.693 226.151 276.414 225.546C276.019 224.639 274.856 224.383 274.135 225.035C273.716 225.407 273.414 225.918 273.158 226.43C272.995 226.779 273.019 227.244 272.972 227.663C272.739 229.663 272.437 229.965 270.669 229.291C268.32 228.361 249.387 226.616 248.364 226.36C245.665 225.709 244.084 222.662 245.177 220.08C246.177 217.731 247.643 215.777 250.062 214.638C253.109 213.219 256.249 212.312 259.598 212.288C261.412 212.265 263.25 212.195 265.064 212.312C267.041 212.428 269.018 212.661 270.972 212.94C272.856 213.219 274.74 213.498 276.554 214.01C278.88 214.661 281.252 214.824 283.648 214.963C289.835 215.312 295.999 215.777 302.186 216.242C307.303 216.615 312.397 217.033 317.514 217.452C322.701 217.871 327.887 218.313 333.028 219.22C335.051 219.592 337.121 219.778 339.168 219.964C341.89 220.197 358.218 223.43 361.544 224.034C363.311 224.36 382.152 229.175 385.454 230.291C386.013 230.477 386.548 230.71 387.106 230.826C388.199 231.059 389.618 230.245 389.757 228.64C389.897 226.988 387.711 225.849 385.943 225.151C385.268 224.895 384.361 224.546 384.454 223.685C384.547 222.569 385.268 222.383 386.013 222.22C391.502 221.034 397.479 220.639 403.062 220.057C405.923 219.755 408.83 219.824 412.063 219.731C412.272 220.825 412.621 224.918 412.784 226.081C413.924 233.734 414.063 241.107 413.97 248.038Z" fill="white"/>
<path d="M220.429 142.626C222.034 142.068 224.151 141.394 226.337 140.928C229.268 140.324 232.222 139.649 235.013 139.021C236.176 138.765 237.222 138.463 238.223 138.114C238.804 137.905 239.386 137.788 239.967 137.626C238.595 135.904 237.525 134.509 236.85 133.485C232.664 127.391 230.245 120.902 229.896 113.761C229.826 112.505 224.267 99.6663 224.22 99.7128C223.476 100.364 224.151 99.7593 222.313 101.388C219.429 103.923 216.754 100.504 214.289 97.9218C211.916 95.4331 209.125 92.1303 212.195 89.3624C217.661 84.4547 219.382 82.9428 224.802 77.9886C225.267 77.5466 225.709 76.7093 225.639 76.1278C225.104 72.0342 208.66 53.4732 204.147 53.2871C202.798 53.2406 201.705 53.636 200.682 54.5664C196.239 58.6368 185.4 68.522 185.4 68.522L182.098 64.847L160.885 84.3384C164.932 89.8043 187.982 115.18 214.847 144.394C216.708 143.836 218.568 143.278 220.429 142.626Z" fill="#222E55"/>
<path d="M294.138 60.4973C291.766 60.5438 289.696 60.1019 287.602 60.0786C285.462 60.0554 283.299 59.9623 281.159 60.1252C279.043 60.288 276.949 60.7066 274.74 61.0323C274.414 60.7764 274.6 60.381 274.786 60.0321C276.415 57.1945 278.88 55.9385 282.136 55.9385C284.625 55.9385 287.067 56.1711 289.533 56.4734C291.905 56.7758 293.301 57.8923 294.138 60.4973Z" fill="#222E55"/>
<path d="M295.255 104.132C299.209 104.97 304.21 104.737 308.21 104.132C310.583 103.76 309.513 100.132 307.163 100.481C303.791 100.992 299.651 101.178 296.324 100.481C294.022 99.9922 292.975 103.644 295.255 104.132Z" fill="#222E55"/>
<path d="M320.142 95.1774C320.049 94.4099 319.212 93.3865 318.444 93.1074C318.258 93.1074 318.049 93.0376 317.932 93.1074C315.653 94.6192 312.746 94.8053 310.21 94.5727C309.768 94.5262 309.326 94.3633 308.885 94.247C306.838 93.5958 304.907 93.2702 302.814 94.2936C302.721 94.3401 302.651 94.3633 302.558 94.3866C302.465 94.3633 302.395 94.3168 302.302 94.2936C300.209 93.2702 298.278 93.5958 296.231 94.247C295.79 94.3866 295.348 94.5494 294.906 94.596C292.37 94.8053 288.975 94.5727 287.393 93.1539C285.811 91.7583 285.02 94.2238 284.927 94.9914C284.834 95.7822 284.904 96.8289 285.555 97.5034C288.463 96.4567 288.998 96.5032 292.301 97.1312C293.301 97.3173 294.301 97.4569 295.324 97.5034C297.511 97.5964 298.581 97.6197 300.767 97.6429V97.6662C301.465 97.6662 301.837 97.6662 302.535 97.6662C303.233 97.6662 303.605 97.6662 304.303 97.6662V97.6429C306.489 97.6197 307.559 97.5732 309.745 97.5034C310.769 97.4569 311.769 97.3173 312.769 97.1312C316.072 96.5032 316.63 96.4567 319.514 97.5034C320.212 96.8056 320.235 95.9683 320.142 95.1774Z" fill="#222E55"/>
<path d="M327.05 60.3347C326.12 57.4971 323.677 56.1945 319.863 56.0085C316.955 55.8689 313.583 55.7991 310.815 56.5899C308.861 57.1482 306.954 58.474 305.651 62.428C305.651 62.428 305.14 63.1026 305.349 67.5218C305.582 71.9179 307.722 79.9424 308.024 80.6401C308.443 81.5938 308.582 82.6172 308.187 83.5708C307.791 84.5244 305.721 85.0594 304.582 85.827C303.116 86.8271 300.418 87.0132 298.627 85.9898C295.557 84.2454 293.068 86.0596 293.347 82.1055C291.51 81.1518 291.603 85.6642 293.65 86.8504C295.278 87.804 296.045 87.711 298.953 89.06C301.255 90.223 303.326 89.7113 304.396 89.2229C307.884 87.6645 311.722 86.2922 311.048 83.7569C307.908 72.1272 307.303 69.8245 307.559 64.7075C307.652 62.9863 308.699 61.5442 310.373 60.986C312.048 60.4045 312.048 60.4045 313.606 60.2184C314.211 60.1486 315.002 60.0788 315.886 60.0091C317.398 59.9858 318.909 59.9625 320.421 60.0788C322.538 60.2417 324.631 60.6603 326.841 60.986C327.05 60.8231 327.05 60.5906 326.957 60.3347C327.004 60.3347 327.027 60.3347 327.05 60.3347Z" fill="#222E55"/>
<path d="M327.12 64.242C326.818 64.0095 326.515 63.7769 326.166 63.6373C324.771 63.1023 323.352 62.7069 321.887 62.4511C320.352 62.1719 318.793 62.0789 317.212 62.1952C317.212 62.1952 311.885 62.4511 310.978 63.6838C310.048 64.9166 314.165 68.1961 314.165 68.1961C314.258 66.9634 313.327 65.8935 313.537 65.3817C314.374 65.2887 315.211 65.1957 316.049 65.0794C316.142 65.1724 316.211 65.2422 316.281 65.3585C316.723 66.5912 317.933 67.4751 319.375 67.4984C320.165 67.4984 320.886 67.2425 321.491 66.8006C322.166 66.2889 322.654 65.5213 322.724 64.6142C324.073 64.7537 324.771 64.8468 326.097 65.0794C326.376 65.1259 326.701 65.0329 327.004 64.9631C327.236 64.8933 327.329 64.4049 327.12 64.242Z" fill="#222E55"/>
<path d="M276.252 64.242C276.554 64.0095 276.856 63.7769 277.205 63.6373C278.601 63.1023 280.02 62.7069 281.485 62.4511C283.02 62.1719 284.579 62.0789 286.16 62.1952C286.16 62.1952 291.487 62.4511 292.394 63.6838C293.301 64.9166 289.207 68.1961 289.207 68.1961C289.114 66.9634 290.045 65.8935 289.835 65.3817C288.998 65.2887 288.16 65.1957 287.323 65.0794C287.23 65.1724 287.16 65.2422 287.091 65.3585C286.649 66.5912 285.439 67.4751 283.997 67.4984C283.206 67.4984 282.485 67.2425 281.881 66.8006C281.206 66.2889 280.717 65.5213 280.648 64.6142C279.299 64.7537 278.601 64.8468 277.275 65.0794C276.996 65.1259 276.67 65.0329 276.368 64.9631C276.135 64.8933 276.042 64.4049 276.252 64.242Z" fill="#222E55"/>
<path d="M280.95 110.157C280.95 110.157 290.928 106.598 301.232 106.598C311.536 106.598 323.003 111.878 323.003 111.878L317.932 117.297C317.932 117.297 310.117 112.971 301.488 112.971C292.882 112.971 286.09 117.227 286.09 117.227L280.95 110.157Z" fill="#222E55"/>
<path d="M265.436 56.0552C265.436 56.0552 272.46 77.4538 276.81 85.362C281.159 93.2469 284.346 109.738 284.346 109.738L279.159 111.017C279.159 111.017 275.996 93.8749 270.809 88.3392C265.622 82.8035 259.319 57.1716 259.319 57.1716L265.436 56.0552Z" fill="#222E55"/>
<path d="M336.098 56.0552C336.098 56.0552 332.958 74.6859 328.702 82.0127C324.538 89.1765 320.096 112.25 320.096 112.25L325.631 113.622C325.631 113.622 329.353 90.293 334.214 85.362C339.075 80.431 342.262 57.1949 342.262 57.1949L336.098 56.0552Z" fill="#222E55"/>
<path d="M150.86 323.12L152.907 341.96L149.581 342.332L147.534 323.492L150.86 323.12Z" fill="white"/>
<path d="M157.187 322.445L157.931 329.702L163.397 329.143L162.653 321.886L165.956 321.561L167.863 340.424L164.56 340.75L163.769 332.865L158.303 333.423L159.094 341.331L155.768 341.657L153.861 322.794L157.187 322.445Z" fill="white"/>
<path d="M171.747 321.002L176.074 328.538L176.376 328.515L175.678 320.653L178.865 320.374L179.562 328.236L179.865 328.213L182.842 320.025L186.703 319.677L182.447 328.562C184.447 328.655 185.587 330.446 186.424 332.841C187.098 334.749 187.657 336.772 188.447 338.563L185.098 338.866C184.54 337.656 184.098 336.098 183.679 334.772C183.028 332.795 182.191 331.143 180.376 331.306L179.842 331.353L180.539 339.261L177.353 339.54L176.655 331.632L176.12 331.678C174.329 331.841 173.817 333.609 173.515 335.679C173.329 337.051 173.189 338.656 172.84 339.959L169.491 340.261C169.98 338.354 170.212 336.26 170.538 334.376C170.933 331.888 171.701 329.98 173.654 329.352L167.886 321.351L171.747 321.002Z" fill="white"/>
<path d="M198.1 329.818L192.681 330.237L193.03 334.726L199.077 334.261L199.356 337.773L189.959 338.494L188.494 319.607L197.565 318.909L197.844 322.422L192.099 322.864L192.402 326.794L197.821 326.376L198.1 329.818Z" fill="white"/>
<path d="M203.682 318.444L204.171 325.725L209.66 325.352L209.172 318.072L212.498 317.84L213.8 336.773L210.474 337.005L209.939 329.097L204.473 329.469L205.008 337.377L201.659 337.61L200.379 318.7L203.682 318.444Z" fill="white"/>
<path d="M224.988 328.074L219.568 328.399L219.824 332.888L225.872 332.539L226.081 336.051L216.684 336.61L215.591 317.677L224.686 317.142L224.895 320.654L219.15 320.979L219.382 324.91L224.802 324.585L224.988 328.074Z" fill="white"/>
<path d="M227.43 317.212C228.454 316.933 229.872 316.7 231.919 316.607C233.966 316.514 235.455 316.933 236.501 317.909C237.478 318.817 238.199 320.352 238.292 322.212C238.385 324.073 237.99 325.655 237.153 326.771C236.083 328.213 234.431 328.911 232.454 329.004C232.012 329.027 231.617 329.027 231.315 328.981L231.64 335.749L228.337 335.912L227.43 317.212ZM231.152 325.655C231.431 325.725 231.78 325.748 232.268 325.725C234.036 325.632 235.083 324.422 234.989 322.492C234.896 320.747 233.92 319.747 232.245 319.84C231.57 319.863 231.105 319.98 230.873 320.073L231.152 325.655Z" fill="white"/>
<path d="M243.642 316.211L243.921 323.491L249.41 323.282L249.131 316.002L252.457 315.862L253.202 334.795L249.876 334.935L249.573 327.004L244.084 327.213L244.386 335.144L241.037 335.284L240.293 316.328L243.642 316.211Z" fill="white"/>
<path d="M258.83 315.676L259.435 334.609L256.086 334.725L255.481 315.769L258.83 315.676Z" fill="white"/>
<path d="M277.554 333.633C276.95 334.051 275.577 334.517 273.786 334.563C268.692 334.679 265.971 330.609 265.855 325.213C265.715 318.747 269.227 315.072 273.693 314.979C275.414 314.932 276.74 315.374 277.345 315.746L276.74 319.165C276.066 318.817 275.112 318.491 273.926 318.514C271.274 318.561 269.274 320.677 269.367 324.887C269.437 328.678 271.251 331.051 274.228 330.981C275.228 330.958 276.345 330.656 276.996 330.307L277.554 333.633Z" fill="white"/>
<path d="M282.601 315.118L282.671 320.747C282.718 323.794 282.694 326.794 282.601 329.33H282.694C283.439 327.097 284.392 324.585 285.253 322.538L288.346 315.048L291.766 315.002L291.975 333.982L288.905 334.005L288.835 328.399C288.812 325.469 288.812 322.887 288.998 320.398H288.928C288.277 322.654 287.37 325.166 286.509 327.19L283.578 334.075L279.764 334.121L279.554 315.142L282.601 315.118Z" fill="white"/>
<path d="M305.675 333.423C305.07 333.818 303.674 334.26 301.883 334.284C296.79 334.284 294.138 330.19 294.138 324.794C294.138 318.328 297.72 314.722 302.186 314.699C303.907 314.699 305.233 315.141 305.814 315.537L305.14 318.932C304.465 318.56 303.512 318.235 302.325 318.235C299.674 318.235 297.627 320.305 297.627 324.515C297.627 328.306 299.395 330.702 302.372 330.702C303.372 330.702 304.489 330.423 305.163 330.074L305.675 333.423Z" fill="white"/>
<path d="M311.234 318.63L307.28 318.607L307.303 315.002L318.654 315.095L318.63 318.7L314.606 318.677L314.49 334.051L311.141 334.028L311.234 318.63Z" fill="white"/>
<path d="M329.19 326.189L323.771 326.096L323.701 330.609L329.771 330.702L329.725 334.214L320.305 334.051L320.607 315.071L329.725 315.211L329.655 318.723L323.887 318.63L323.817 322.561L329.26 322.654L329.19 326.189Z" fill="white"/>
<path d="M344.611 327.353C344.611 325.073 344.611 322.305 344.681 319.561H344.611C344.099 321.98 343.401 324.654 342.773 326.864L340.773 334.214L338.191 334.121L336.819 326.771C336.4 324.515 335.958 321.794 335.679 319.305H335.633C335.47 321.863 335.33 324.794 335.168 327.143L334.702 334.33L331.609 334.237L333.051 315.304L337.494 315.421L338.773 321.794C339.168 323.98 339.564 326.376 339.843 328.609H339.913C340.378 326.422 340.959 323.933 341.494 321.84L343.239 315.583L347.588 315.7L347.891 334.703L344.634 334.609L344.611 327.353Z" fill="white"/>
<path d="M354.264 315.955L354.054 321.584C353.938 324.631 353.775 327.632 353.543 330.144H353.636C354.496 327.957 355.566 325.492 356.52 323.491L359.985 316.165L363.405 316.304L362.66 335.237L359.59 335.121L359.799 329.539C359.916 326.608 360.055 324.026 360.358 321.561H360.288C359.52 323.794 358.474 326.259 357.52 328.213L354.264 334.935L350.449 334.795L351.193 315.839L354.264 315.955Z" fill="white"/>
<path d="M373.383 316.746L375.174 323.654C375.499 325.027 375.755 326.166 376.011 327.329H376.081C376.314 326.515 376.616 325.282 377.081 323.701L379.035 317.049L382.524 317.235L379.291 326.422C378.244 329.33 377.174 332.144 375.988 333.842C374.941 335.33 373.662 336.238 371.941 336.145C371.173 336.098 370.731 335.958 370.313 335.749L370.731 332.33C370.987 332.423 371.336 332.493 371.824 332.516C372.848 332.563 373.592 331.702 373.895 330.841C374.034 330.539 373.988 330.283 373.895 329.958L369.615 316.537L373.383 316.746Z" fill="white"/>
<path d="M387.292 317.56L386.803 325.422L387.083 325.445L391.641 317.84L395.689 318.095L390.037 326.166C391.897 326.911 392.642 328.632 393.107 330.958C393.502 333.005 393.851 335.098 394.433 337.005L390.851 336.773C390.432 335.447 390.246 333.982 389.967 332.54C389.595 330.376 389.013 328.702 387.222 328.585L386.594 328.539L386.106 336.447L382.803 336.238L383.966 317.328L387.292 317.56Z" fill="white"/>
<path d="M397.34 318.444C398.387 318.305 399.829 318.235 401.876 318.375C403.922 318.514 405.364 319.142 406.272 320.212C407.155 321.236 407.667 322.84 407.528 324.701C407.388 326.562 406.807 328.097 405.853 329.097C404.62 330.4 402.899 330.888 400.922 330.749C400.48 330.725 400.085 330.656 399.782 330.586L399.294 337.354L395.991 337.122L397.34 318.444ZM400.038 327.26C400.317 327.353 400.666 327.423 401.154 327.446C402.922 327.562 404.085 326.492 404.225 324.562C404.341 322.817 403.481 321.724 401.829 321.608C401.155 321.561 400.689 321.608 400.433 321.677L400.038 327.26Z" fill="white"/>
<path d="M411.179 333.33L409.737 338.098L406.295 337.819L412.296 319.281L416.669 319.63L419.716 338.889L416.134 338.61L415.389 333.679L411.179 333.33ZM415.157 330.446L414.552 326.352C414.389 325.212 414.226 323.794 414.11 322.654H414.063C413.761 323.747 413.412 325.166 413.087 326.236L411.9 330.167L415.157 330.446Z" fill="white"/>
<path d="M422.832 319.049C421.995 318.979 421.437 318.049 421.507 317.002C421.6 315.909 422.344 315.118 423.205 315.211C424.019 315.281 424.554 316.188 424.461 317.281C424.367 318.305 423.67 319.119 422.832 319.049ZM426.67 320.468L425.019 339.378L421.693 339.075L423.344 320.189L426.67 320.468ZM427.345 319.444C426.484 319.374 425.949 318.444 426.019 317.397C426.112 316.304 426.81 315.513 427.694 315.606C428.531 315.676 429.089 316.583 428.973 317.677C428.903 318.7 428.205 319.514 427.345 319.444Z" fill="white"/>
<path d="M433.02 321.049L432.322 328.306L437.788 328.818L438.486 321.561L441.789 321.863L439.998 340.727L436.695 340.424L437.439 332.516L431.973 332.004L431.229 339.913L427.903 339.587L429.694 320.724L433.02 321.049Z" fill="white"/>
<path d="M447.952 322.538L447.371 328.12C447.045 331.144 446.696 334.121 446.301 336.633H446.394C447.394 334.493 448.627 332.12 449.72 330.19L453.651 323.119L457.047 323.468L455.07 342.308L452.023 341.982L452.604 336.423C452.907 333.516 453.232 330.957 453.674 328.515H453.604C452.697 330.678 451.488 333.074 450.418 334.958L446.72 341.447L442.928 341.052L444.905 322.212L447.952 322.538Z" fill="white"/>
<path d="M217.289 292.068L217.405 293.905L211.544 294.277L211.823 298.859C212.242 298.766 213.056 298.65 213.498 298.627C214.777 298.534 216.08 298.813 217.08 299.557C218.15 300.325 218.941 301.627 219.08 303.628C219.173 305.232 218.824 306.465 218.173 307.396C217.15 308.838 215.359 309.489 213.498 309.605C212.265 309.675 211.335 309.652 210.753 309.582L209.683 292.556L217.289 292.068ZM212.405 307.814C212.823 307.884 213.288 307.884 213.893 307.837C214.986 307.768 216.056 307.256 216.684 306.349C217.103 305.721 217.336 304.86 217.266 303.79C217.173 302.465 216.684 301.604 215.987 301.069C215.242 300.511 214.312 300.301 213.358 300.371C212.963 300.395 212.405 300.488 211.963 300.557L212.405 307.814Z" fill="white"/>
<path d="M229.849 291.37L230.779 308.443L229.012 308.536L228.174 293.301L223.685 293.557L223.965 298.72C224.174 302.419 224.267 306.559 222.453 308.28C221.964 308.722 221.197 309.164 220.429 309.21L220.104 307.443C220.638 307.28 221.173 306.884 221.476 306.442C222.499 305.047 222.406 301.721 222.267 298.976L221.871 291.789L229.849 291.37Z" fill="white"/>
<path d="M235.804 302.813L234.641 308.256L232.826 308.349L236.664 291.044L238.781 290.951L244.224 307.837L242.339 307.931L240.641 302.627L235.804 302.813ZM240.176 300.883L238.618 296.022C238.269 294.929 238.013 293.905 237.757 292.928H237.711C237.548 293.952 237.385 294.998 237.176 296.045L236.059 301.046L240.176 300.883Z" fill="white"/>
<path d="M252.783 290.37L252.853 292.23L247.387 292.44L247.968 307.698L246.224 307.768L245.573 290.672L252.783 290.37Z" fill="white"/>
<path d="M265.576 298.371C265.762 304.256 263.017 307.465 259.528 307.559C255.923 307.675 253.295 304.232 253.132 299.069C252.969 293.649 255.551 289.998 259.179 289.905C262.901 289.788 265.413 293.301 265.576 298.371ZM255.016 298.976C255.132 302.628 256.807 305.861 259.575 305.768C262.366 305.675 263.831 302.418 263.715 298.534C263.622 295.138 262.087 291.626 259.156 291.719C256.249 291.789 254.9 295.208 255.016 298.976Z" fill="white"/>
<path d="M276.647 289.742L276.973 305.046L278.159 305.07V310.931L276.787 310.954L276.577 306.837L267.995 307.023L267.971 311.14L266.599 311.164L266.366 305.302L267.39 305.232C267.878 304.046 268.343 302.79 268.646 301.441C269.065 299.441 269.204 297.161 269.134 294.231L269.041 289.881L276.647 289.742ZM270.786 294.929C270.855 297.673 270.693 299.976 270.251 301.93C269.995 303.139 269.599 304.279 269.204 305.209L275.228 305.093L274.949 291.649L270.739 291.742L270.786 294.929Z" fill="white"/>
<path d="M281.927 289.672L282.183 306.768L280.438 306.791L280.182 289.696L281.927 289.672Z" fill="white"/>
<path d="M286.788 289.579L286.858 296.79C286.881 299.488 286.858 301.744 286.765 304.023L286.811 304.047C287.486 302.256 288.323 300.395 289.277 298.348L293.603 289.486L295.348 289.463L295.487 306.582L293.836 306.605L293.766 299.302C293.743 296.534 293.743 294.51 293.859 292.347L293.789 292.324C293.138 294.208 292.231 296.208 291.324 298.115L287.137 306.675L285.253 306.698L285.114 289.579H286.788ZM288.998 285.951C289.091 286.765 289.3 287.556 290.254 287.532C291.184 287.532 291.394 286.765 291.463 285.927H292.812C292.719 287.625 291.928 288.672 290.207 288.695C288.556 288.719 287.765 287.649 287.649 285.974L288.998 285.951Z" fill="white"/>
<path d="M300.372 289.51V296.673H306.954V289.51H308.722L308.698 306.628H306.931V298.604H300.348V306.628H298.604L298.627 289.51H300.372Z" fill="white"/>
<path d="M313.583 289.533L313.513 296.743C313.49 299.441 313.42 301.697 313.281 303.977L313.327 304C314.025 302.232 314.886 300.371 315.909 298.348L320.398 289.579L322.142 289.602L321.98 306.721L320.328 306.698L320.398 299.395C320.421 296.627 320.468 294.58 320.631 292.44L320.561 292.417C319.886 294.301 318.933 296.255 317.979 298.162L313.629 306.628L311.745 306.605L311.908 289.486L313.583 289.533Z" fill="white"/>
<path d="M326.98 289.742L326.841 296.953C326.794 299.651 326.701 301.907 326.538 304.186L326.585 304.209C327.306 302.442 328.19 300.604 329.213 298.604L333.795 289.882L335.563 289.905L335.237 307.001L333.586 306.977L333.726 299.697C333.772 296.929 333.842 294.906 334.028 292.743L333.958 292.719C333.26 294.58 332.284 296.557 331.33 298.441L326.911 306.861L325.027 306.814L325.352 289.719L326.98 289.742ZM329.283 286.183C329.353 286.997 329.539 287.788 330.492 287.812C331.423 287.835 331.656 287.067 331.749 286.23L333.097 286.253C332.958 287.951 332.144 288.975 330.423 288.951C328.771 288.928 328.004 287.835 327.934 286.16L329.283 286.183Z" fill="white"/>
<path d="M349.844 289.626L349.798 291.137C352.659 291.393 355.45 293.673 355.264 299.046C355.078 304.419 352.147 306.396 349.24 306.489L349.193 308.094L347.495 308.047L347.542 306.442C344.704 306.117 341.89 304.116 342.053 298.72C342.239 293.115 345.448 291.207 348.1 291.091L348.146 289.579L349.844 289.626ZM348.03 292.696C346.239 292.766 344.03 294.231 343.89 298.673C343.75 302.767 345.634 304.558 347.635 304.86L348.03 292.696ZM349.309 304.93C351.263 304.791 353.31 303.209 353.45 298.976C353.589 294.58 351.682 292.952 349.728 292.766L349.309 304.93Z" fill="white"/>
<path d="M369.243 299.487C368.987 305.372 366.01 308.373 362.544 308.21C358.939 308.047 356.566 304.442 356.799 299.255C357.031 293.835 359.869 290.393 363.521 290.556C367.219 290.719 369.475 294.417 369.243 299.487ZM358.683 299.301C358.52 302.953 359.962 306.302 362.73 306.419C365.521 306.535 367.242 303.395 367.405 299.511C367.545 296.115 366.289 292.486 363.358 292.37C360.427 292.23 358.846 295.533 358.683 299.301Z" fill="white"/>
<path d="M373.825 291.3L373.453 298.464L380.035 298.813L380.407 291.649L382.175 291.742L381.268 308.838L379.5 308.745L379.919 300.72L373.336 300.371L372.918 308.396L371.173 308.303L372.08 291.207L373.825 291.3Z" fill="white"/>
<path d="M394.642 292.533L393.688 307.814L394.874 307.93L394.386 313.769L393.014 313.676L393.153 309.559L384.594 309.024L384.222 313.117L382.849 313.024L383.105 307.163L384.129 307.186C384.71 306.046 385.292 304.837 385.687 303.511C386.269 301.557 386.594 299.301 386.78 296.347L387.059 292.021L394.642 292.533ZM388.362 297.208C388.199 299.952 387.85 302.232 387.245 304.139C386.897 305.302 386.385 306.419 385.943 307.326L391.944 307.698L392.781 294.277L388.571 294.021L388.362 297.208Z" fill="white"/>
<path d="M329.423 164.816C329.423 160.583 336.028 139.254 339.168 132.927C342.308 126.601 344.262 118.297 347.588 118.297C350.914 118.297 377.174 123.88 379.128 124.787C381.082 125.694 381.686 128.555 381.686 128.555L377.918 140.022C377.918 140.022 372.941 145.301 370.685 149.535C368.429 153.768 362.474 172.096 360.218 172.748C357.939 173.376 329.423 169.049 329.423 164.816Z" fill="#222E55"/>
<path d="M248.759 170.933C245.293 171.305 241.897 172.398 239.944 168.258C237.827 163.722 232.431 147.743 229.268 141.696C226.104 135.672 220.825 124.181 231.826 121.321C242.851 118.46 261.249 117.087 261.994 118.297C262.738 119.506 264.25 132.927 266.134 139.882C268.018 146.813 269.692 158.791 270.158 161.629C270.669 164.49 255.853 170.165 248.759 170.933Z" fill="#222E55"/>
<path d="M232.687 217.591C224.872 216.731 231.361 203.403 237.85 193.309C244.34 183.191 244.852 178.678 252.225 176.864C256.551 175.794 264.11 172.422 271.228 172.817C278.345 173.236 293.161 175.189 302.349 174.887C311.536 174.585 328.888 174.143 335.819 174.282C342.75 174.422 354.38 176.841 359.055 187.401C363.73 197.96 379.128 219.638 368.708 219.638C358.287 219.638 327.376 213.823 303.349 212.777C279.973 211.753 260.761 208.799 251.853 209.102C242.967 209.427 247.224 219.173 232.687 217.591Z" fill="#222E55"/>
<path d="M242.27 148.023C242.27 148.023 257.807 144.464 259.924 144.65C262.04 144.836 268.669 178.795 268.669 178.795L250.852 184.982C250.852 184.982 243.177 155.117 242.27 148.023Z" fill="#222E55"/>
<path d="M335.284 177.446C335.284 177.446 335.958 162.816 337.935 155.722C339.889 148.627 340.634 145.743 342.239 146.069C343.82 146.371 358.915 153.465 358.915 153.465C358.915 153.465 351.077 171.864 353.17 183.051C355.287 194.193 335.284 177.446 335.284 177.446Z" fill="#222E55"/>
<path d="M336.47 162.094C336.47 162.094 337.982 146.255 341.006 145.557C344.03 144.859 358.125 151.488 358.916 153.465C359.823 155.721 355.683 169.188 353.985 169.188C350.961 169.188 356.659 154.419 354.892 153.814C353.147 153.209 344.053 148.79 342.239 149.581C340.401 150.395 340.192 161.629 336.47 162.094Z" fill="white"/>
<path d="M239.083 148.906C238.734 145.278 256.295 143.789 259.296 144.185C262.296 144.58 265.087 158.815 263.994 159.117C261.203 159.955 260.179 148.953 257.784 148.046C253.458 146.418 241.595 149.046 242.246 151.07C242.898 153.093 248.526 164.793 245.805 164.793C243.13 164.816 239.851 156.908 239.083 148.906Z" fill="white"/>
<path d="M231.524 128.438C231.314 124.74 251.085 123.182 256.551 123.182C260.389 123.182 261.877 135.509 260.854 137.486C259.854 139.463 245.875 137.556 239.618 139.882C234.757 141.696 232.105 138.975 231.524 128.438Z" fill="white"/>
<path d="M344.099 136.463C341.192 137.114 345.89 122.903 348.775 123.205C351.659 123.507 370.964 127.95 373.988 130.159C377.011 132.369 368.056 145.069 366.452 145.069C364.847 145.069 345.937 136.044 344.099 136.463Z" fill="white"/>
<path d="M248.433 191.867L262.203 191.192C263.343 191.146 264.273 192.216 264.227 193.518C264.064 197.984 263.692 206.985 263.343 206.985H246.41C245.154 206.985 244.247 205.636 244.526 204.241L246.642 193.611C246.829 192.634 247.573 191.913 248.433 191.867Z" fill="white"/>
<path d="M266.459 204.729L267.367 193.146C267.46 192.029 268.204 191.192 269.111 191.192H285.486C286.486 191.192 287.277 192.215 287.23 193.471L286.718 205.985C286.672 207.171 285.858 208.078 284.904 208.032L268.111 207.101C267.111 207.055 266.366 205.962 266.459 204.729Z" fill="white"/>
<path d="M291.696 191.192H308.536C309.28 191.192 309.861 191.913 309.861 192.797V206.427C309.861 207.311 309.257 208.032 308.536 208.032H291.324C290.579 208.032 289.975 207.287 289.998 206.38L290.37 192.75C290.393 191.89 290.975 191.192 291.696 191.192Z" fill="white"/>
<path d="M314.862 191.192H333.353C334.237 191.192 334.958 192.052 334.935 193.076L334.54 206.264C334.516 207.241 333.819 208.032 332.958 208.032H314.862C314.002 208.032 313.281 207.218 313.281 206.217V193.029C313.281 192.006 314.002 191.192 314.862 191.192Z" fill="white"/>
<path d="M339.564 191.262L356.403 191.704C357.171 191.727 357.776 192.494 357.752 193.402L359.799 206.45C359.776 207.334 359.148 208.032 358.404 208.032H339.029C338.238 208.032 337.587 207.241 337.633 206.31L338.122 192.82C338.145 191.936 338.796 191.215 339.564 191.262Z" fill="white"/>
<path d="M273.786 176.004C273.786 176.004 294.371 176.911 302.279 177.26C308.675 177.539 323.957 177.213 329.539 177.097C330.725 177.074 331.725 177.957 331.818 179.144C332.028 181.888 332.237 186.401 331.213 186.494C329.748 186.633 308.722 187.726 296.092 187.68C283.462 187.633 273.833 186.005 273.367 185.773C272.879 185.54 273.205 175.98 273.786 176.004Z" fill="white"/>
<path d="M191.797 175.167C191.797 175.167 204.706 176.469 208.474 177.609C212.242 178.772 210.125 184.842 208.474 186.052C206.822 187.261 190.983 183.307 190.983 183.307L191.797 175.167Z" fill="#222E55"/>
<path d="M190.262 192.262C190.262 192.262 203.613 195.821 205.59 196.1C207.567 196.379 211.637 180.074 210.055 179.772C205.939 179.004 207.357 193.681 202.426 192.169C197.542 190.657 190.099 189.355 190.099 189.355L190.262 192.262Z" fill="#222E55"/>
<path d="M406.76 169.165C405.597 169.817 396.014 171.631 393.549 174.817C391.06 178.027 395.363 201.891 396.526 203.682C397.689 205.496 413.528 202.752 413.528 202.752L412.342 199.589C412.342 199.589 401.48 203.473 399.503 200.682C397.526 197.867 395.037 180.632 396.2 178.027C397.363 175.422 407.481 172.77 407.481 172.77L406.76 169.165Z" fill="#222E55"/>
<path d="M406.667 176.632C406.667 176.632 405.388 177.795 402.596 178.399C401.666 178.609 400.829 178.725 400.131 178.818C398.828 178.981 397.898 180.144 397.991 181.446C398.27 184.703 399.015 190.308 400.922 192.634C403.713 196.03 410.807 196.867 410.807 196.867L406.667 176.632Z" fill="#222E55"/>
<path d="M354.868 59.9394C353.589 53.7292 354.124 52.8221 352.426 50.7985C350.705 48.7517 350.24 47.9841 350.216 45.1232C350.193 42.2623 345.867 39.1455 345.867 39.1455C345.867 39.1455 346.774 31.9351 347.123 29.7953C347.472 27.6787 344.285 25.0736 344.285 25.0736C344.285 25.0736 336.424 0 302.628 0H302.604H302.581C268.785 0 260.924 25.0736 260.924 25.0736C260.924 25.0736 257.714 27.6787 258.086 29.7953C258.435 31.9119 259.342 39.1455 259.342 39.1455C259.342 39.1455 255.016 42.2623 254.993 45.1232C254.969 47.9841 254.504 48.7517 252.783 50.7985C251.062 52.8453 251.62 53.7524 250.341 59.9394C249.061 66.1497 248.666 78.7563 250.573 82.0358C252.457 85.3154 265.273 88.4089 265.273 88.4089C263.273 80.3612 262.459 56.5203 274.577 52.5895C286.393 48.7517 301.837 49.7286 302.604 49.7751H302.628H302.651C303.419 49.7286 318.863 48.7517 330.679 52.5895C342.797 56.5203 340.773 80.3612 338.773 88.4089C338.773 88.4089 352.821 85.2921 354.705 82.0358C356.52 78.7563 356.124 66.1264 354.868 59.9394Z" fill="#222E55"/>
<path d="M337.354 20.7472C336.54 18.8632 334.284 12.6297 325.445 9.83855C316.63 7.04743 309.792 7.02417 302.558 7.02417C295.324 7.02417 288.486 7.07069 279.671 9.83855C270.832 12.6297 268.576 18.8632 267.762 20.7472C266.948 22.6312 266.157 32.2838 268.646 35.1447C271.135 38.0057 282.764 43.0064 287.207 38.2383C292.556 32.5164 299.348 25.8643 302.558 25.8643C305.768 25.8643 312.536 32.5164 317.909 38.2383C322.352 42.9832 333.981 37.9824 336.47 35.1447C338.959 32.3071 338.168 22.6545 337.354 20.7472Z" fill="white"/>
<path d="M327.562 15.7699C320.538 11.1646 309.559 10.5598 302.558 10.5598C295.557 10.5598 284.579 11.1646 277.554 15.7699C270.53 20.3753 270.53 22.864 270.53 27.2368C270.53 31.6095 270.6 33.1912 277.089 34.4007C283.578 35.6102 285.532 35.9823 290.975 30.4001C296.417 24.8178 299.162 23.5386 302.535 23.5386C305.907 23.5386 308.675 24.8178 314.095 30.4001C319.537 35.9823 321.491 35.6102 327.981 34.4007C334.47 33.1912 334.54 31.6095 334.54 27.2368C334.586 22.864 334.586 20.3753 327.562 15.7699Z" fill="#222E55"/>
<path d="M349.612 49.7981C322.631 39.7965 303.767 40.9362 302.604 40.9362C301.442 40.9362 282.578 39.7965 255.597 49.7981C254.155 51.3564 254.411 52.1473 253.62 56.0548C253.62 56.0548 273.321 45.0299 302.604 45.0299C331.888 45.0299 351.589 56.0548 351.589 56.0548C350.821 52.1473 351.054 51.3564 349.612 49.7981Z" fill="white"/>
<path d="M266.157 82.0589C266.064 82.338 265.855 82.6404 265.622 82.8032C265.483 82.8963 265.11 82.8497 264.971 82.7102C264.599 82.4078 264.18 82.0589 263.971 81.6402C263.459 80.6866 262.901 79.733 262.622 78.7096C261.645 75.2439 261.017 71.7317 261.133 68.1033C261.133 67.7777 261.203 67.4288 261.273 67.1264C261.412 66.5449 262.226 66.3123 262.668 66.7077C263.25 67.2194 263.622 67.8474 263.715 68.6383C263.831 69.5454 263.924 70.4525 264.064 71.6387C264.064 71.7085 264.11 72.0574 264.017 72.3598C263.133 75.2439 264.134 77.7792 265.413 80.2447C265.599 80.6169 265.855 80.9425 266.041 81.3379C266.111 81.5705 266.227 81.8729 266.157 82.0589Z" fill="white"/>
<path d="M337.377 79.8956C337.773 78.4535 338.215 77.0115 338.54 75.5461C338.819 74.3366 338.843 73.1271 338.564 71.8479C338.215 70.243 338.401 68.545 339.029 66.9401C339.215 66.4749 339.517 66.033 340.099 66.0795C340.68 66.1261 340.959 66.5913 341.029 67.0797C341.145 67.9868 341.169 68.9172 341.192 69.5917C340.843 73.4295 340.401 76.9649 339.192 80.3841C338.703 81.7564 338.168 82.2681 337.633 81.9192C336.866 81.361 337.168 80.5934 337.377 79.8956Z" fill="white"/>
<path d="M267.785 24.3293C267.785 24.3293 261.807 27.1437 261.924 27.9578C262.04 28.7719 262.249 34.517 262.854 35.1682C263.459 35.8195 269.181 33.4005 269.181 33.4005L267.785 24.3293Z" fill="white"/>
<path d="M337.866 24.3293C337.866 24.3293 343.843 27.1437 343.727 27.9578C343.611 28.7719 343.402 34.517 342.797 35.1682C342.192 35.8195 336.47 33.4005 336.47 33.4005L337.866 24.3293Z" fill="white"/>
</svg>
